<svg width="623" height="629" xmlns="http://www.w3.org/2000/svg" xmlns:xlink="http://www.w3.org/1999/xlink" xml:space="preserve" overflow="hidden"><defs><clipPath id="clip0"><rect x="838" y="2444" width="623" height="629"/></clipPath></defs><g clip-path="url(#clip0)" transform="translate(-838 -2444)"><path d="M892.136 3025.5 1067.77 3025.5 1067.77 2843.72 884.5 2843.72 884.5 2500.03 1060.13 2500.03 1060.13 2681.8 1238.82 2681.8 1238.82 2498.5 1417.5 2498.5 1417.5 2854.42 1237.29 2854.42 1237.29 3025.5 1417.5 3025.5" stroke="#E93D2E" stroke-width="36.6667" stroke-miterlimit="8" fill="none" fill-rule="evenodd"/><path d="M838 3027.5C838 3002.37 858.595 2982 884 2982 909.405 2982 930 3002.37 930 3027.5 930 3052.63 909.405 3073 884 3073 858.595 3073 838 3052.63 838 3027.5Z" fill="#1F4E79" fill-rule="evenodd"/><path d="M1018 3027.5C1018 3002.37 1038.59 2982 1064 2982 1089.41 2982 1110 3002.37 1110 3027.5 1110 3052.63 1089.41 3073 1064 3073 1038.59 3073 1018 3052.63 1018 3027.5Z" fill="#1F4E79" fill-rule="evenodd"/><path d="M1018 2841C1018 2815.59 1038.59 2795 1064 2795 1089.41 2795 1110 2815.59 1110 2841 1110 2866.41 1089.41 2887 1064 2887 1038.59 2887 1018 2866.41 1018 2841Z" fill="#1F4E79" fill-rule="evenodd"/><path d="M838 2841C838 2815.59 858.595 2795 884 2795 909.405 2795 930 2815.59 930 2841 930 2866.41 909.405 2887 884 2887 858.595 2887 838 2866.41 838 2841Z" fill="#1F4E79" fill-rule="evenodd"/><path d="M838 2677C838 2651.59 858.595 2631 884 2631 909.405 2631 930 2651.59 930 2677 930 2702.41 909.405 2723 884 2723 858.595 2723 838 2702.41 838 2677Z" fill="#1F4E79" fill-rule="evenodd"/><path d="M838 2489.5C838 2464.37 858.595 2444 884 2444 909.405 2444 930 2464.37 930 2489.5 930 2514.63 909.405 2535 884 2535 858.595 2535 838 2514.63 838 2489.5Z" fill="#1F4E79" fill-rule="evenodd"/><path d="M1018 2489.5C1018 2464.37 1038.59 2444 1064 2444 1089.41 2444 1110 2464.37 1110 2489.5 1110 2514.63 1089.41 2535 1064 2535 1038.59 2535 1018 2514.63 1018 2489.5Z" fill="#1F4E79" fill-rule="evenodd"/><path d="M1018 2677C1018 2651.59 1038.59 2631 1064 2631 1089.41 2631 1110 2651.59 1110 2677 1110 2702.41 1089.41 2723 1064 2723 1038.59 2723 1018 2702.41 1018 2677Z" fill="#1F4E79" fill-rule="evenodd"/><path d="M1191 2677C1191 2651.59 1211.59 2631 1237 2631 1262.41 2631 1283 2651.59 1283 2677 1283 2702.41 1262.41 2723 1237 2723 1211.59 2723 1191 2702.41 1191 2677Z" fill="#1F4E79" fill-rule="evenodd"/><path d="M1191 2489.5C1191 2464.37 1211.59 2444 1237 2444 1262.41 2444 1283 2464.37 1283 2489.5 1283 2514.63 1262.41 2535 1237 2535 1211.59 2535 1191 2514.63 1191 2489.5Z" fill="#1F4E79" fill-rule="evenodd"/><path d="M1369 2489.5C1369 2464.37 1389.59 2444 1415 2444 1440.41 2444 1461 2464.37 1461 2489.5 1461 2514.63 1440.41 2535 1415 2535 1389.59 2535 1369 2514.63 1369 2489.5Z" fill="#1F4E79" fill-rule="evenodd"/><path d="M1369 2677C1369 2651.59 1389.59 2631 1415 2631 1440.41 2631 1461 2651.59 1461 2677 1461 2702.41 1440.41 2723 1415 2723 1389.59 2723 1369 2702.41 1369 2677Z" fill="#1F4E79" fill-rule="evenodd"/><path d="M1369 2841C1369 2815.59 1389.59 2795 1415 2795 1440.41 2795 1461 2815.59 1461 2841 1461 2866.41 1440.41 2887 1415 2887 1389.59 2887 1369 2866.41 1369 2841Z" fill="#1F4E79" fill-rule="evenodd"/><path d="M1191 2841C1191 2815.59 1211.59 2795 1237 2795 1262.41 2795 1283 2815.59 1283 2841 1283 2866.41 1262.41 2887 1237 2887 1211.59 2887 1191 2866.41 1191 2841Z" fill="#1F4E79" fill-rule="evenodd"/><path d="M1191 3027.5C1191 3002.37 1211.59 2982 1237 2982 1262.41 2982 1283 3002.37 1283 3027.5 1283 3052.63 1262.41 3073 1237 3073 1211.59 3073 1191 3052.63 1191 3027.5Z" fill="#1F4E79" fill-rule="evenodd"/><path d="M1369 3027.5C1369 3002.37 1389.59 2982 1415 2982 1440.41 2982 1461 3002.37 1461 3027.5 1461 3052.63 1440.41 3073 1415 3073 1389.59 3073 1369 3052.63 1369 3027.5Z" fill="#1F4E79" fill-rule="evenodd"/></g></svg>