<svg width="571" height="571" xmlns="http://www.w3.org/2000/svg" xmlns:xlink="http://www.w3.org/1999/xlink" xml:space="preserve" overflow="hidden"><defs><clipPath id="clip0"><rect x="1956" y="2404" width="571" height="571"/></clipPath></defs><g clip-path="url(#clip0)" transform="translate(-1956 -2404)"><path d="M2089.6 2837.68C2012.16 2748.95 2021.31 2614.24 2110.04 2536.79 2198.77 2459.35 2333.48 2468.5 2410.92 2557.23 2488.37 2645.96 2479.22 2780.67 2390.49 2858.12 2301.75 2935.56 2167.04 2926.41 2089.6 2837.68Z" stroke="#000000" stroke-width="32.0833" stroke-miterlimit="8" fill="#FFC000" fill-rule="evenodd"/><path d="M2153.37 2782.02C2075.93 2693.29 2056.53 2583.5 2110.04 2536.79 2163.55 2490.09 2269.71 2524.16 2347.15 2612.89 2424.6 2701.62 2444 2811.41 2390.49 2858.12 2336.98 2904.82 2230.82 2870.75 2153.37 2782.02Z" stroke="#000000" stroke-width="22.9167" stroke-miterlimit="8" fill="#FFC000" fill-rule="evenodd"/><path d="M2110.04 2536.79 2390.49 2858.12" stroke="#000000" stroke-width="22.9167" stroke-miterlimit="8" fill="#FFC000" fill-rule="evenodd"/><path d="M2089.6 2837.68 2410.92 2557.23" stroke="#000000" stroke-width="22.9167" stroke-miterlimit="8" fill="#FFC000" fill-rule="evenodd"/><path d="M1980 2556 2113 2556 2113 2423" stroke="#000000" stroke-width="27.5" stroke-miterlimit="8" fill="#FFFFFF" fill-rule="evenodd"/><path d="M2506 2828 2373 2828 2373 2961" stroke="#000000" stroke-width="27.5" stroke-miterlimit="8" fill="#FFFFFF" fill-rule="evenodd"/><path d="M2513 2418 2513 2827.53 2379.53 2961 1970 2961 1970 2961 1970 2551.47 2103.47 2418 2513 2418Z" stroke="#000000" stroke-width="27.5" stroke-miterlimit="8" fill="none" fill-rule="evenodd"/></g></svg>