<svg width="571" height="571" xmlns="http://www.w3.org/2000/svg" xmlns:xlink="http://www.w3.org/1999/xlink" xml:space="preserve" overflow="hidden"><defs><clipPath id="clip0"><rect x="5245" y="1445" width="571" height="571"/></clipPath></defs><g clip-path="url(#clip0)" transform="translate(-5245 -1445)"><path d="M5802 1459 5802 1868.53 5668.53 2002 5259 2002 5259 2002 5259 1592.47 5392.47 1459 5802 1459Z" stroke="#000000" stroke-width="27.5" stroke-miterlimit="8" fill-rule="evenodd"/><rect x="5314" y="1614.5" width="325.5" height="330.5" fill="#A9D18E"/><path d="M5639.5 1614.5 5748 1506 5748 1836.5 5639.5 1945Z" fill="#88A872" fill-rule="evenodd"/><path d="M5314 1614.5 5422.5 1506 5748 1506 5639.5 1614.5Z" fill="#BADAA4" fill-rule="evenodd"/><path d="M5314 1614.5 5422.5 1506 5748 1506 5748 1836.5 5639.5 1945 5314 1945ZM5314 1614.5 5639.5 1614.5 5748 1506M5639.5 1614.5 5639.5 1945" stroke="#000000" stroke-width="27.5" stroke-miterlimit="8" fill="none" fill-rule="evenodd"/><path d="M5585 1782.42 5532.75 1782.42 5532.75 1941 5428.25 1941 5428.25 1782.42 5376 1782.42 5480.5 1645Z" fill-rule="evenodd"/></g></svg>