<svg width="571" height="571" xmlns="http://www.w3.org/2000/svg" xmlns:xlink="http://www.w3.org/1999/xlink" xml:space="preserve" overflow="hidden"><defs><clipPath id="clip0"><rect x="4423" y="1462" width="571" height="571"/></clipPath></defs><g clip-path="url(#clip0)" transform="translate(-4423 -1462)"><path d="M4980 1476 4980 1885.53 4846.53 2019 4437 2019 4437 2019 4437 1609.47 4570.47 1476 4980 1476Z" stroke="#000000" stroke-width="27.5" stroke-miterlimit="8" fill-rule="evenodd"/><rect x="4491" y="1631.5" width="325.5" height="330.5" fill="#FFC000"/><path d="M4816.5 1631.5 4925 1523 4925 1853.5 4816.5 1962Z" fill="#CD9A00" fill-rule="evenodd"/><path d="M4491 1631.5 4599.5 1523 4925 1523 4816.5 1631.5Z" fill="#FFCC32" fill-rule="evenodd"/><path d="M4491 1631.5 4599.5 1523 4925 1523 4925 1853.5 4816.5 1962 4491 1962ZM4491 1631.5 4816.5 1631.5 4925 1523M4816.5 1631.5 4816.5 1962" stroke="#000000" stroke-width="27.5" stroke-miterlimit="8" fill="none" fill-rule="evenodd"/><path d="M4544 1789.58 4596.25 1789.58 4596.25 1630 4700.75 1630 4700.75 1789.58 4753 1789.58 4648.5 1927Z" fill-rule="evenodd"/></g></svg>