<svg width="424" height="424" xmlns="http://www.w3.org/2000/svg" xmlns:xlink="http://www.w3.org/1999/xlink" xml:space="preserve" overflow="hidden"><defs><clipPath id="clip0"><rect x="2586" y="1478" width="424" height="424"/></clipPath></defs><g clip-path="url(#clip0)" transform="translate(-2586 -1478)"><path d="M2600 1690C2600 1580.65 2688.65 1492 2798 1492 2907.35 1492 2996 1580.65 2996 1690 2996 1799.35 2907.35 1888 2798 1888 2688.65 1888 2600 1799.35 2600 1690Z" stroke="#000000" stroke-width="27.5" stroke-miterlimit="8" fill="none" fill-rule="evenodd"/><path d="M2657.96 1549.65 2938.29 1829.99" stroke="#000000" stroke-width="27.5" stroke-linecap="square" stroke-miterlimit="8" stroke-dasharray="82.5 27.5" fill="none" fill-rule="evenodd"/><path d="M2938.29 1549.65 2657.96 1829.99" stroke="#000000" stroke-width="27.5" stroke-linecap="square" stroke-miterlimit="8" stroke-dasharray="82.5 27.5" fill="none" fill-rule="evenodd"/><path d="M2703.5 1690.5C2703.5 1638.03 2746.03 1595.5 2798.5 1595.5 2850.97 1595.5 2893.5 1638.03 2893.5 1690.5 2893.5 1742.97 2850.97 1785.5 2798.5 1785.5 2746.03 1785.5 2703.5 1742.97 2703.5 1690.5Z" stroke="#000000" stroke-width="20.625" stroke-miterlimit="8" fill="#FFFFFF" fill-rule="evenodd"/></g></svg>