<svg width="405" height="369" xmlns="http://www.w3.org/2000/svg" xmlns:xlink="http://www.w3.org/1999/xlink" xml:space="preserve" overflow="hidden"><defs><clipPath id="clip0"><rect x="1635" y="1679" width="405" height="369"/></clipPath></defs><g clip-path="url(#clip0)" transform="translate(-1635 -1679)"><path d="M1774.5 1865.75 1774.5 1724.5 1991.5 1724.5C1991.5 1833.03 1990.99 1937.97 1990.99 2046.5" stroke="#00B0F0" stroke-width="36.6667" stroke-miterlimit="8" fill="none" fill-rule="evenodd"/><path d="M1655.15 2047.5C1654.93 1981.17 1654.72 1914.83 1654.5 1848.5L1838.85 1848.5C1838.85 1910.01 1839.5 1982.72 1839.5 2044.23" stroke="#000000" stroke-width="36.6667" stroke-miterlimit="8" fill="none" fill-rule="evenodd"/><path d="M1742.5 1850.59 1742.5 1697.5 2021.5 1697.5C2021.5 1815.13 2020.85 1928.87 2020.85 2046.5" stroke="#000000" stroke-width="36.6667" stroke-miterlimit="8" fill="none" fill-rule="evenodd"/><path d="M1690.91 2046.5C1690.77 1992.17 1690.64 1937.83 1690.5 1883.5L1806.09 1883.5C1806.09 1933.88 1806.5 1993.44 1806.5 2043.82" stroke="#00B050" stroke-width="36.6667" stroke-miterlimit="8" fill="none" fill-rule="evenodd"/></g></svg>