<svg width="442" height="503" xmlns="http://www.w3.org/2000/svg" xmlns:xlink="http://www.w3.org/1999/xlink" xml:space="preserve" overflow="hidden"><defs><clipPath id="clip0"><rect x="247" y="983" width="442" height="503"/></clipPath></defs><g clip-path="url(#clip0)" transform="translate(-247 -983)"><path d="M247 1069.5C247 1021.73 285.728 983 333.5 983 381.273 983 420 1021.73 420 1069.5 420 1117.27 381.273 1156 333.5 1156 285.728 1156 247 1117.27 247 1069.5Z" fill="#00B0F0" fill-rule="evenodd"/><rect x="287" y="1080" width="93.9998" height="330" fill="#00B0F0"/><path d="M247 1400C247 1352.5 285.728 1314 333.5 1314 381.273 1314 420 1352.5 420 1400 420 1447.5 381.273 1486 333.5 1486 285.728 1486 247 1447.5 247 1400Z" fill="#00B0F0" fill-rule="evenodd"/><path d="M595.655 1038.96 641.305 1104.88 341.371 1312.61 295.721 1246.69Z" fill="#00B0F0" fill-rule="evenodd"/><path d="M610.592 1386.27 554.049 1425.85 399.822 1205.56 456.366 1165.98Z" fill="#00B0F0" fill-rule="evenodd"/><path d="M516 1079.5C516 1031.73 554.727 993 602.5 993 650.272 993 689 1031.73 689 1079.5 689 1127.27 650.272 1166 602.5 1166 554.727 1166 516 1127.27 516 1079.5Z" fill="#00B0F0" fill-rule="evenodd"/><path d="M504 1395C504 1347.5 542.503 1309 590 1309 637.497 1309 676 1347.5 676 1395 676 1442.5 637.497 1481 590 1481 542.503 1481 504 1442.5 504 1395Z" fill="#00B0F0" fill-rule="evenodd"/></g></svg>