<?xml version="1.0" encoding="UTF-8" standalone="no"?>
<!-- Created with Inkscape (http://www.inkscape.org/) -->

<svg
   width="16"
   height="16"
   viewBox="0 0 4.2333332 4.2333332"
   version="1.1"
   id="svg5"
   inkscape:version="1.1 (c68e22c387, 2021-05-23)"
   sodipodi:docname="overlay.svg"
   inkscape:export-filename="C:\DEV\Python\geospatial\icons\overlay.png"
   inkscape:export-xdpi="96"
   inkscape:export-ydpi="96"
   xmlns:inkscape="http://www.inkscape.org/namespaces/inkscape"
   xmlns:sodipodi="http://sodipodi.sourceforge.net/DTD/sodipodi-0.dtd"
   xmlns="http://www.w3.org/2000/svg"
   xmlns:svg="http://www.w3.org/2000/svg">
  <sodipodi:namedview
     id="namedview7"
     pagecolor="#505050"
     bordercolor="#ffffff"
     borderopacity="1"
     inkscape:pageshadow="0"
     inkscape:pageopacity="0"
     inkscape:pagecheckerboard="1"
     inkscape:document-units="mm"
     showgrid="false"
     units="px"
     inkscape:zoom="30.28125"
     inkscape:cx="8.9659443"
     inkscape:cy="13.952528"
     inkscape:window-width="1888"
     inkscape:window-height="1177"
     inkscape:window-x="1944"
     inkscape:window-y="-8"
     inkscape:window-maximized="0"
     inkscape:current-layer="layer1" />
  <defs
     id="defs2" />
  <g
     inkscape:label="Layer 1"
     inkscape:groupmode="layer"
     id="layer1">
    <path
       style="fill:#000000;stroke-width:0.00992316"
       d="M 1.1439321,3.4032385 C 0.5697522,3.1455101 0.175416,2.9630725 0.1590538,2.9476037 0.1257631,2.9161037 0.1240006,2.8804787 0.1540848,2.8475349 0.1672473,2.8330979 0.2817593,2.7759099 0.432951,2.7083254 L 0.6894889,2.5935847 1.3727498,2.9009443 C 2.02791,3.195657 2.0584951,3.2082945 2.1164232,3.2082945 c 0.057938,0 0.088369,-0.012563 0.7434006,-0.3074627 L 3.542811,2.5933597 3.7995999,2.7082129 c 0.2596959,0.116147 0.3014419,0.1421157 0.3014419,0.1875001 0,0.013031 -0.01005,0.034688 -0.022331,0.048094 -0.022041,0.024 -1.9330935,0.8899133 -1.9631751,0.8895008 -0.00769,-1.127e-4 -0.44494,-0.1936129 -0.9716148,-0.4300225 z M 1.1290447,2.6186253 C 0.6050988,2.3826845 0.1663691,2.1800906 0.1540888,2.1684281 c -0.0269625,-0.025594 -0.02925,-0.07125 -0.00497,-0.099263 0.015956,-0.018375 0.5166491,-0.2501252 0.5404082,-0.2501252 0.00572,0 0.3146058,0.1373157 0.6863921,0.3051471 0.6637253,0.2996065 0.6771437,0.3051378 0.7404767,0.3051378 0.063328,0 0.076791,-0.00563 0.740635,-0.3051378 0.3718747,-0.1678314 0.6806781,-0.3051471 0.6862309,-0.3051471 0.023428,0 0.5245604,0.232022 0.5404107,0.2502096 0.022238,0.0255 0.022238,0.069375 0,0.09525 C 4.0583508,2.1939375 2.1494692,3.0497632 2.1117845,3.0485725 2.0950501,3.0480475 1.6584297,2.8570318 1.1290372,2.6186253 Z m 0.00113,-0.7783788 C 0.5049597,1.5578751 0.1622694,1.3980406 0.1502525,1.3831999 0.1255587,1.3527029 0.1269369,1.3192909 0.1540925,1.2899189 0.1751675,1.2671279 2.0871253,0.40002536 2.1163088,0.40002536 c 0.029175,0 1.9413398,0.86710944 1.9624138,0.88989724 0.028406,0.030722 0.028406,0.064828 0,0.096221 -0.02596,0.028688 -1.9095324,0.880722 -1.9573534,0.8854096 -0.021881,0.00188 -0.2844424,-0.1121064 -0.9912063,-0.4313067 z"
       id="path1154" />
  </g>
</svg>
