<svg width="578" height="578" xmlns="http://www.w3.org/2000/svg" xmlns:xlink="http://www.w3.org/1999/xlink" xml:space="preserve" overflow="hidden"><defs><clipPath id="clip0"><rect x="2480" y="2334" width="578" height="578"/></clipPath></defs><g clip-path="url(#clip0)" transform="translate(-2480 -2334)"><path d="M2491.5 2623C2491.5 2469.74 2615.74 2345.5 2769 2345.5 2922.26 2345.5 3046.5 2469.74 3046.5 2623 3046.5 2776.26 2922.26 2900.5 2769 2900.5 2615.74 2900.5 2491.5 2776.26 2491.5 2623Z" stroke="#385723" stroke-width="22.9167" stroke-miterlimit="8" fill="#C5E0B4" fill-rule="evenodd"/><path d="M2602 2622.5C2602 2469.24 2676.77 2345 2769 2345 2861.23 2345 2936 2469.24 2936 2622.5 2936 2775.76 2861.23 2900 2769 2900 2676.77 2900 2602 2775.76 2602 2622.5Z" stroke="#385723" stroke-width="13.75" stroke-miterlimit="8" fill="#C5E0B4" fill-rule="evenodd"/><path d="M2621 2622.5C2621 2541.04 2687.04 2475 2768.5 2475 2849.96 2475 2916 2541.04 2916 2622.5 2916 2703.96 2849.96 2770 2768.5 2770 2687.04 2770 2621 2703.96 2621 2622.5Z" stroke="#385723" stroke-width="13.75" stroke-miterlimit="8" fill="#385723" fill-rule="evenodd"/><path d="M2769 2345 2769 2899.87" stroke="#385723" stroke-width="13.75" stroke-miterlimit="8" fill="#C5E0B4" fill-rule="evenodd"/><path d="M2491 2623 3045.87 2623" stroke="#385723" stroke-width="13.75" stroke-miterlimit="8" fill="#C5E0B4" fill-rule="evenodd"/><path d="M2671 2717 2809.39 2660.39 2866 2522 2727.61 2579.87 2671 2717ZM2769.13 2606.29C2776.68 2606.29 2781.71 2611.32 2781.71 2618.87 2781.71 2626.42 2776.68 2631.45 2769.13 2631.45 2761.58 2631.45 2756.55 2626.42 2756.55 2618.87 2756.55 2611.32 2761.58 2606.29 2769.13 2606.29" fill="#FFFFFF" fill-rule="evenodd"/><path d="M2744 2619.5C2744 2605.97 2754.97 2595 2768.5 2595 2782.03 2595 2793 2605.97 2793 2619.5 2793 2633.03 2782.03 2644 2768.5 2644 2754.97 2644 2744 2633.03 2744 2619.5Z" fill="#385723" fill-rule="evenodd"/></g></svg>