<svg width="587" height="587" xmlns="http://www.w3.org/2000/svg" xmlns:xlink="http://www.w3.org/1999/xlink" xml:space="preserve" overflow="hidden"><defs><clipPath id="clip0"><rect x="973" y="3785" width="587" height="587"/></clipPath></defs><g clip-path="url(#clip0)" transform="translate(-973 -3785)"><path d="M989 4078.5C989 3925.24 1113.24 3801 1266.5 3801 1419.76 3801 1544 3925.24 1544 4078.5 1544 4231.76 1419.76 4356 1266.5 4356 1113.24 4356 989 4231.76 989 4078.5Z" stroke="#000000" stroke-width="32.0833" stroke-miterlimit="8" fill="none" fill-rule="evenodd"/><path d="M1063.5 4079C1063.5 3966.61 1154.61 3875.5 1267 3875.5 1379.39 3875.5 1470.5 3966.61 1470.5 4079 1470.5 4191.39 1379.39 4282.5 1267 4282.5 1154.61 4282.5 1063.5 4191.39 1063.5 4079Z" stroke="#000000" stroke-width="22.9167" stroke-miterlimit="8" fill-rule="evenodd"/><path d="M1269 4088.29C1245.59 4088.29 1226.86 4069.59 1226.86 4046.21 1226.86 4022.82 1245.59 4004.12 1269 4004.12 1292.41 4004.12 1311.14 4022.82 1311.14 4046.21 1311.14 4069.59 1292.41 4088.29 1269 4088.29ZM1269 3948C1236.69 3948 1206.26 3963.9 1188 3991.02 1169.74 4017.68 1166 4051.82 1177.7 4082.21L1222.18 4180.42 1260.57 4260.86C1261.98 4264.13 1265.25 4266 1269 4266 1272.75 4266 1276.02 4264.13 1277.43 4260.86L1315.82 4180.42 1360.3 4082.21C1372 4051.82 1368.26 4017.68 1350 3991.02 1331.74 3963.9 1301.31 3948 1269 3948Z" fill="#FFE8A7" fill-rule="evenodd"/></g></svg>