<svg width="577" height="578" xmlns="http://www.w3.org/2000/svg" xmlns:xlink="http://www.w3.org/1999/xlink" xml:space="preserve" overflow="hidden"><defs><clipPath id="clip0"><rect x="4233" y="132" width="577" height="578"/></clipPath></defs><g clip-path="url(#clip0)" transform="translate(-4233 -132)"><path d="M4244.5 421C4244.5 267.741 4368.52 143.5 4521.5 143.5 4674.48 143.5 4798.5 267.741 4798.5 421 4798.5 574.259 4674.48 698.5 4521.5 698.5 4368.52 698.5 4244.5 574.259 4244.5 421Z" stroke="#385723" stroke-width="22.9167" stroke-miterlimit="8" fill="#C5E0B4" fill-rule="evenodd"/><path d="M4354 420.5C4354 267.241 4428.77 143 4521 143 4613.23 143 4688 267.241 4688 420.5 4688 573.759 4613.23 698 4521 698 4428.77 698 4354 573.759 4354 420.5Z" stroke="#385723" stroke-width="13.75" stroke-miterlimit="8" fill="#C5E0B4" fill-rule="evenodd"/><path d="M4521 143 4521 697.873" stroke="#385723" stroke-width="13.75" stroke-miterlimit="8" fill="#C5E0B4" fill-rule="evenodd"/><path d="M4244 420 4798.87 420" stroke="#385723" stroke-width="13.75" stroke-miterlimit="8" fill="#C5E0B4" fill-rule="evenodd"/><path d="M4521 253C4673.98 253 4798 327.993 4798 420.5 4798 513.008 4673.98 588 4521 588 4368.02 588 4244 513.008 4244 420.5 4244 327.993 4368.02 253 4521 253Z" stroke="#385723" stroke-width="13.75" stroke-miterlimit="8" fill="#385723" fill-rule="evenodd"/><path d="M0 0 554.873 0.000360892" stroke="#385723" stroke-width="13.75" stroke-miterlimit="8" fill="#C5E0B4" fill-rule="evenodd" transform="matrix(-1 0 0 1 4798.87 420)"/><path d="M4558.07 369.525 4553.58 371.808C4552.54 373.33 4552.02 377.82 4552.02 385.279L4552.02 452.947C4552.02 461.361 4552.36 466.552 4553.04 468.521 4553.72 470.49 4555.31 471.475 4557.8 471.475 4560.35 471.475 4561.99 470.341 4562.7 468.074 4563.41 465.806 4563.77 460.406 4563.77 451.873L4563.77 385.279C4563.77 378.536 4563.4 374.225 4562.65 372.345 4561.91 370.465 4560.38 369.525 4558.07 369.525ZM4615.35 348.043 4646.67 348.043 4667.67 413.295 4667.67 348.043 4699 348.043 4699 492.957 4666.16 492.957 4646.67 427.079 4646.67 492.957 4615.35 492.957 4615.35 348.043ZM4369.24 348.043 4406.71 348.043 4406.71 444.891C4406.71 459.391 4406.56 468.715 4406.26 472.862 4405.96 477.01 4404.61 480.754 4402.19 484.095 4399.78 487.437 4396.52 489.749 4392.4 491.033 4388.27 492.315 4382.06 492.957 4373.77 492.957L4355 492.957 4355 467.626C4357.25 467.805 4358.89 467.895 4359.9 467.895 4362.56 467.895 4364.67 467.238 4366.21 465.925 4367.76 464.613 4368.65 463.001 4368.88 461.092 4369.12 459.183 4369.24 455.483 4369.24 449.993L4369.24 348.043ZM4557.89 345C4565.61 345 4572.53 346.268 4578.67 348.804 4584.81 351.341 4589.75 355.145 4593.49 360.217 4597.23 365.289 4599.45 370.809 4600.16 376.776 4600.88 382.743 4601.23 393.185 4601.23 408.103L4601.23 432.897C4601.23 447.457 4600.89 457.765 4600.21 463.822 4599.53 469.879 4597.39 475.413 4593.8 480.426 4590.21 485.438 4585.36 489.287 4579.25 491.972 4573.14 494.658 4566.02 496 4557.89 496 4550.18 496 4543.25 494.732 4537.11 492.196 4530.97 489.66 4526.03 485.856 4522.3 480.784 4518.56 475.712 4516.33 470.192 4515.62 464.225 4514.91 458.258 4514.55 447.815 4514.55 432.897L4514.55 408.103C4514.55 393.543 4514.89 383.235 4515.58 377.178 4516.26 371.122 4518.4 365.587 4521.98 360.575 4525.57 355.562 4530.42 351.714 4536.53 349.028 4542.65 346.343 4549.76 345 4557.89 345ZM4460.33 345C4470.06 345 4478.35 346.582 4485.2 349.744 4492.05 352.907 4496.59 356.89 4498.82 361.693 4501.04 366.497 4502.15 374.657 4502.15 386.174L4502.15 391.903 4467.36 391.903 4467.36 381.161C4467.36 376.149 4466.91 372.957 4466.02 371.584 4465.13 370.212 4463.65 369.525 4461.57 369.525 4459.32 369.525 4457.61 370.451 4456.46 372.302 4455.3 374.154 4454.72 376.96 4454.72 380.722 4454.72 385.558 4455.37 389.201 4456.67 391.649 4457.91 394.098 4461.44 397.051 4467.26 400.509 4483.94 410.465 4494.44 418.635 4498.77 425.02 4503.1 431.405 4505.27 441.699 4505.27 455.901 4505.27 466.224 4504.07 473.832 4501.66 478.725 4499.26 483.618 4494.62 487.721 4487.74 491.033 4480.86 494.344 4472.85 496 4463.71 496 4453.68 496 4445.12 494.091 4438.04 490.271 4430.95 486.453 4426.3 481.589 4424.11 475.682 4421.91 469.774 4420.81 461.39 4420.81 450.53L4420.81 441.042 4455.61 441.042 4455.61 458.675C4455.61 464.105 4456.1 467.596 4457.08 469.148 4458.06 470.699 4459.79 471.475 4462.29 471.475 4464.78 471.475 4466.63 470.49 4467.85 468.521 4469.06 466.552 4469.67 463.628 4469.67 459.749 4469.67 451.216 4468.51 445.637 4466.2 443.011 4463.83 440.386 4457.98 436 4448.67 429.854 4439.35 423.648 4433.19 419.143 4430.16 416.338 4427.13 413.534 4424.63 409.655 4422.64 404.702 4420.65 399.749 4419.66 393.424 4419.66 385.726 4419.66 374.627 4421.07 366.512 4423.88 361.38 4426.7 356.249 4431.26 352.236 4437.55 349.341 4443.83 346.447 4451.43 345 4460.33 345Z" fill="#FFFFFF" fill-rule="evenodd"/></g></svg>