<svg width="587" height="587" xmlns="http://www.w3.org/2000/svg" xmlns:xlink="http://www.w3.org/1999/xlink" xml:space="preserve" overflow="hidden"><defs><clipPath id="clip0"><rect x="6907" y="3785" width="587" height="587"/></clipPath></defs><g clip-path="url(#clip0)" transform="translate(-6907 -3785)"><path d="M6923 4078.5C6923 3925.24 7047.24 3801 7200.5 3801 7353.76 3801 7478 3925.24 7478 4078.5 7478 4231.76 7353.76 4356 7200.5 4356 7047.24 4356 6923 4231.76 6923 4078.5Z" stroke="#000000" stroke-width="32.0833" stroke-miterlimit="8" fill="#FFE979" fill-rule="evenodd"/><path d="M7034.5 4079C7034.5 3925.74 7109.27 3801.5 7201.5 3801.5 7293.73 3801.5 7368.5 3925.74 7368.5 4079 7368.5 4232.26 7293.73 4356.5 7201.5 4356.5 7109.27 4356.5 7034.5 4232.26 7034.5 4079Z" stroke="#000000" stroke-width="22.9167" stroke-miterlimit="8" fill="#FFE979" fill-rule="evenodd"/><path d="M7201.5 3801.5 7201.5 4356.37" stroke="#000000" stroke-width="22.9167" stroke-miterlimit="8" fill="#FFE979" fill-rule="evenodd"/><path d="M6923 4078 7477.87 4078" stroke="#000000" stroke-width="13.75" stroke-miterlimit="8" fill="#FFE979" fill-rule="evenodd"/><path d="M7200.5 3911C7353.76 3911 7478 3985.77 7478 4078 7478 4170.23 7353.76 4245 7200.5 4245 7047.24 4245 6923 4170.23 6923 4078 6923 3985.77 7047.24 3911 7200.5 3911Z" stroke="#000000" stroke-width="13.75" stroke-miterlimit="8" fill-rule="evenodd"/><path d="M0 0 554.873 0.000360892" stroke="#000000" stroke-width="13.75" stroke-miterlimit="8" fill="#C5E0B4" fill-rule="evenodd" transform="matrix(-1 0 0 1 7477.87 4078)"/><path d="M7112.34 3973 7342 3973 7276.2 4018.93 7276.2 4093.76C7276.2 4112.79 7271.86 4124.97 7263.19 4130.3 7239.03 4154.77 7203.15 4167 7155.55 4167 7122.09 4167 7095.63 4161.31 7076.18 4149.93 7056.73 4138.55 7047 4122.68 7047 4102.32 7047 4093.56 7050.3 4083.78 7056.91 4072.99L7128.74 4063.97C7128.14 4068.75 7127.71 4071.85 7127.44 4073.25 7125.43 4083.05 7124.43 4090.02 7124.43 4094.15 7124.43 4114.9 7133.97 4125.27 7153.06 4125.27 7163.15 4125.27 7169.85 4122.72 7173.17 4117.61 7176.48 4112.5 7178.14 4101.74 7178.14 4085.34L7178.14 4019Z" fill="#FFFFFF" fill-rule="evenodd"/></g></svg>