<svg width="587" height="587" xmlns="http://www.w3.org/2000/svg" xmlns:xlink="http://www.w3.org/1999/xlink" xml:space="preserve" overflow="hidden"><defs><clipPath id="clip0"><rect x="4682" y="3785" width="587" height="587"/></clipPath></defs><g clip-path="url(#clip0)" transform="translate(-4682 -3785)"><path d="M4976.5 3801.5 4976.5 4356.37" stroke="#000000" stroke-width="22.9167" stroke-miterlimit="8" fill="#FFE979" fill-rule="evenodd"/><path d="M4808.5 4079C4808.5 3925.74 4883.49 3801.5 4976 3801.5 5068.51 3801.5 5143.5 3925.74 5143.5 4079 5143.5 4232.26 5068.51 4356.5 4976 4356.5 4883.49 4356.5 4808.5 4232.26 4808.5 4079Z" stroke="#000000" stroke-width="22.9167" stroke-miterlimit="8" fill="none" fill-rule="evenodd"/><path d="M4976 3911.5C5129.26 3911.5 5253.5 3986.27 5253.5 4078.5 5253.5 4170.73 5129.26 4245.5 4976 4245.5 4822.74 4245.5 4698.5 4170.73 4698.5 4078.5 4698.5 3986.27 4822.74 3911.5 4976 3911.5Z" stroke="#000000" stroke-width="22.9167" stroke-miterlimit="8" fill="#FFE979" fill-rule="evenodd"/><path d="M4698 4078.5C4698 3925.24 4822.24 3801 4975.5 3801 5128.76 3801 5253 3925.24 5253 4078.5 5253 4231.76 5128.76 4356 4975.5 4356 4822.24 4356 4698 4231.76 4698 4078.5Z" stroke="#000000" stroke-width="32.0833" stroke-miterlimit="8" fill="none" fill-rule="evenodd"/><path d="M4829.23 3983 5136.72 3983 5143 4075.19 5070.33 4020.19 5032.15 4020.19 5032.15 4121.94 5098.1 4168 4867.89 4168 4933.85 4121.87 4933.85 4020.19 4895.53 4020.19 4823 4075.19Z" fill-rule="evenodd"/></g></svg>