<svg width="587" height="587" xmlns="http://www.w3.org/2000/svg" xmlns:xlink="http://www.w3.org/1999/xlink" xml:space="preserve" overflow="hidden"><defs><clipPath id="clip0"><rect x="7649" y="3785" width="587" height="587"/></clipPath></defs><g clip-path="url(#clip0)" transform="translate(-7649 -3785)"><path d="M7943.5 3801.5 7943.5 4356.37" stroke="#000000" stroke-width="22.9167" stroke-miterlimit="8" fill="#FFE979" fill-rule="evenodd"/><path d="M7775.5 4079C7775.5 3925.74 7850.49 3801.5 7943 3801.5 8035.51 3801.5 8110.5 3925.74 8110.5 4079 8110.5 4232.26 8035.51 4356.5 7943 4356.5 7850.49 4356.5 7775.5 4232.26 7775.5 4079Z" stroke="#000000" stroke-width="22.9167" stroke-miterlimit="8" fill="none" fill-rule="evenodd"/><path d="M7943 3911.5C8096.26 3911.5 8220.5 3986.27 8220.5 4078.5 8220.5 4170.73 8096.26 4245.5 7943 4245.5 7789.74 4245.5 7665.5 4170.73 7665.5 4078.5 7665.5 3986.27 7789.74 3911.5 7943 3911.5Z" stroke="#000000" stroke-width="22.9167" stroke-miterlimit="8" fill="#FFE979" fill-rule="evenodd"/><path d="M7665 4078.5C7665 3925.24 7789.24 3801 7942.5 3801 8095.76 3801 8220 3925.24 8220 4078.5 8220 4231.76 8095.76 4356 7942.5 4356 7789.24 4356 7665 4231.76 7665 4078.5Z" stroke="#000000" stroke-width="32.0833" stroke-miterlimit="8" fill="none" fill-rule="evenodd"/><path d="M7856.56 3977 8087 3977 8020.98 4022.93 8020.98 4097.76C8020.98 4116.79 8016.63 4128.97 8007.93 4134.3 7983.68 4158.77 7947.67 4171 7899.92 4171 7866.34 4171 7839.8 4165.31 7820.28 4153.93 7800.76 4142.55 7791 4126.68 7791 4106.32 7791 4097.56 7794.32 4087.78 7800.95 4076.99L7873.01 4067.97C7872.41 4072.75 7871.98 4075.85 7871.71 4077.25 7869.7 4087.05 7868.69 4094.02 7868.69 4098.15 7868.69 4118.9 7878.27 4129.28 7897.42 4129.28 7907.54 4129.28 7914.27 4126.72 7917.6 4121.61 7920.92 4116.5 7922.59 4105.74 7922.59 4089.34L7922.59 4023Z" fill-rule="evenodd"/></g></svg>