<svg width="578" height="578" xmlns="http://www.w3.org/2000/svg" xmlns:xlink="http://www.w3.org/1999/xlink" xml:space="preserve" overflow="hidden"><defs><clipPath id="clip0"><rect x="6295" y="132" width="578" height="578"/></clipPath></defs><g clip-path="url(#clip0)" transform="translate(-6295 -132)"><path d="M6306.5 421C6306.5 267.741 6430.74 143.5 6584 143.5 6737.26 143.5 6861.5 267.741 6861.5 421 6861.5 574.259 6737.26 698.5 6584 698.5 6430.74 698.5 6306.5 574.259 6306.5 421Z" stroke="#385723" stroke-width="22.9167" stroke-miterlimit="8" fill="none" fill-rule="evenodd"/><path d="M6416 420.5C6416 267.241 6490.77 143 6583 143 6675.23 143 6750 267.241 6750 420.5 6750 573.759 6675.23 698 6583 698 6490.77 698 6416 573.759 6416 420.5Z" stroke="#385723" stroke-width="13.75" stroke-miterlimit="8" fill="none" fill-rule="evenodd"/><path d="M6583 143 6583 697.873" stroke="#385723" stroke-width="13.75" stroke-miterlimit="8" fill="none" fill-rule="evenodd"/><path d="M6306 420 6860.87 420" stroke="#385723" stroke-width="13.75" stroke-miterlimit="8" fill="none" fill-rule="evenodd"/><path d="M6583.5 253C6736.76 253 6861 327.993 6861 420.5 6861 513.008 6736.76 588 6583.5 588 6430.24 588 6306 513.008 6306 420.5 6306 327.993 6430.24 253 6583.5 253Z" stroke="#385723" stroke-width="13.75" stroke-miterlimit="8" fill="none" fill-rule="evenodd"/><path d="M0 0 554.873 0.000360892" stroke="#385723" stroke-width="13.75" stroke-miterlimit="8" fill="#C5E0B4" fill-rule="evenodd" transform="matrix(-1 0 0 1 6860.87 420)"/><path d="M6620.07 369.525 6615.58 371.808C6614.54 373.33 6614.02 377.82 6614.02 385.279L6614.02 452.947C6614.02 461.361 6614.36 466.552 6615.04 468.521 6615.72 470.49 6617.31 471.475 6619.8 471.475 6622.35 471.475 6623.99 470.341 6624.7 468.074 6625.41 465.806 6625.77 460.406 6625.77 451.873L6625.77 385.279C6625.77 378.536 6625.4 374.225 6624.65 372.345 6623.91 370.465 6622.38 369.525 6620.07 369.525ZM6677.35 348.043 6708.67 348.043 6729.67 413.295 6729.67 348.043 6761 348.043 6761 492.957 6728.16 492.957 6708.67 427.079 6708.67 492.957 6677.35 492.957 6677.35 348.043ZM6431.24 348.043 6468.71 348.043 6468.71 444.891C6468.71 459.391 6468.56 468.715 6468.26 472.862 6467.96 477.01 6466.61 480.754 6464.19 484.095 6461.78 487.437 6458.52 489.749 6454.4 491.033 6450.27 492.315 6444.06 492.957 6435.77 492.957L6417 492.957 6417 467.626C6419.25 467.805 6420.89 467.895 6421.9 467.895 6424.56 467.895 6426.67 467.238 6428.21 465.925 6429.76 464.613 6430.65 463.001 6430.88 461.092 6431.12 459.183 6431.24 455.483 6431.24 449.993L6431.24 348.043ZM6619.89 345C6627.61 345 6634.53 346.268 6640.67 348.804 6646.81 351.341 6651.75 355.145 6655.49 360.217 6659.23 365.289 6661.45 370.809 6662.16 376.776 6662.88 382.743 6663.23 393.185 6663.23 408.103L6663.23 432.897C6663.23 447.457 6662.89 457.765 6662.21 463.822 6661.53 469.879 6659.39 475.413 6655.8 480.426 6652.21 485.438 6647.36 489.287 6641.25 491.972 6635.14 494.658 6628.02 496 6619.89 496 6612.18 496 6605.25 494.732 6599.11 492.196 6592.97 489.66 6588.03 485.856 6584.3 480.784 6580.56 475.712 6578.33 470.192 6577.62 464.225 6576.91 458.258 6576.55 447.815 6576.55 432.897L6576.55 408.103C6576.55 393.543 6576.89 383.235 6577.58 377.178 6578.26 371.122 6580.39 365.587 6583.98 360.575 6587.57 355.562 6592.42 351.714 6598.53 349.028 6604.65 346.343 6611.76 345 6619.89 345ZM6522.33 345C6532.06 345 6540.35 346.582 6547.2 349.744 6554.05 352.907 6558.59 356.89 6560.82 361.693 6563.04 366.497 6564.15 374.657 6564.15 386.174L6564.15 391.903 6529.36 391.903 6529.36 381.161C6529.36 376.149 6528.91 372.957 6528.02 371.584 6527.13 370.212 6525.65 369.525 6523.57 369.525 6521.32 369.525 6519.61 370.451 6518.46 372.302 6517.3 374.154 6516.72 376.96 6516.72 380.722 6516.72 385.558 6517.37 389.201 6518.67 391.649 6519.91 394.098 6523.44 397.051 6529.26 400.509 6545.94 410.465 6556.44 418.635 6560.77 425.02 6565.1 431.405 6567.27 441.699 6567.27 455.901 6567.27 466.224 6566.07 473.832 6563.66 478.725 6561.26 483.618 6556.62 487.721 6549.74 491.033 6542.86 494.344 6534.85 496 6525.71 496 6515.68 496 6507.12 494.091 6500.04 490.271 6492.94 486.453 6488.3 481.589 6486.11 475.682 6483.91 469.774 6482.81 461.39 6482.81 450.53L6482.81 441.042 6517.61 441.042 6517.61 458.675C6517.61 464.105 6518.1 467.596 6519.08 469.148 6520.06 470.699 6521.79 471.475 6524.29 471.475 6526.78 471.475 6528.63 470.49 6529.85 468.521 6531.06 466.552 6531.67 463.628 6531.67 459.749 6531.67 451.216 6530.51 445.637 6528.2 443.011 6525.83 440.386 6519.98 436 6510.67 429.854 6501.35 423.648 6495.19 419.143 6492.16 416.338 6489.13 413.534 6486.63 409.655 6484.64 404.702 6482.65 399.749 6481.66 393.424 6481.66 385.726 6481.66 374.627 6483.07 366.512 6485.88 361.38 6488.7 356.249 6493.26 352.236 6499.55 349.341 6505.83 346.447 6513.43 345 6522.33 345Z" fill="#385723" fill-rule="evenodd"/></g></svg>