<svg width="578" height="578" xmlns="http://www.w3.org/2000/svg" xmlns:xlink="http://www.w3.org/1999/xlink" xml:space="preserve" overflow="hidden"><defs><clipPath id="clip0"><rect x="2480" y="3008" width="578" height="578"/></clipPath></defs><g clip-path="url(#clip0)" transform="translate(-2480 -3008)"><path d="M2491.5 3297C2491.5 3143.74 2615.74 3019.5 2769 3019.5 2922.26 3019.5 3046.5 3143.74 3046.5 3297 3046.5 3450.26 2922.26 3574.5 2769 3574.5 2615.74 3574.5 2491.5 3450.26 2491.5 3297Z" stroke="#385723" stroke-width="22.9167" stroke-miterlimit="8" fill="none" fill-rule="evenodd"/><path d="M2602 3296.5C2602 3143.24 2676.77 3019 2769 3019 2861.23 3019 2936 3143.24 2936 3296.5 2936 3449.76 2861.23 3574 2769 3574 2676.77 3574 2602 3449.76 2602 3296.5Z" stroke="#385723" stroke-width="13.75" stroke-miterlimit="8" fill="none" fill-rule="evenodd"/><path d="M2621 3296.5C2621 3215.04 2687.04 3149 2768.5 3149 2849.96 3149 2916 3215.04 2916 3296.5 2916 3377.96 2849.96 3444 2768.5 3444 2687.04 3444 2621 3377.96 2621 3296.5Z" stroke="#385723" stroke-width="13.75" stroke-miterlimit="8" fill="none" fill-rule="evenodd"/><path d="M2769 3019 2769 3573.87" stroke="#385723" stroke-width="13.75" stroke-miterlimit="8" fill="none" fill-rule="evenodd"/><path d="M2491 3297 3045.87 3297" stroke="#385723" stroke-width="13.75" stroke-miterlimit="8" fill="none" fill-rule="evenodd"/><path d="M2671 3391 2809.39 3334.39 2866 3196 2727.61 3253.87 2671 3391ZM2769.13 3280.29C2776.68 3280.29 2781.71 3285.32 2781.71 3292.87 2781.71 3300.42 2776.68 3305.45 2769.13 3305.45 2761.58 3305.45 2756.55 3300.42 2756.55 3292.87 2756.55 3285.32 2761.58 3280.29 2769.13 3280.29" fill="#385723" fill-rule="evenodd"/><path d="M2744 3293.5C2744 3279.97 2754.97 3269 2768.5 3269 2782.03 3269 2793 3279.97 2793 3293.5 2793 3307.03 2782.03 3318 2768.5 3318 2754.97 3318 2744 3307.03 2744 3293.5Z" fill="#FFFFFF" fill-rule="evenodd"/></g></svg>