<svg width="587" height="587" xmlns="http://www.w3.org/2000/svg" xmlns:xlink="http://www.w3.org/1999/xlink" xml:space="preserve" overflow="hidden"><defs><clipPath id="clip0"><rect x="1715" y="3785" width="587" height="587"/></clipPath></defs><g clip-path="url(#clip0)" transform="translate(-1715 -3785)"><path d="M1731 4078.5C1731 3925.24 1855.24 3801 2008.5 3801 2161.76 3801 2286 3925.24 2286 4078.5 2286 4231.76 2161.76 4356 2008.5 4356 1855.24 4356 1731 4231.76 1731 4078.5Z" stroke="#000000" stroke-width="32.0833" stroke-miterlimit="8" fill="none" fill-rule="evenodd"/><path d="M1805.5 4079C1805.5 3966.61 1896.61 3875.5 2009 3875.5 2121.39 3875.5 2212.5 3966.61 2212.5 4079 2212.5 4191.39 2121.39 4282.5 2009 4282.5 1896.61 4282.5 1805.5 4191.39 1805.5 4079Z" stroke="#000000" stroke-width="22.9167" stroke-miterlimit="8" fill="none" fill-rule="evenodd"/><path d="M2010.5 4088.29C1987.21 4088.29 1968.58 4069.59 1968.58 4046.21 1968.58 4022.82 1987.21 4004.12 2010.5 4004.12 2033.79 4004.12 2052.42 4022.82 2052.42 4046.21 2052.42 4069.59 2033.79 4088.29 2010.5 4088.29ZM2010.5 3948C1978.36 3948 1948.08 3963.9 1929.92 3991.02 1911.75 4017.68 1908.02 4051.82 1919.67 4082.21L1963.92 4180.42 2002.12 4260.86C2003.51 4264.13 2006.77 4266 2010.5 4266 2014.23 4266 2017.49 4264.13 2018.88 4260.86L2057.08 4180.42 2101.33 4082.21C2112.98 4051.82 2109.25 4017.68 2091.08 3991.02 2072.92 3963.9 2042.64 3948 2010.5 3948Z" fill-rule="evenodd"/></g></svg>