<svg width="587" height="587" xmlns="http://www.w3.org/2000/svg" xmlns:xlink="http://www.w3.org/1999/xlink" xml:space="preserve" overflow="hidden"><defs><clipPath id="clip0"><rect x="6166" y="3785" width="587" height="587"/></clipPath></defs><g clip-path="url(#clip0)" transform="translate(-6166 -3785)"><path d="M6459.5 3801.5 6459.5 4356.37" stroke="#000000" stroke-width="22.9167" stroke-miterlimit="8" fill="#FFE979" fill-rule="evenodd"/><path d="M6292.5 4079C6292.5 3925.74 6367.27 3801.5 6459.5 3801.5 6551.73 3801.5 6626.5 3925.74 6626.5 4079 6626.5 4232.26 6551.73 4356.5 6459.5 4356.5 6367.27 4356.5 6292.5 4232.26 6292.5 4079Z" stroke="#000000" stroke-width="22.9167" stroke-miterlimit="8" fill="none" fill-rule="evenodd"/><path d="M6460 3911.5C6613.26 3911.5 6737.5 3986.27 6737.5 4078.5 6737.5 4170.73 6613.26 4245.5 6460 4245.5 6306.74 4245.5 6182.5 4170.73 6182.5 4078.5 6182.5 3986.27 6306.74 3911.5 6460 3911.5Z" stroke="#000000" stroke-width="22.9167" stroke-miterlimit="8" fill="#FFE979" fill-rule="evenodd"/><path d="M6182 4078.5C6182 3925.24 6306.24 3801 6459.5 3801 6612.76 3801 6737 3925.24 6737 4078.5 6737 4231.76 6612.76 4356 6459.5 4356 6306.24 4356 6182 4231.76 6182 4078.5Z" stroke="#000000" stroke-width="32.0833" stroke-miterlimit="8" fill="none" fill-rule="evenodd"/><path d="M6435.96 4097.56 6435.96 4133.81 6507.13 4133.81C6530.09 4133.81 6541.58 4128.08 6541.58 4116.61 6541.58 4103.91 6533.2 4097.56 6516.46 4097.56ZM6435.96 4023.19 6435.96 4056.62 6508.18 4056.62C6526.6 4056.62 6535.81 4051.33 6535.81 4040.76 6535.81 4029.04 6526.38 4023.19 6507.52 4023.19ZM6272 3986 6536.3 3986C6565.18 3986 6588.85 3990.52 6607.31 3999.56 6625.77 4008.6 6635 4020.67 6635 4035.78 6635 4057.72 6608.65 4071.01 6555.94 4075.65 6617.31 4081.81 6648 4098.13 6648 4124.61 6648 4155.54 6610.55 4171 6535.65 4171L6272 4171 6337.84 4125.67 6337.84 4032.16Z" fill-rule="evenodd"/></g></svg>