<svg width="578" height="578" xmlns="http://www.w3.org/2000/svg" xmlns:xlink="http://www.w3.org/1999/xlink" xml:space="preserve" overflow="hidden"><defs><clipPath id="clip0"><rect x="4975" y="132" width="578" height="578"/></clipPath></defs><g clip-path="url(#clip0)" transform="translate(-4975 -132)"><path d="M4986.5 421C4986.5 267.741 5110.74 143.5 5264 143.5 5417.26 143.5 5541.5 267.741 5541.5 421 5541.5 574.259 5417.26 698.5 5264 698.5 5110.74 698.5 4986.5 574.259 4986.5 421Z" stroke="#385723" stroke-width="22.9167" stroke-miterlimit="8" fill="none" fill-rule="evenodd"/><path d="M5096 420.5C5096 267.241 5170.99 143 5263.5 143 5356.01 143 5431 267.241 5431 420.5 5431 573.759 5356.01 698 5263.5 698 5170.99 698 5096 573.759 5096 420.5Z" stroke="#385723" stroke-width="13.75" stroke-miterlimit="8" fill="none" fill-rule="evenodd"/><path d="M5263 143 5263 697.873" stroke="#385723" stroke-width="13.75" stroke-miterlimit="8" fill="none" fill-rule="evenodd"/><path d="M4986 420 5540.87 420" stroke="#385723" stroke-width="13.75" stroke-miterlimit="8" fill="none" fill-rule="evenodd"/><path d="M5263.5 253C5416.76 253 5541 327.993 5541 420.5 5541 513.008 5416.76 588 5263.5 588 5110.24 588 4986 513.008 4986 420.5 4986 327.993 5110.24 253 5263.5 253Z" stroke="#385723" stroke-width="13.75" stroke-miterlimit="8" fill="none" fill-rule="evenodd"/><path d="M0 0 554.873 0.000360892" stroke="#385723" stroke-width="13.75" stroke-miterlimit="8" fill="#C5E0B4" fill-rule="evenodd" transform="matrix(-1 0 0 1 5540.87 420)"/><path d="M5345.15 348 5427 348 5427 376.818 5404.76 376.818 5404.76 492 5367.3 492 5367.3 376.818 5345.15 376.818 5345.15 348ZM5255.3 348 5292.75 348 5292.75 403.946 5309.43 348 5344.58 348 5323.09 413.018 5346.62 492 5307.92 492 5292.75 430.273 5292.75 492 5255.3 492 5255.3 348ZM5100 348 5136.39 348 5140.34 398.244 5144.17 446.817C5145.55 421.68 5149.01 388.741 5154.53 348L5193.42 348C5193.94 352.211 5195.3 368.043 5197.51 395.496L5201.64 450.285C5203.77 415.428 5207.26 381.332 5212.1 348L5248.48 348 5231.81 492 5185.04 492C5180.76 469.876 5176.99 444.705 5173.71 416.487 5172.21 428.586 5168.73 453.757 5163.26 492L5116.77 492 5100 348Z" fill="#385723" fill-rule="evenodd"/></g></svg>