<svg width="586" height="587" xmlns="http://www.w3.org/2000/svg" xmlns:xlink="http://www.w3.org/1999/xlink" xml:space="preserve" overflow="hidden"><defs><clipPath id="clip0"><rect x="3199" y="3785" width="586" height="587"/></clipPath></defs><g clip-path="url(#clip0)" transform="translate(-3199 -3785)"><path d="M3215 4078.5C3215 3925.24 3339.02 3801 3492 3801 3644.98 3801 3769 3925.24 3769 4078.5 3769 4231.76 3644.98 4356 3492 4356 3339.02 4356 3215 4231.76 3215 4078.5Z" stroke="#000000" stroke-width="32.0833" stroke-miterlimit="8" fill="none" fill-rule="evenodd"/><path d="M3287.5 4078.5C3287.5 3965.28 3379.28 3873.5 3492.5 3873.5 3605.72 3873.5 3697.5 3965.28 3697.5 4078.5 3697.5 4191.72 3605.72 4283.5 3492.5 4283.5 3379.28 4283.5 3287.5 4191.72 3287.5 4078.5Z" stroke="#000000" stroke-width="22.9167" stroke-miterlimit="8" fill="#FFE979" fill-rule="evenodd"/><path d="M3607 3959 3539.94 4123.65 3376 4191 3443.06 4027.85Z" fill-rule="evenodd"/></g></svg>