<svg width="578" height="578" xmlns="http://www.w3.org/2000/svg" xmlns:xlink="http://www.w3.org/1999/xlink" xml:space="preserve" overflow="hidden"><defs><clipPath id="clip0"><rect x="5620" y="132" width="578" height="578"/></clipPath></defs><g clip-path="url(#clip0)" transform="translate(-5620 -132)"><path d="M5631.5 421C5631.5 267.741 5755.74 143.5 5909 143.5 6062.26 143.5 6186.5 267.741 6186.5 421 6186.5 574.259 6062.26 698.5 5909 698.5 5755.74 698.5 5631.5 574.259 5631.5 421Z" stroke="#385723" stroke-width="22.9167" stroke-miterlimit="8" fill="none" fill-rule="evenodd"/><path d="M5741 420.5C5741 267.241 5815.99 143 5908.5 143 6001.01 143 6076 267.241 6076 420.5 6076 573.759 6001.01 698 5908.5 698 5815.99 698 5741 573.759 5741 420.5Z" stroke="#385723" stroke-width="13.75" stroke-miterlimit="8" fill="none" fill-rule="evenodd"/><path d="M5909 143 5909 697.873" stroke="#385723" stroke-width="13.75" stroke-miterlimit="8" fill="none" fill-rule="evenodd"/><path d="M5631 420 6185.87 420" stroke="#385723" stroke-width="13.75" stroke-miterlimit="8" fill="none" fill-rule="evenodd"/><path d="M5908.5 253C6061.76 253 6186 327.992 6186 420.5 6186 513.008 6061.76 588 5908.5 588 5755.24 588 5631 513.008 5631 420.5 5631 327.992 5755.24 253 5908.5 253Z" stroke="#385723" stroke-width="13.75" stroke-miterlimit="8" fill="none" fill-rule="evenodd"/><path d="M0 0 554.873 0.000360892" stroke="#385723" stroke-width="13.75" stroke-miterlimit="8" fill="#C5E0B4" fill-rule="evenodd" transform="matrix(-1 0 0 1 6185.87 420)"/><path d="M6028.23 427.071 6028.23 467.363C6033.51 467.185 6036.88 466.355 6038.34 464.872 6039.79 463.39 6040.52 459.743 6040.52 453.932L6040.52 440.502C6040.52 434.335 6039.86 430.599 6038.56 429.295 6037.25 427.99 6033.81 427.249 6028.23 427.071ZM6028.23 372.637 6028.23 404.657C6029.83 404.598 6031.08 404.568 6031.97 404.568 6035.65 404.568 6037.99 403.664 6039 401.855 6040.01 400.047 6040.52 394.873 6040.52 386.335 6040.52 381.828 6040.1 378.671 6039.27 376.862 6038.44 375.054 6037.36 373.912 6036.02 373.438 6034.69 372.964 6032.09 372.697 6028.23 372.637ZM5990.75 348 6028.14 348C6039.95 348 6048.9 348.918 6054.98 350.755 6061.07 352.592 6065.98 356.31 6069.72 361.91 6073.46 367.51 6075.33 376.532 6075.33 388.975 6075.33 397.39 6074.01 403.256 6071.37 406.574 6068.73 409.893 6063.52 412.441 6055.74 414.219 6064.41 416.176 6070.28 419.425 6073.37 423.964 6076.46 428.503 6078 435.459 6078 444.833L6078 458.182C6078 467.912 6076.89 475.121 6074.66 479.808 6072.44 484.495 6068.89 487.699 6064.02 489.419 6059.15 491.14 6049.18 492 6034.11 492L5990.75 492 5990.75 348ZM5894.42 348 5931.9 348 5931.9 403.946 5948.59 348 5983.76 348 5962.26 413.018 5985.81 492 5947.08 492 5931.9 430.273 5931.9 492 5894.42 492 5894.42 348ZM5739 348 5775.41 348 5779.38 398.244 5783.21 446.817C5784.59 421.68 5788.04 388.741 5793.57 348L5832.49 348C5833.01 352.211 5834.37 368.043 5836.58 395.496L5840.72 450.285C5842.85 415.428 5846.34 381.332 5851.18 348L5887.6 348 5870.91 492 5824.11 492C5819.83 469.876 5816.04 444.705 5812.76 416.487 5811.27 428.586 5807.78 453.757 5802.31 492L5755.78 492 5739 348Z" fill="#385723" fill-rule="evenodd"/></g></svg>