<svg width="587" height="587" xmlns="http://www.w3.org/2000/svg" xmlns:xlink="http://www.w3.org/1999/xlink" xml:space="preserve" overflow="hidden"><g transform="translate(-7273 -1118)"><path d="M7289 1411.5C7289 1258.24 7413.24 1134 7566.5 1134 7719.76 1134 7844 1258.24 7844 1411.5 7844 1564.76 7719.76 1689 7566.5 1689 7413.24 1689 7289 1564.76 7289 1411.5Z" stroke="#000000" stroke-width="32.0833" stroke-miterlimit="8" fill="none" fill-rule="evenodd"/><path d="M7409 1267 7494 1267 7494 1556 7409 1556 7409 1267Z" fill-rule="evenodd"/><path d="M7550.5 1267.5 7674.38 1267.5C7694.59 1267.5 7713.3 1270.79 7730.51 1277.38 7747.71 1283.96 7761.51 1294.45 7771.91 1308.83 7782.3 1323.22 7787.5 1342.15 7787.5 1365.62 7787.5 1389.53 7782.3 1408.85 7771.91 1423.59 7761.51 1438.34 7747.71 1449.07 7730.51 1455.8 7713.3 1462.53 7694.59 1465.89 7674.38 1465.89L7635.02 1465.89 7635.02 1556.5 7550.5 1556.5 7550.5 1267.5ZM7662.42 1315.83C7635.85 1315.83 7614.31 1337.34 7614.31 1363.87 7614.31 1390.4 7635.85 1411.9 7662.42 1411.9 7689 1411.9 7710.54 1390.4 7710.54 1363.87 7710.54 1337.34 7689 1315.83 7662.42 1315.83Z" stroke="#172C51" stroke-width="4.58333" stroke-miterlimit="8" fill-rule="evenodd"/></g></svg>