<svg width="587" height="587" xmlns="http://www.w3.org/2000/svg" xmlns:xlink="http://www.w3.org/1999/xlink" xml:space="preserve" overflow="hidden"><defs><clipPath id="clip0"><rect x="2457" y="3785" width="587" height="587"/></clipPath></defs><g clip-path="url(#clip0)" transform="translate(-2457 -3785)"><path d="M2473 4078.5C2473 3925.24 2597.24 3801 2750.5 3801 2903.76 3801 3028 3925.24 3028 4078.5 3028 4231.76 2903.76 4356 2750.5 4356 2597.24 4356 2473 4231.76 2473 4078.5Z" stroke="#000000" stroke-width="32.0833" stroke-miterlimit="8" fill="none" fill-rule="evenodd"/><path d="M2545.5 4078.5C2545.5 3965.28 2637.28 3873.5 2750.5 3873.5 2863.72 3873.5 2955.5 3965.28 2955.5 4078.5 2955.5 4191.72 2863.72 4283.5 2750.5 4283.5 2637.28 4283.5 2545.5 4191.72 2545.5 4078.5Z" stroke="#000000" stroke-width="22.9167" stroke-miterlimit="8" fill-rule="evenodd"/><path d="M2865 3959 2797.94 4123.65 2634 4191 2701.06 4027.85Z" fill="#FFE8A7" fill-rule="evenodd"/></g></svg>