<svg width="577" height="578" xmlns="http://www.w3.org/2000/svg" xmlns:xlink="http://www.w3.org/1999/xlink" xml:space="preserve" overflow="hidden"><defs><clipPath id="clip0"><rect x="4189" y="3223" width="577" height="578"/></clipPath><clipPath id="clip1"><rect x="4328" y="3356" width="298" height="298"/></clipPath><clipPath id="clip2"><rect x="4328" y="3356" width="298" height="298"/></clipPath><clipPath id="clip3"><rect x="4328" y="3356" width="298" height="298"/></clipPath></defs><g clip-path="url(#clip0)" transform="translate(-4189 -3223)"><path d="M4200.5 3512C4200.5 3358.74 4324.52 3234.5 4477.5 3234.5 4630.48 3234.5 4754.5 3358.74 4754.5 3512 4754.5 3665.26 4630.48 3789.5 4477.5 3789.5 4324.52 3789.5 4200.5 3665.26 4200.5 3512Z" stroke="#385723" stroke-width="22.9167" stroke-miterlimit="8" fill="#FFFFFF" fill-rule="evenodd"/><path d="M4310 3511.5C4310 3358.24 4384.77 3234 4477 3234 4569.23 3234 4644 3358.24 4644 3511.5 4644 3664.76 4569.23 3789 4477 3789 4384.77 3789 4310 3664.76 4310 3511.5Z" stroke="#385723" stroke-width="13.75" stroke-miterlimit="8" fill="#FFFFFF" fill-rule="evenodd"/><path d="M4477 3234 4477 3788.87" stroke="#385723" stroke-width="13.75" stroke-miterlimit="8" fill="#FFFFFF" fill-rule="evenodd"/><path d="M4200 3512 4754.87 3512" stroke="#385723" stroke-width="13.75" stroke-miterlimit="8" fill="#FFFFFF" fill-rule="evenodd"/><path d="M4338 3502.5C4338 3428.77 4397.77 3369 4471.5 3369 4545.23 3369 4605 3428.77 4605 3502.5 4605 3576.23 4545.23 3636 4471.5 3636 4397.77 3636 4338 3576.23 4338 3502.5Z" stroke="#385723" stroke-width="18.3333" stroke-miterlimit="8" fill="#385723" fill-rule="evenodd"/><g clip-path="url(#clip1)"><g clip-path="url(#clip2)"><g clip-path="url(#clip3)"><path d="M4477.5 3492.12C4462.03 3492.12 4449.66 3479.75 4449.66 3464.28 4449.66 3448.81 4462.03 3436.44 4477.5 3436.44 4492.97 3436.44 4505.34 3448.81 4505.34 3464.28 4505.34 3479.75 4492.97 3492.12 4477.5 3492.12ZM4477.5 3399.31C4456.15 3399.31 4436.04 3409.83 4423.98 3427.77 4411.91 3445.41 4409.44 3467.99 4417.17 3488.1L4446.56 3553.07 4471.93 3606.28C4472.86 3608.45 4475.02 3609.69 4477.5 3609.69 4479.98 3609.69 4482.14 3608.45 4483.07 3606.28L4508.44 3553.07 4537.83 3488.1C4545.56 3467.99 4543.09 3445.41 4531.02 3427.77 4518.96 3409.83 4498.85 3399.31 4477.5 3399.31Z" fill="#FFFFFF"/></g></g></g></g></svg>