<svg width="604" height="596" xmlns="http://www.w3.org/2000/svg" xmlns:xlink="http://www.w3.org/1999/xlink" xml:space="preserve" overflow="hidden"><defs><clipPath id="clip0"><rect x="2212" y="509" width="604" height="596"/></clipPath><clipPath id="clip1"><rect x="2248" y="514" width="564" height="566"/></clipPath><clipPath id="clip2"><rect x="2248" y="514" width="564" height="566"/></clipPath><clipPath id="clip3"><rect x="2248" y="514" width="564" height="566"/></clipPath></defs><g clip-path="url(#clip0)" transform="translate(-2212 -509)"><path d="M0 0 380.415 0 572 191.585 572 564 572 564 191.585 564 0 372.415 0 0Z" stroke="#000000" stroke-width="32.0833" stroke-miterlimit="8" fill="#FFE358" fill-rule="evenodd" transform="matrix(1 0 0 -1 2228 1089)"/><g clip-path="url(#clip1)"><g clip-path="url(#clip2)"><g clip-path="url(#clip3)"><path d="M282 352.5C243.225 352.5 211.5 320.775 211.5 282 211.5 243.225 243.225 211.5 282 211.5 320.775 211.5 352.5 243.225 352.5 282 352.5 320.775 320.775 352.5 282 352.5ZM440.625 237.937C437.1 225.012 431.812 212.675 425.35 201.512L440.037 157.45 406.55 123.962 362.487 138.65C350.737 132.187 338.4 126.9 325.475 123.375L305.5 82.25 258.5 82.25 237.937 123.375C225.012 126.9 212.675 132.187 201.512 138.65L157.45 123.962 123.962 157.45 138.65 201.512C132.187 213.262 126.9 225.6 123.375 238.525L82.25 258.5 82.25 305.5 123.375 326.062C126.9 338.987 132.187 351.325 138.65 362.487L123.962 406.55 157.45 440.037 201.512 425.35C213.262 431.812 225.6 437.1 238.525 440.625L259.087 481.75 306.087 481.75 326.65 440.625C339.575 437.1 351.912 431.812 363.075 425.35L407.137 440.037 440.625 406.55 425.937 362.487C432.4 350.737 437.687 338.4 441.212 325.475L482.337 304.912 482.337 257.912 440.625 237.937Z" transform="matrix(1 0 0 1 2248 515)"/></g></g></g></g></svg>