<svg width="587" height="587" xmlns="http://www.w3.org/2000/svg" xmlns:xlink="http://www.w3.org/1999/xlink" xml:space="preserve" overflow="hidden"><defs><clipPath id="clip0"><rect x="5424" y="3785" width="587" height="587"/></clipPath></defs><g clip-path="url(#clip0)" transform="translate(-5424 -3785)"><path d="M5440 4078.5C5440 3925.24 5564.24 3801 5717.5 3801 5870.76 3801 5995 3925.24 5995 4078.5 5995 4231.76 5870.76 4356 5717.5 4356 5564.24 4356 5440 4231.76 5440 4078.5Z" stroke="#000000" stroke-width="32.0833" stroke-miterlimit="8" fill="#FFE979" fill-rule="evenodd"/><path d="M5550.5 4079C5550.5 3925.74 5625.49 3801.5 5718 3801.5 5810.51 3801.5 5885.5 3925.74 5885.5 4079 5885.5 4232.26 5810.51 4356.5 5718 4356.5 5625.49 4356.5 5550.5 4232.26 5550.5 4079Z" stroke="#000000" stroke-width="22.9167" stroke-miterlimit="8" fill="#FFE979" fill-rule="evenodd"/><path d="M5717.5 3801.5 5717.5 4356.37" stroke="#000000" stroke-width="22.9167" stroke-miterlimit="8" fill="#FFE979" fill-rule="evenodd"/><path d="M5440 4078 5994.87 4078" stroke="#000000" stroke-width="13.75" stroke-miterlimit="8" fill="#FFE979" fill-rule="evenodd"/><path d="M5717.5 3911C5870.76 3911 5995 3985.77 5995 4078 5995 4170.23 5870.76 4245 5717.5 4245 5564.24 4245 5440 4170.23 5440 4078 5440 3985.77 5564.24 3911 5717.5 3911Z" stroke="#000000" stroke-width="13.75" stroke-miterlimit="8" fill-rule="evenodd"/><path d="M0 0 554.873 0.000360892" stroke="#000000" stroke-width="13.75" stroke-miterlimit="8" fill="#C5E0B4" fill-rule="evenodd" transform="matrix(-1 0 0 1 5994.87 4078)"/><path d="M5706.39 4082.56 5706.39 4118.81 5777.75 4118.81C5800.78 4118.81 5812.29 4113.08 5812.29 4101.61 5812.29 4088.91 5803.9 4082.56 5787.11 4082.56ZM5706.39 4008.19 5706.39 4041.62 5778.81 4041.62C5797.28 4041.62 5806.51 4036.33 5806.51 4025.76 5806.51 4014.04 5797.06 4008.19 5778.15 4008.19ZM5542 3971 5807.01 3971C5835.96 3971 5859.7 3975.52 5878.2 3984.56 5896.71 3993.6 5905.96 4005.67 5905.96 4020.78 5905.96 4042.72 5879.54 4056.01 5826.7 4060.65 5888.23 4066.81 5919 4083.13 5919 4109.61 5919 4140.54 5881.45 4156 5806.35 4156L5542 4156 5608.02 4110.67 5608.02 4017.16Z" fill="#FFFFFF" fill-rule="evenodd"/></g></svg>