<svg width="578" height="578" xmlns="http://www.w3.org/2000/svg" xmlns:xlink="http://www.w3.org/1999/xlink" xml:space="preserve" overflow="hidden"><defs><clipPath id="clip0"><rect x="3558" y="132" width="578" height="578"/></clipPath></defs><g clip-path="url(#clip0)" transform="translate(-3558 -132)"><path d="M3569.5 421C3569.5 267.741 3693.74 143.5 3847 143.5 4000.26 143.5 4124.5 267.741 4124.5 421 4124.5 574.259 4000.26 698.5 3847 698.5 3693.74 698.5 3569.5 574.259 3569.5 421Z" stroke="#385723" stroke-width="22.9167" stroke-miterlimit="8" fill="#C5E0B4" fill-rule="evenodd"/><path d="M3679 420.5C3679 267.241 3753.99 143 3846.5 143 3939.01 143 4014 267.241 4014 420.5 4014 573.759 3939.01 698 3846.5 698 3753.99 698 3679 573.759 3679 420.5Z" stroke="#385723" stroke-width="13.75" stroke-miterlimit="8" fill="#C5E0B4" fill-rule="evenodd"/><path d="M3846 143 3846 697.873" stroke="#385723" stroke-width="13.75" stroke-miterlimit="8" fill="#C5E0B4" fill-rule="evenodd"/><path d="M3569 420 4123.87 420" stroke="#385723" stroke-width="13.75" stroke-miterlimit="8" fill="#C5E0B4" fill-rule="evenodd"/><path d="M3846.5 253C3999.76 253 4124 327.993 4124 420.5 4124 513.008 3999.76 588 3846.5 588 3693.24 588 3569 513.008 3569 420.5 3569 327.993 3693.24 253 3846.5 253Z" stroke="#385723" stroke-width="13.75" stroke-miterlimit="8" fill="#385723" fill-rule="evenodd"/><path d="M0 0 554.873 0.000360892" stroke="#385723" stroke-width="13.75" stroke-miterlimit="8" fill="#C5E0B4" fill-rule="evenodd" transform="matrix(-1 0 0 1 4123.87 420)"/><path d="M3966.23 427.071 3966.23 467.363C3971.51 467.185 3974.88 466.355 3976.34 464.872 3977.79 463.39 3978.52 459.743 3978.52 453.932L3978.52 440.502C3978.52 434.335 3977.86 430.599 3976.56 429.295 3975.25 427.99 3971.81 427.249 3966.23 427.071ZM3966.23 372.637 3966.23 404.657C3967.83 404.598 3969.08 404.568 3969.97 404.568 3973.65 404.568 3975.99 403.664 3977 401.855 3978.01 400.047 3978.52 394.873 3978.52 386.335 3978.52 381.828 3978.1 378.671 3977.27 376.862 3976.44 375.054 3975.36 373.912 3974.02 373.438 3972.69 372.964 3970.09 372.697 3966.23 372.637ZM3928.75 348 3966.14 348C3977.95 348 3986.9 348.918 3992.98 350.755 3999.07 352.592 4003.98 356.31 4007.72 361.91 4011.46 367.51 4013.33 376.532 4013.33 388.975 4013.33 397.39 4012.01 403.256 4009.37 406.574 4006.73 409.893 4001.52 412.441 3993.74 414.219 4002.41 416.176 4008.28 419.425 4011.37 423.964 4014.46 428.503 4016 435.459 4016 444.833L4016 458.182C4016 467.912 4014.89 475.121 4012.66 479.808 4010.44 484.495 4006.89 487.699 4002.02 489.419 3997.15 491.14 3987.18 492 3972.11 492L3928.75 492 3928.75 348ZM3832.42 348 3869.9 348 3869.9 403.946 3886.59 348 3921.76 348 3900.26 413.018 3923.81 492 3885.08 492 3869.9 430.273 3869.9 492 3832.42 492 3832.42 348ZM3677 348 3713.41 348 3717.38 398.244 3721.21 446.817C3722.59 421.68 3726.04 388.741 3731.57 348L3770.49 348C3771.01 352.211 3772.37 368.043 3774.58 395.496L3778.72 450.285C3780.85 415.428 3784.34 381.332 3789.18 348L3825.6 348 3808.91 492 3762.11 492C3757.83 469.876 3754.04 444.705 3750.76 416.487 3749.27 428.586 3745.78 453.757 3740.31 492L3693.78 492 3677 348Z" fill="#FFFFFF" fill-rule="evenodd"/></g></svg>