<svg width="587" height="587" xmlns="http://www.w3.org/2000/svg" xmlns:xlink="http://www.w3.org/1999/xlink" xml:space="preserve" overflow="hidden"><defs><clipPath id="clip0"><rect x="3940" y="3785" width="587" height="587"/></clipPath></defs><g clip-path="url(#clip0)" transform="translate(-3940 -3785)"><path d="M3956 4078.5C3956 3925.24 4080.24 3801 4233.5 3801 4386.76 3801 4511 3925.24 4511 4078.5 4511 4231.76 4386.76 4356 4233.5 4356 4080.24 4356 3956 4231.76 3956 4078.5Z" stroke="#000000" stroke-width="32.0833" stroke-miterlimit="8" fill="#FFE979" fill-rule="evenodd"/><path d="M4066.5 4079C4066.5 3925.74 4141.49 3801.5 4234 3801.5 4326.51 3801.5 4401.5 3925.74 4401.5 4079 4401.5 4232.26 4326.51 4356.5 4234 4356.5 4141.49 4356.5 4066.5 4232.26 4066.5 4079Z" stroke="#000000" stroke-width="22.9167" stroke-miterlimit="8" fill="#FFE979" fill-rule="evenodd"/><path d="M4234.5 3801.5 4234.5 4356.37" stroke="#000000" stroke-width="22.9167" stroke-miterlimit="8" fill="#FFE979" fill-rule="evenodd"/><path d="M3956 4078 4510.87 4078" stroke="#000000" stroke-width="13.75" stroke-miterlimit="8" fill="#FFE979" fill-rule="evenodd"/><path d="M4233.5 3911C4386.76 3911 4511 3985.77 4511 4078 4511 4170.23 4386.76 4245 4233.5 4245 4080.24 4245 3956 4170.23 3956 4078 3956 3985.77 4080.24 3911 4233.5 3911Z" stroke="#000000" stroke-width="13.75" stroke-miterlimit="8" fill-rule="evenodd"/><path d="M0 0 554.873 0.000360892" stroke="#000000" stroke-width="13.75" stroke-miterlimit="8" fill="#C5E0B4" fill-rule="evenodd" transform="matrix(-1 0 0 1 4510.87 4078)"/><path d="M4072.23 3980 4379.72 3980 4386 4072.19 4313.33 4017.19 4275.15 4017.19 4275.15 4118.94 4341.1 4165 4110.89 4165 4176.85 4118.87 4176.85 4017.19 4138.53 4017.19 4066 4072.19Z" fill="#FFFFFF" fill-rule="evenodd"/></g></svg>