<svg width="578" height="578" xmlns="http://www.w3.org/2000/svg" xmlns:xlink="http://www.w3.org/1999/xlink" xml:space="preserve" overflow="hidden"><defs><clipPath id="clip0"><rect x="2913" y="132" width="578" height="578"/></clipPath></defs><g clip-path="url(#clip0)" transform="translate(-2913 -132)"><path d="M2924.5 421C2924.5 267.741 3048.74 143.5 3202 143.5 3355.26 143.5 3479.5 267.741 3479.5 421 3479.5 574.259 3355.26 698.5 3202 698.5 3048.74 698.5 2924.5 574.259 2924.5 421Z" stroke="#385723" stroke-width="22.9167" stroke-miterlimit="8" fill="#C5E0B4" fill-rule="evenodd"/><path d="M3034 420.5C3034 267.241 3108.77 143 3201 143 3293.23 143 3368 267.241 3368 420.5 3368 573.759 3293.23 698 3201 698 3108.77 698 3034 573.759 3034 420.5Z" stroke="#385723" stroke-width="13.75" stroke-miterlimit="8" fill="#C5E0B4" fill-rule="evenodd"/><path d="M3201 143 3201 697.873" stroke="#385723" stroke-width="13.75" stroke-miterlimit="8" fill="#C5E0B4" fill-rule="evenodd"/><path d="M2924 420 3478.87 420" stroke="#385723" stroke-width="13.75" stroke-miterlimit="8" fill="#C5E0B4" fill-rule="evenodd"/><path d="M3201.5 253C3354.76 253 3479 327.992 3479 420.5 3479 513.008 3354.76 588 3201.5 588 3048.24 588 2924 513.008 2924 420.5 2924 327.992 3048.24 253 3201.5 253Z" stroke="#385723" stroke-width="13.75" stroke-miterlimit="8" fill="#385723" fill-rule="evenodd"/><path d="M0 0 554.873 0.000360892" stroke="#385723" stroke-width="13.75" stroke-miterlimit="8" fill="#C5E0B4" fill-rule="evenodd" transform="matrix(-1 0 0 1 3478.87 420)"/><path d="M3283.15 348 3365 348 3365 376.818 3342.76 376.818 3342.76 492 3305.3 492 3305.3 376.818 3283.15 376.818 3283.15 348ZM3193.3 348 3230.75 348 3230.75 403.946 3247.43 348 3282.58 348 3261.09 413.018 3284.62 492 3245.92 492 3230.75 430.273 3230.75 492 3193.3 492 3193.3 348ZM3038 348 3074.39 348 3078.34 398.244 3082.17 446.817C3083.55 421.68 3087.01 388.741 3092.53 348L3131.42 348C3131.94 352.211 3133.3 368.043 3135.51 395.496L3139.64 450.285C3141.77 415.428 3145.26 381.332 3150.1 348L3186.48 348 3169.81 492 3123.04 492C3118.76 469.876 3114.99 444.705 3111.71 416.487 3110.21 428.586 3106.73 453.757 3101.26 492L3054.77 492 3038 348Z" fill="#FFFFFF" fill-rule="evenodd"/></g></svg>