<svg width="595" height="587" xmlns="http://www.w3.org/2000/svg" xmlns:xlink="http://www.w3.org/1999/xlink" xml:space="preserve" overflow="hidden"><defs><clipPath id="clip0"><rect x="4587" y="291" width="595" height="587"/></clipPath></defs><g clip-path="url(#clip0)" transform="translate(-4587 -291)"><path d="M0 0 380.415 0 572 191.585 572 564 572 564 191.585 564 0 372.415 0 0Z" stroke="#385723" stroke-width="22.9167" stroke-miterlimit="8" fill="#C5E0B4" fill-rule="evenodd" transform="matrix(1 0 0 -1 4598.5 866.5)"/><path d="M4691 580C4691 464.02 4785.24 370 4901.5 370 5017.76 370 5112 464.02 5112 580 5112 695.98 5017.76 790 4901.5 790 4785.24 790 4691 695.98 4691 580Z" stroke="#385723" stroke-width="18.3333" stroke-miterlimit="8" fill="#C5E0B4" fill-rule="evenodd"/><path d="M4775 580C4775 464.02 4831.64 370 4901.5 370 4971.36 370 5028 464.02 5028 580 5028 695.98 4971.36 790 4901.5 790 4831.64 790 4775 695.98 4775 580Z" stroke="#385723" stroke-width="13.75" stroke-miterlimit="8" fill="#C5E0B4" fill-rule="evenodd"/><path d="M4902 370 4902 790.5" stroke="#385723" stroke-width="13.75" stroke-miterlimit="8" fill="none" fill-rule="evenodd"/><path d="M4691 580 5111.5 580" stroke="#385723" stroke-width="13.75" stroke-miterlimit="8" fill="none" fill-rule="evenodd"/></g></svg>