<svg width="604" height="596" xmlns="http://www.w3.org/2000/svg" xmlns:xlink="http://www.w3.org/1999/xlink" xml:space="preserve" overflow="hidden"><defs><clipPath id="clip0"><rect x="180" y="368" width="604" height="596"/></clipPath></defs><g clip-path="url(#clip0)" transform="translate(-180 -368)"><path d="M0 0 380.415 0 572 191.585 572 564 572 564 191.585 564 0 372.415 0 0Z" stroke="#000000" stroke-width="32.0833" stroke-miterlimit="8" fill="none" fill-rule="evenodd" transform="matrix(1 0 0 -1 196 948)"/><path d="M283 662.5C283 546.244 377.244 452 493.5 452 609.756 452 704 546.244 704 662.5 704 778.756 609.756 873 493.5 873 377.244 873 283 778.756 283 662.5Z" stroke="#000000" stroke-width="32.0833" stroke-miterlimit="8" fill="#FFE358" fill-rule="evenodd"/><path d="M367.5 663C367.5 546.744 424.136 452.5 494 452.5 563.864 452.5 620.5 546.744 620.5 663 620.5 779.256 563.864 873.5 494 873.5 424.136 873.5 367.5 779.256 367.5 663Z" stroke="#000000" stroke-width="22.9167" stroke-miterlimit="8" fill="#FFE358" fill-rule="evenodd"/><path d="M493.5 452.5 493.5 873" stroke="#000000" stroke-width="22.9167" stroke-miterlimit="8" fill="none" fill-rule="evenodd"/><path d="M283.5 662.5 704 662.5" stroke="#000000" stroke-width="22.9167" stroke-miterlimit="8" fill="none" fill-rule="evenodd"/></g></svg>