<svg width="588" height="588" xmlns="http://www.w3.org/2000/svg" xmlns:xlink="http://www.w3.org/1999/xlink" xml:space="preserve" overflow="hidden"><defs><clipPath id="clip0"><rect x="155" y="3784" width="588" height="588"/></clipPath></defs><g clip-path="url(#clip0)" transform="translate(-155 -3784)"><path d="M193.491 4187.3C133.224 4046.43 198.569 3883.37 339.443 3823.11 480.317 3762.84 643.374 3828.18 703.641 3969.06 763.908 4109.93 698.563 4272.99 557.689 4333.26 416.815 4393.52 253.758 4328.18 193.491 4187.3Z" stroke="#000000" stroke-width="32.0833" stroke-miterlimit="8" fill="none" fill-rule="evenodd"/><path d="M235 4081.5C235 3961.93 331.707 3865 451 3865 570.293 3865 667 3961.93 667 4081.5 667 4201.07 570.293 4298 451 4298 331.707 4298 235 4201.07 235 4081.5Z" stroke="#000000" stroke-width="18.3333" stroke-miterlimit="8" fill-rule="evenodd"/><path d="M502.852 4273C366.327 4273 290.909 4211.06 264.565 4094.14L259 4044 352.447 4044 356.706 4087.85C374.604 4224.22 518.209 4271.95 502.852 4273Z" fill="#FFE979" fill-rule="evenodd"/><path d="M398.143 3892C534.111 3892 609.221 3953.67 635.457 4070.08L641 4120 547.935 4120 543.692 4076.34C525.867 3940.57 382.849 3893.04 398.143 3892Z" fill="#FFE979" fill-rule="evenodd"/></g></svg>