<svg width="578" height="578" xmlns="http://www.w3.org/2000/svg" xmlns:xlink="http://www.w3.org/1999/xlink" xml:space="preserve" overflow="hidden"><defs><clipPath id="clip0"><rect x="4185" y="2519" width="578" height="578"/></clipPath></defs><g clip-path="url(#clip0)" transform="translate(-4185 -2519)"><path d="M4196.5 2808C4196.5 2654.74 4320.74 2530.5 4474 2530.5 4627.26 2530.5 4751.5 2654.74 4751.5 2808 4751.5 2961.26 4627.26 3085.5 4474 3085.5 4320.74 3085.5 4196.5 2961.26 4196.5 2808Z" stroke="#385723" stroke-width="22.9167" stroke-miterlimit="8" fill="#FFFFFF" fill-rule="evenodd"/><path d="M4306 2807.5C4306 2654.24 4380.99 2530 4473.5 2530 4566.01 2530 4641 2654.24 4641 2807.5 4641 2960.76 4566.01 3085 4473.5 3085 4380.99 3085 4306 2960.76 4306 2807.5Z" stroke="#385723" stroke-width="13.75" stroke-miterlimit="8" fill="#FFFFFF" fill-rule="evenodd"/><path d="M4473 2530 4473 3084.87" stroke="#385723" stroke-width="13.75" stroke-miterlimit="8" fill="#FFFFFF" fill-rule="evenodd"/><path d="M4196 2807 4750.87 2807" stroke="#385723" stroke-width="13.75" stroke-miterlimit="8" fill="#FFFFFF" fill-rule="evenodd"/><path d="M4339 2805C4339 2730.99 4398.99 2671 4473 2671 4547.01 2671 4607 2730.99 4607 2805 4607 2879.01 4547.01 2939 4473 2939 4398.99 2939 4339 2879.01 4339 2805Z" stroke="#385723" stroke-width="18.3333" stroke-miterlimit="8" fill="#385723" fill-rule="evenodd"/><path d="M4377.86 2775.88 4573.29 2775.5 4545.29 2735.94" stroke="#FFFFFF" stroke-width="27.5" stroke-linecap="square" stroke-linejoin="round" stroke-miterlimit="10" fill="none" fill-rule="evenodd"/><path d="M4558.79 2841.67 4387 2842 4411.61 2876.77" stroke="#FFFFFF" stroke-width="27.5" stroke-linecap="square" stroke-linejoin="round" stroke-miterlimit="10" fill="none" fill-rule="evenodd"/></g></svg>