<svg width="633" height="633" xmlns="http://www.w3.org/2000/svg" xmlns:xlink="http://www.w3.org/1999/xlink" xml:space="preserve" overflow="hidden"><defs><clipPath id="clip0"><rect x="2905" y="2293" width="633" height="633"/></clipPath></defs><g clip-path="url(#clip0)" transform="translate(-2905 -2293)"><path d="M2925.5 2609.5C2925.5 2446.02 3058.02 2313.5 3221.5 2313.5 3384.98 2313.5 3517.5 2446.02 3517.5 2609.5 3517.5 2772.98 3384.98 2905.5 3221.5 2905.5 3058.02 2905.5 2925.5 2772.98 2925.5 2609.5Z" stroke="#000000" stroke-width="41.25" stroke-miterlimit="8" fill="#FFC000" fill-rule="evenodd"/><path d="M3186 2623C3186 2597.59 3205.92 2577 3230.5 2577 3255.08 2577 3275 2597.59 3275 2623 3275 2648.41 3255.08 2669 3230.5 2669 3205.92 2669 3186 2648.41 3186 2623Z" fill-rule="evenodd"/><path d="M3294 2506C3294 2480.59 3313.92 2460 3338.5 2460 3363.08 2460 3383 2480.59 3383 2506 3383 2531.41 3363.08 2552 3338.5 2552 3313.92 2552 3294 2531.41 3294 2506Z" fill-rule="evenodd"/><path d="M3222.07 2380C3248.39 2380 3272.61 2385.5 3294.71 2396.51 3316.81 2407.52 3335.32 2423.1 3350.23 2443.27 3365.13 2463.43 3375.16 2486.78 3380.3 2513.33L3300.72 2513.33C3297.23 2500.98 3291.52 2490.39 3283.61 2481.54 3275.69 2472.69 3266.33 2465.95 3255.54 2461.32 3244.74 2456.69 3233.59 2454.38 3222.07 2454.38 3205.42 2454.38 3190.72 2458.24 3177.97 2465.95 3165.22 2473.67 3155.4 2484.57 3148.51 2498.67 3141.63 2512.76 3138.18 2529.07 3138.18 2547.58L3138.18 2679.98C3138.18 2696.65 3141.73 2711.26 3148.82 2723.81 3155.92 2736.36 3165.94 2746.08 3178.89 2752.97 3191.85 2759.87 3206.86 2763.31 3223.93 2763.31 3240.79 2763.31 3255.59 2759.66 3268.34 2752.36 3281.09 2745.05 3290.91 2734.46 3297.79 2720.57 3304.68 2706.68 3308.13 2690.27 3308.13 2671.34L3308.13 2657.76 3228.55 2657.76 3228.55 2587.09 3384 2587.09 3384 2670.11C3384 2703.44 3377.42 2732.81 3364.26 2758.22 3351.1 2783.63 3332.39 2803.28 3308.13 2817.17 3283.86 2831.06 3255.8 2838 3223.93 2838 3191.85 2838 3163.58 2831.47 3139.11 2818.4 3114.64 2805.34 3095.67 2786.87 3082.2 2763 3068.73 2739.14 3062 2711.46 3062 2679.98L3062 2547.58C3062 2514.25 3068.63 2484.93 3081.89 2459.63 3095.16 2434.32 3113.87 2414.72 3138.03 2400.83 3162.19 2386.94 3190.2 2380 3222.07 2380Z" fill-rule="evenodd"/></g></svg>