<svg width="587" height="587" xmlns="http://www.w3.org/2000/svg" xmlns:xlink="http://www.w3.org/1999/xlink" xml:space="preserve" overflow="hidden"><defs><clipPath id="clip0"><rect x="6010" y="385" width="587" height="587"/></clipPath></defs><g clip-path="url(#clip0)" transform="translate(-6010 -385)"><path d="M6026 678.5C6026 525.241 6150.24 401 6303.5 401 6456.76 401 6581 525.241 6581 678.5 6581 831.759 6456.76 956 6303.5 956 6150.24 956 6026 831.759 6026 678.5Z" stroke="#000000" stroke-width="32.0833" stroke-miterlimit="8" fill="none" fill-rule="evenodd"/><path d="M6227.4 496.993C6368.69 437.704 6517.39 471.059 6559.53 571.493 6601.68 671.926 6521.31 801.406 6380.02 860.695 6238.73 919.983 6090.03 886.629 6047.88 786.195 6005.74 685.761 6086.11 556.281 6227.4 496.993Z" stroke="#000000" stroke-width="22.9167" stroke-miterlimit="8" fill="none" fill-rule="evenodd"/><path d="M6156 742.481C6095.37 601.762 6112.36 459.195 6193.93 424.049 6275.51 388.903 6390.79 474.487 6451.42 615.206 6512.04 755.926 6495.06 898.493 6413.48 933.639 6331.91 968.785 6216.63 883.201 6156 742.481Z" stroke="#000000" stroke-width="22.9167" stroke-miterlimit="8" fill="none" fill-rule="evenodd"/><path d="M6343.96 616.307C6362.79 615.868 6376.46 620.434 6380.52 630.112 6388.64 649.466 6355.24 681.936 6305.92 702.634 6256.59 723.331 6210.02 724.42 6201.9 705.065 6193.78 685.711 6227.18 653.241 6276.5 632.543 6301.17 622.195 6325.14 616.748 6343.96 616.307Z" stroke="#000000" stroke-width="22.9167" stroke-miterlimit="8" fill="none" fill-rule="evenodd"/><path d="M6194.5 424.5 6261.54 577.458" stroke="#000000" stroke-width="22.9167" stroke-miterlimit="8" fill="none" fill-rule="evenodd"/><path d="M6346.5 781.5 6413.54 934.458" stroke="#000000" stroke-width="22.9167" stroke-miterlimit="8" fill="none" fill-rule="evenodd"/><path d="M6454.39 530.925C6508.42 529.927 6547.73 543.371 6559.53 571.493 6583.14 627.736 6487.73 721.393 6346.44 780.681 6205.15 839.97 6071.48 842.439 6047.88 786.195 6024.28 729.952 6119.69 636.295 6260.97 577.007 6331.62 547.363 6400.36 531.923 6454.39 530.925Z" stroke="#000000" stroke-width="27.5" stroke-miterlimit="8" fill="#FFE979" fill-rule="evenodd"/><path d="M6355.38 607.813C6377.2 606.949 6392.94 611.782 6397.46 622.516 6406.48 643.986 6367.15 680.933 6309.6 705.041 6252.05 729.148 6198.09 731.287 6189.06 709.817 6180.04 688.348 6219.37 651.401 6276.92 627.293 6305.69 615.239 6333.57 608.678 6355.38 607.813Z" fill="#181717" fill-rule="evenodd"/></g></svg>