<svg width="565" height="573" xmlns="http://www.w3.org/2000/svg" xmlns:xlink="http://www.w3.org/1999/xlink" xml:space="preserve" overflow="hidden"><defs><clipPath id="clip0"><rect x="846" y="1509" width="565" height="573"/></clipPath></defs><g clip-path="url(#clip0)" transform="translate(-846 -1509)"><path d="M0 0 413.082 0 537 123.918 537 545 0 545Z" stroke="#000000" stroke-width="27.5" stroke-miterlimit="8" fill="#FFC000" fill-rule="evenodd" transform="matrix(-1 0 0 1 1397 1523)"/><path d="M1058.32 1639.19C1113.28 1633.34 1186.06 1668.44 1243 1733.68 1309.44 1809.8 1332.3 1901.72 1301.84 1954.19L1285.49 1974.09 1285.49 1974.1 1285.48 1974.1 1263.55 1987.6C1207.45 2010.69 1119.46 1975.61 1053.03 1899.49 986.596 1823.38 963.73 1731.45 994.196 1678.99L1010.54 1659.08 1010.55 1659.08 1010.55 1659.08 1032.48 1645.57C1040.5 1642.27 1049.16 1640.16 1058.32 1639.19Z" stroke="#000000" stroke-width="22.9167" stroke-miterlimit="8" fill="#FFFFFF" fill-rule="evenodd"/><path d="M1162.18 1608.01C1215.56 1611.63 1267.56 1635.62 1305.52 1679.12 1371.95 1755.23 1373.39 1865.86 1314.44 1943.19L1285.49 1974.09 1301.84 1954.19C1332.3 1901.72 1309.44 1809.8 1243 1733.68 1176.57 1657.57 1088.59 1622.48 1032.48 1645.57L1010.55 1659.08 1045.08 1634.58C1081.34 1614.02 1122.15 1605.29 1162.18 1608.01Z" stroke="#000000" stroke-width="22.9167" stroke-miterlimit="8" fill="#6ED289" fill-rule="evenodd"/><path d="M1010.54 1659.08 994.196 1678.99C963.73 1731.45 986.596 1823.38 1053.03 1899.49 1119.46 1975.61 1207.45 2010.69 1263.55 1987.6L1285.48 1974.1 1250.95 1998.6C1166.36 2046.56 1056.94 2030.17 990.507 1954.06 924.075 1877.94 922.639 1767.32 981.595 1689.99L1010.54 1659.08Z" stroke="#000000" stroke-width="22.9167" stroke-miterlimit="8" fill="#00B0F0" fill-rule="evenodd"/><path d="M1010.55 1659.08 1285.49 1974.09" stroke="#000000" stroke-width="22.9167" stroke-miterlimit="8" fill="#FFE699" fill-rule="evenodd"/><path d="M990.508 1954.06 1305.52 1679.12" stroke="#000000" stroke-width="22.9167" stroke-miterlimit="8" fill="#FFE699" fill-rule="evenodd"/><path d="M867 1659 993 1659 993 1533" stroke="#000000" stroke-width="27.5" stroke-miterlimit="8" fill="#FFFFFF" fill-rule="evenodd"/></g></svg>