<svg width="1538" height="1558" xmlns="http://www.w3.org/2000/svg" xmlns:xlink="http://www.w3.org/1999/xlink" xml:space="preserve" overflow="hidden"><defs><clipPath id="clip0"><rect x="2622" y="1380" width="1538" height="1558"/></clipPath></defs><g clip-path="url(#clip0)" transform="translate(-2622 -1380)"><path d="M2627.43 1975.74C2645.03 1901.47 2712.89 1847.28 2792.16 1849.72 2882.75 1852.52 2953.92 1928.22 2951.13 2018.81L3178.2 2084.97C3211.5 2014.8 3274.84 1963.54 3350.41 1945.62L3323.61 1708.34C3250.27 1697.08 3193.46 1638.29 3184.7 1564.61 3173.94 1474.05 3238.64 1391.91 3329.2 1381.15 3419.34 1372.27 3500.09 1436.97 3511.09 1526.87 3518.67 1600.88 3475.52 1670.74 3405.95 1697.08L3431.85 1939.65C3448.52 1941.07 3465.02 1944.16 3481.08 1948.87 3534.57 1964.43 3581.49 1997.09 3614.66 2041.84L3836.17 1921.78C3817.36 1848.76 3850.73 1772.32 3917.06 1736.47 3996.8 1693.38 4096.36 1723.08 4139.45 1802.81 4182.54 1882.55 4152.84 1982.12 4073.11 2025.21 4006.68 2060.24 3925.07 2046.93 3873.22 1992.61L3652.47 2113.75C3686.47 2215.12 3653.89 2326.95 3570.76 2394.19L3691.9 2614.94C3750.02 2599.99 3811.65 2617.95 3852.64 2661.78 3914.55 2727.97 3911.08 2831.81 3844.89 2893.73 3778.7 2955.63 3674.85 2952.16 3612.94 2885.97 3551.03 2819.78 3554.5 2715.93 3620.69 2654.02L3498.64 2434.93C3430.05 2460.86 3353.63 2456.02 3288.85 2421.67L3136.82 2613.47C3172.98 2665.17 3177.79 2732.57 3149.33 2788.88 3106.67 2873.31 3003.64 2907.17 2919.21 2864.5 2834.78 2821.84 2800.92 2718.81 2843.58 2634.38 2886.25 2549.95 2989.28 2516.09 3073.71 2558.76L3224.38 2372.33C3171.06 2316.75 3145.6 2240.12 3155.05 2163.68L2928.18 2097.58C2897.68 2148.91 2841.71 2179.62 2782.04 2177.78 2691.46 2174.98 2620.28 2099.28 2623.08 2008.69 2623.42 1997.37 2624.91 1986.35 2627.43 1975.74Z" fill-rule="evenodd"/><path d="M2751.29 2117.5C2694.1 2100.84 2661.25 2040.97 2677.91 1983.78 2694.57 1926.58 2754.44 1893.73 2811.63 1910.39 2868.82 1927.05 2901.68 1986.92 2885.02 2044.12 2868.35 2101.31 2808.48 2134.16 2751.29 2117.5Z" fill="#FFC000" fill-rule="evenodd"/><path d="M2961.76 2824.46C2904.57 2807.8 2871.72 2747.93 2888.38 2690.74 2905.04 2633.55 2964.91 2600.7 3022.1 2617.36 3079.29 2634.02 3112.15 2693.89 3095.48 2751.08 3078.82 2808.27 3018.95 2841.13 2961.76 2824.46Z" fill="#FFC000" fill-rule="evenodd"/><path d="M3705.02 2882.96C3647.83 2866.3 3614.97 2806.43 3631.64 2749.24 3648.3 2692.05 3708.17 2659.19 3765.36 2675.85 3822.55 2692.52 3855.4 2752.39 3838.74 2809.58 3822.08 2866.77 3762.21 2899.62 3705.02 2882.96Z" fill="#FFC000" fill-rule="evenodd"/><path d="M3966.71 1984.76C3909.52 1968.1 3876.66 1908.23 3893.32 1851.04 3909.99 1793.85 3969.86 1761 4027.05 1777.66 4084.24 1794.32 4117.09 1854.19 4100.43 1911.38 4083.77 1968.57 4023.9 2001.43 3966.71 1984.76Z" fill="#FFC000" fill-rule="evenodd"/><path d="M3315.52 1647.24C3258.33 1630.58 3225.47 1570.71 3242.14 1513.52 3258.8 1456.33 3318.67 1423.47 3375.86 1440.14 3433.05 1456.8 3465.9 1516.67 3449.24 1573.86 3432.58 1631.05 3372.71 1663.91 3315.52 1647.24Z" fill="#FFC000" fill-rule="evenodd"/></g></svg>