<svg width="556" height="557" xmlns="http://www.w3.org/2000/svg" xmlns:xlink="http://www.w3.org/1999/xlink" xml:space="preserve" overflow="hidden"><defs><clipPath id="clip0"><rect x="7198" y="2604" width="556" height="557"/></clipPath></defs><g clip-path="url(#clip0)" transform="translate(-7198 -2604)"><path d="M7206 2735 7332 2735 7332 2609" stroke="#000000" stroke-width="27.5" stroke-miterlimit="8" fill="#FFFFFF" fill-rule="evenodd"/><path d="M0 0 364.62 0 474 109.38 474 480 0 480Z" stroke="#000000" stroke-width="27.5" stroke-miterlimit="8" fill="none" fill-rule="evenodd" transform="matrix(-1 0 0 1 7686 2618)"/><path d="M0 0 360.004 0 468 107.996 468 474 0 474Z" stroke="#000000" stroke-width="27.5" stroke-miterlimit="8" fill="#00B0F0" fill-rule="evenodd" transform="matrix(-1 0 0 1 7740 2673)"/><rect x="7271.5" y="2839.5" width="469" height="148" stroke="#000000" stroke-width="20.625" stroke-miterlimit="8" fill="#FFFF00" fill-opacity="0.431373"/><rect x="7438.5" y="2672.5" width="148" height="478" stroke="#000000" stroke-width="20.625" stroke-miterlimit="8" fill="#FFFF00" fill-opacity="0.431373"/><path d="M7271 2797 7396 2797 7396 2672" stroke="#000000" stroke-width="27.5" stroke-miterlimit="8" fill="#FFFFFF" fill-rule="evenodd"/></g></svg>