<svg width="658" height="658" xmlns="http://www.w3.org/2000/svg" xmlns:xlink="http://www.w3.org/1999/xlink" xml:space="preserve" overflow="hidden"><defs><clipPath id="clip0"><rect x="5280" y="3087" width="658" height="658"/></clipPath></defs><g clip-path="url(#clip0)" transform="translate(-5280 -3087)"><path d="M5609.28 3087.06C5790.75 3087.06 5937.86 3234.17 5937.86 3415.64 5937.86 3483.69 5917.18 3546.91 5881.75 3599.35L5855.82 3630.78 5850.03 3632.27C5828.64 3636.65 5806.5 3638.94 5783.81 3638.94 5761.13 3638.94 5738.98 3636.65 5717.59 3632.27L5713.58 3631.24 5718.42 3611.8C5728.73 3559.83 5726.58 3504.62 5709.72 3450.47 5676 3342.18 5591.4 3263.79 5490.39 3233.4L5466.21 3227.38 5470 3212.65C5479.6 3181.78 5493.63 3152.87 5511.35 3126.65L5537.28 3095.22 5543.06 3093.73C5564.45 3089.35 5586.6 3087.06 5609.28 3087.06Z" fill="#FF0000" fill-rule="evenodd"/><path d="M5395.98 3219.5C5417.53 3219.49 5438.84 3221.62 5459.63 3225.74L5466.21 3227.38 5461.9 3244.14C5457.53 3265.53 5455.23 3287.68 5455.23 3310.36 5455.23 3457.81 5552.35 3582.57 5686.1 3624.17L5713.58 3631.24 5710.76 3642.56C5704.68 3662.77 5696.68 3682.31 5686.91 3700.92L5661.57 3739.67 5642.88 3742.53C5631.83 3743.65 5620.62 3744.22 5609.28 3744.22 5427.81 3744.22 5280.7 3597.11 5280.7 3415.64 5280.7 3347.59 5301.38 3284.37 5336.81 3231.93L5343.18 3224.21 5363.51 3221.13C5374.37 3220.04 5385.21 3219.5 5395.98 3219.5Z" fill="#00B050" fill-rule="evenodd"/><path d="M5537.28 3095.22 5511.35 3126.65C5493.63 3152.87 5479.6 3181.78 5470 3212.65L5466.21 3227.38 5459.63 3225.74C5428.45 3219.56 5396.1 3217.86 5363.51 3221.13L5343.18 3224.21 5376.94 3183.3C5414.1 3146.13 5460.12 3117.83 5511.57 3101.83L5537.28 3095.22Z" fill-rule="evenodd"/><path d="M5466.21 3227.38 5490.39 3233.4C5591.4 3263.79 5676 3342.18 5709.72 3450.47 5726.58 3504.62 5728.73 3559.83 5718.42 3611.8L5713.58 3631.24 5686.1 3624.17C5552.35 3582.57 5455.23 3457.81 5455.23 3310.36 5455.23 3287.68 5457.53 3265.53 5461.9 3244.14L5466.21 3227.38Z" fill="#00B0F0" fill-rule="evenodd"/><path d="M5855.81 3630.78 5841.62 3647.98C5797.03 3692.58 5739.67 3724.42 5675.5 3737.55L5661.57 3739.67 5686.91 3700.92C5696.68 3682.31 5704.68 3662.77 5710.76 3642.56L5713.58 3631.24 5717.59 3632.27C5738.98 3636.65 5761.13 3638.94 5783.81 3638.94 5806.5 3638.94 5828.64 3636.65 5850.03 3632.27L5855.81 3630.78Z" fill-rule="evenodd"/></g></svg>