<svg width="589" height="588" xmlns="http://www.w3.org/2000/svg" xmlns:xlink="http://www.w3.org/1999/xlink" xml:space="preserve" overflow="hidden"><defs><clipPath id="clip0"><rect x="179" y="2743" width="589" height="588"/></clipPath></defs><g clip-path="url(#clip0)" transform="translate(-179 -2743)"><path d="M213.498 3134.01C183.046 3052.15 274.778 2942.48 418.388 2889.06 561.997 2835.63 703.102 2858.69 733.555 2940.55 764.007 3022.41 672.275 3132.08 528.665 3185.51 385.055 3238.93 243.95 3215.87 213.498 3134.01Z" stroke="#000000" stroke-width="22.9167" stroke-miterlimit="8" fill-rule="evenodd"/><path d="M213.498 3134.01C160.077 2990.4 233.188 2830.67 376.798 2777.25 520.408 2723.83 680.133 2796.94 733.555 2940.55 786.976 3084.16 713.864 3243.89 570.255 3297.31 426.645 3350.73 266.92 3277.62 213.498 3134.01Z" stroke="#000000" stroke-width="32.0833" stroke-miterlimit="8" fill="none" fill-rule="evenodd"/><path d="M316.712 3095.61C263.291 2952 290.192 2809.47 376.798 2777.25 463.404 2745.04 576.919 2835.34 630.341 2978.95 683.762 3122.56 656.861 3265.09 570.255 3297.31 483.649 3329.53 370.134 3239.22 316.712 3095.61Z" stroke="#000000" stroke-width="22.9167" stroke-miterlimit="8" fill="none" fill-rule="evenodd"/><path d="M475.802 3084.97C449.634 3084.97 428.225 3063.61 428.225 3037.5 428.225 3011.39 449.634 2990.03 475.802 2990.03 501.969 2990.03 523.379 3011.39 523.379 3037.5 523.379 3063.61 501.969 3084.97 475.802 3084.97ZM582.85 3007.83C580.471 2999.13 576.903 2990.82 572.542 2983.3L582.454 2953.64 559.855 2931.09 530.119 2940.98C522.189 2936.62 513.863 2933.06 505.141 2930.69L491.661 2903 459.943 2903 446.066 2930.69C437.344 2933.06 429.018 2936.62 421.485 2940.98L391.749 2931.09 369.15 2953.64 379.062 2983.3C374.7 2991.22 371.132 2999.52 368.753 3008.23L341 3021.68 341 3053.32 368.753 3067.17C371.132 3075.87 374.7 3084.18 379.062 3091.7L369.15 3121.37 391.749 3143.91 421.485 3134.02C429.414 3138.38 437.74 3141.94 446.462 3144.31L460.339 3172 492.057 3172 505.934 3144.31C514.656 3141.94 522.982 3138.38 530.515 3134.02L560.251 3143.91 582.85 3121.37 572.938 3091.7C577.299 3083.78 580.868 3075.48 583.247 3066.77L611 3052.93 611 3021.28 582.85 3007.83Z" fill="#FFE979" fill-rule="evenodd"/></g></svg>