<svg width="584" height="587" xmlns="http://www.w3.org/2000/svg" xmlns:xlink="http://www.w3.org/1999/xlink" xml:space="preserve" overflow="hidden"><defs><clipPath id="clip0"><rect x="3932" y="1054" width="584" height="587"/></clipPath></defs><g clip-path="url(#clip0)" transform="translate(-3932 -1054)"><rect x="4259.5" y="1351.75" width="184.754" height="184.755" fill="#FFE979"/><path d="M4444.25 1351.75 4504.5 1291.5 4504.5 1476.25 4444.25 1536.5Z" fill="#CDBB61" fill-rule="evenodd"/><path d="M4259.5 1351.75 4319.75 1291.5 4504.5 1291.5 4444.25 1351.75Z" fill="#FFED93" fill-rule="evenodd"/><path d="M4259.5 1351.75 4319.75 1291.5 4504.5 1291.5 4504.5 1476.25 4444.25 1536.5 4259.5 1536.5ZM4259.5 1351.75 4444.25 1351.75 4504.5 1291.5M4444.25 1351.75 4444.25 1536.5" stroke="#000000" stroke-width="22.9167" stroke-miterlimit="8" fill="none" fill-rule="evenodd"/><rect x="4044.5" y="1125.75" width="184.754" height="184.755" fill="#FFE979"/><path d="M4229.25 1125.75 4289.5 1065.5 4289.5 1250.25 4229.25 1310.5Z" fill="#CDBB61" fill-rule="evenodd"/><path d="M4044.5 1125.75 4104.75 1065.5 4289.5 1065.5 4229.25 1125.75Z" fill="#FFED93" fill-rule="evenodd"/><path d="M4044.5 1125.75 4104.75 1065.5 4289.5 1065.5 4289.5 1250.25 4229.25 1310.5 4044.5 1310.5ZM4044.5 1125.75 4229.25 1125.75 4289.5 1065.5M4229.25 1125.75 4229.25 1310.5" stroke="#000000" stroke-width="22.9167" stroke-miterlimit="8" fill="none" fill-rule="evenodd"/><rect x="4257.5" y="1125.75" width="184.754" height="184.755" fill="#FFE979"/><path d="M4442.25 1125.75 4502.5 1065.5 4502.5 1250.25 4442.25 1310.5Z" fill="#CDBB61" fill-rule="evenodd"/><path d="M4257.5 1125.75 4317.75 1065.5 4502.5 1065.5 4442.25 1125.75Z" fill="#FFED93" fill-rule="evenodd"/><path d="M4257.5 1125.75 4317.75 1065.5 4502.5 1065.5 4502.5 1250.25 4442.25 1310.5 4257.5 1310.5ZM4257.5 1125.75 4442.25 1125.75 4502.5 1065.5M4442.25 1125.75 4442.25 1310.5" stroke="#000000" stroke-width="22.9167" stroke-miterlimit="8" fill="none" fill-rule="evenodd"/><rect x="3945.5" y="1444.75" width="184.754" height="184.755" fill="#FFE979"/><path d="M4130.25 1444.75 4190.5 1384.5 4190.5 1569.25 4130.25 1629.5Z" fill="#CDBB61" fill-rule="evenodd"/><path d="M3945.5 1444.75 4005.75 1384.5 4190.5 1384.5 4130.25 1444.75Z" fill="#FFED93" fill-rule="evenodd"/><path d="M3945.5 1444.75 4005.75 1384.5 4190.5 1384.5 4190.5 1569.25 4130.25 1629.5 3945.5 1629.5ZM3945.5 1444.75 4130.25 1444.75 4190.5 1384.5M4130.25 1444.75 4130.25 1629.5" stroke="#000000" stroke-width="22.9167" stroke-miterlimit="8" fill="none" fill-rule="evenodd"/><rect x="4166.5" y="1444.75" width="184.754" height="184.754" fill="#FFE979"/><path d="M4351.25 1444.75 4411.5 1384.5 4411.5 1569.25 4351.25 1629.5Z" fill="#CDBB61" fill-rule="evenodd"/><path d="M4166.5 1444.75 4226.75 1384.5 4411.5 1384.5 4351.25 1444.75Z" fill="#FFED93" fill-rule="evenodd"/><path d="M4166.5 1444.75 4226.75 1384.5 4411.5 1384.5 4411.5 1569.25 4351.25 1629.5 4166.5 1629.5ZM4166.5 1444.75 4351.25 1444.75 4411.5 1384.5M4351.25 1444.75 4351.25 1629.5" stroke="#000000" stroke-width="22.9167" stroke-miterlimit="8" fill="none" fill-rule="evenodd"/><rect x="3943.5" y="1218.75" width="184.754" height="184.755" fill="#FFE979"/><path d="M4128.25 1218.75 4188.5 1158.5 4188.5 1343.25 4128.25 1403.5Z" fill="#CDBB61" fill-rule="evenodd"/><path d="M3943.5 1218.75 4003.75 1158.5 4188.5 1158.5 4128.25 1218.75Z" fill="#FFED93" fill-rule="evenodd"/><path d="M3943.5 1218.75 4003.75 1158.5 4188.5 1158.5 4188.5 1343.25 4128.25 1403.5 3943.5 1403.5ZM3943.5 1218.75 4128.25 1218.75 4188.5 1158.5M4128.25 1218.75 4128.25 1403.5" stroke="#000000" stroke-width="22.9167" stroke-miterlimit="8" fill="none" fill-rule="evenodd"/><rect x="4164.5" y="1218.75" width="184.754" height="184.755" fill="#FFE979"/><path d="M4349.25 1218.75 4409.5 1158.5 4409.5 1343.25 4349.25 1403.5Z" fill="#CDBB61" fill-rule="evenodd"/><path d="M4164.5 1218.75 4224.75 1158.5 4409.5 1158.5 4349.25 1218.75Z" fill="#FFED93" fill-rule="evenodd"/><path d="M4164.5 1218.75 4224.75 1158.5 4409.5 1158.5 4409.5 1343.25 4349.25 1403.5 4164.5 1403.5ZM4164.5 1218.75 4349.25 1218.75 4409.5 1158.5M4349.25 1218.75 4349.25 1403.5" stroke="#000000" stroke-width="22.9167" stroke-miterlimit="8" fill="none" fill-rule="evenodd"/><path d="M4044.38 1148.71 4044.38 1118.47 4228.88 1118.47 4286.7 1058 4297.72 1077.24 4275.69 1121.22 4446.42 1115.72 4443.67 1313.64 4479.46 1280.65 4507 1286.15 4440.91 1346.62 4440.91 1530.79 4416.13 1533.54 4407.87 1390.6 4344.53 1445.58 4165.54 1440.08 4168.3 1594.01 4129.74 1616 4132.5 1442.83 3948 1440.08 3970.03 1401.6 4126.99 1398.85 4124.24 1217.43 4190.33 1154.21 4044.38 1148.71Z" fill-rule="evenodd"/><rect x="4162.5" y="1215.75" width="184.754" height="185.755" fill="#00B0F0"/><path d="M4347.25 1215.75 4407.5 1155.5 4407.5 1341.25 4347.25 1401.5Z" fill="#008DC1" fill-rule="evenodd"/><path d="M4162.5 1215.75 4222.75 1155.5 4407.5 1155.5 4347.25 1215.75Z" fill="#32BFF3" fill-rule="evenodd"/><path d="M4162.5 1215.75 4222.75 1155.5 4407.5 1155.5 4407.5 1341.25 4347.25 1401.5 4162.5 1401.5ZM4162.5 1215.75 4347.25 1215.75 4407.5 1155.5M4347.25 1215.75 4347.25 1401.5" stroke="#000000" stroke-width="22.9167" stroke-miterlimit="8" fill="none" fill-rule="evenodd"/></g></svg>