<svg width="585" height="587" xmlns="http://www.w3.org/2000/svg" xmlns:xlink="http://www.w3.org/1999/xlink" xml:space="preserve" overflow="hidden"><defs><clipPath id="clip0"><rect x="208" y="3523" width="585" height="587"/></clipPath></defs><g clip-path="url(#clip0)" transform="translate(-208 -3523)"><rect x="536.5" y="3820.75" width="184.754" height="184.754" fill="#FFE979"/><path d="M721.254 3820.75 781.5 3760.5 781.5 3945.25 721.254 4005.5Z" fill="#CDBB61" fill-rule="evenodd"/><path d="M536.5 3820.75 596.746 3760.5 781.5 3760.5 721.254 3820.75Z" fill="#FFED93" fill-rule="evenodd"/><path d="M536.5 3820.75 596.746 3760.5 781.5 3760.5 781.5 3945.25 721.254 4005.5 536.5 4005.5ZM536.5 3820.75 721.254 3820.75 781.5 3760.5M721.254 3820.75 721.254 4005.5" stroke="#000000" stroke-width="22.9167" stroke-miterlimit="8" fill="none" fill-rule="evenodd"/><rect x="321.5" y="3594.75" width="184.755" height="184.754" fill="#FFE979"/><path d="M506.254 3594.75 566.5 3534.5 566.5 3719.25 506.254 3779.5Z" fill="#CDBB61" fill-rule="evenodd"/><path d="M321.5 3594.75 381.745 3534.5 566.5 3534.5 506.254 3594.75Z" fill="#FFED93" fill-rule="evenodd"/><path d="M321.5 3594.75 381.745 3534.5 566.5 3534.5 566.5 3719.25 506.254 3779.5 321.5 3779.5ZM321.5 3594.75 506.254 3594.75 566.5 3534.5M506.254 3594.75 506.254 3779.5" stroke="#000000" stroke-width="22.9167" stroke-miterlimit="8" fill="none" fill-rule="evenodd"/><rect x="534.5" y="3594.75" width="184.755" height="184.754" fill="#FFE979"/><path d="M719.255 3594.75 779.5 3534.5 779.5 3719.25 719.255 3779.5Z" fill="#CDBB61" fill-rule="evenodd"/><path d="M534.5 3594.75 594.746 3534.5 779.5 3534.5 719.255 3594.75Z" fill="#FFED93" fill-rule="evenodd"/><path d="M534.5 3594.75 594.746 3534.5 779.5 3534.5 779.5 3719.25 719.255 3779.5 534.5 3779.5ZM534.5 3594.75 719.255 3594.75 779.5 3534.5M719.255 3594.75 719.255 3779.5" stroke="#000000" stroke-width="22.9167" stroke-miterlimit="8" fill="none" fill-rule="evenodd"/><rect x="221.5" y="3913.75" width="185.755" height="184.754" fill="#FFE979"/><path d="M407.254 3913.75 467.5 3853.5 467.5 4038.25 407.254 4098.5Z" fill="#CDBB61" fill-rule="evenodd"/><path d="M221.5 3913.75 281.745 3853.5 467.5 3853.5 407.254 3913.75Z" fill="#FFED93" fill-rule="evenodd"/><path d="M221.5 3913.75 281.745 3853.5 467.5 3853.5 467.5 4038.25 407.254 4098.5 221.5 4098.5ZM221.5 3913.75 407.254 3913.75 467.5 3853.5M407.254 3913.75 407.254 4098.5" stroke="#000000" stroke-width="22.9167" stroke-miterlimit="8" fill="none" fill-rule="evenodd"/><rect x="442.5" y="3913.75" width="184.755" height="184.754" fill="#FFE979"/><path d="M627.254 3913.75 687.5 3853.5 687.5 4038.25 627.254 4098.5Z" fill="#CDBB61" fill-rule="evenodd"/><path d="M442.5 3913.75 502.745 3853.5 687.5 3853.5 627.254 3913.75Z" fill="#FFED93" fill-rule="evenodd"/><path d="M442.5 3913.75 502.745 3853.5 687.5 3853.5 687.5 4038.25 627.254 4098.5 442.5 4098.5ZM442.5 3913.75 627.254 3913.75 687.5 3853.5M627.254 3913.75 627.254 4098.5" stroke="#000000" stroke-width="22.9167" stroke-miterlimit="8" fill="none" fill-rule="evenodd"/><rect x="219.5" y="3687.75" width="184.754" height="184.754" fill="#FFE979"/><path d="M404.254 3687.75 464.5 3627.5 464.5 3812.25 404.254 3872.5Z" fill="#CDBB61" fill-rule="evenodd"/><path d="M219.5 3687.75 279.746 3627.5 464.5 3627.5 404.254 3687.75Z" fill="#FFED93" fill-rule="evenodd"/><path d="M219.5 3687.75 279.746 3627.5 464.5 3627.5 464.5 3812.25 404.254 3872.5 219.5 3872.5ZM219.5 3687.75 404.254 3687.75 464.5 3627.5M404.254 3687.75 404.254 3872.5" stroke="#000000" stroke-width="22.9167" stroke-miterlimit="8" fill="none" fill-rule="evenodd"/><rect x="440.5" y="3687.75" width="184.755" height="184.755" fill="#FFE979"/><path d="M625.254 3687.75 685.5 3627.5 685.5 3812.25 625.254 3872.5Z" fill="#CDBB61" fill-rule="evenodd"/><path d="M440.5 3687.75 500.745 3627.5 685.5 3627.5 625.254 3687.75Z" fill="#FFED93" fill-rule="evenodd"/><path d="M440.5 3687.75 500.745 3627.5 685.5 3627.5 685.5 3812.25 625.254 3872.5 440.5 3872.5ZM440.5 3687.75 625.254 3687.75 685.5 3627.5M625.254 3687.75 625.254 3872.5" stroke="#000000" stroke-width="22.9167" stroke-miterlimit="8" fill="none" fill-rule="evenodd"/><path d="M321.207 3617.71 321.207 3587.47 505.375 3587.47 563.099 3527 574.094 3546.24 552.104 3590.22 722.527 3584.72 719.778 3782.64 755.512 3749.65 783 3755.15 717.03 3815.62 717.03 3999.79 692.291 4002.54 684.044 3859.6 620.823 3914.58 442.153 3909.08 444.902 4063.01 406.419 4085 409.168 3911.83 225 3909.08 246.99 3870.6 403.67 3867.85 400.921 3686.43 466.892 3623.21 321.207 3617.71Z" fill-rule="evenodd"/><rect x="439.5" y="3685.75" width="184.754" height="184.755" fill="#00B0F0"/><path d="M624.255 3685.75 684.5 3625.5 684.5 3810.25 624.255 3870.5Z" fill="#008DC1" fill-rule="evenodd"/><path d="M439.5 3685.75 499.745 3625.5 684.5 3625.5 624.255 3685.75Z" fill="#32BFF3" fill-rule="evenodd"/><path d="M439.5 3685.75 499.745 3625.5 684.5 3625.5 684.5 3810.25 624.255 3870.5 439.5 3870.5ZM439.5 3685.75 624.255 3685.75 684.5 3625.5M624.255 3685.75 624.255 3870.5" stroke="#000000" stroke-width="22.9167" stroke-miterlimit="8" fill="none" fill-rule="evenodd"/></g></svg>