<svg width="1583" height="1586" xmlns="http://www.w3.org/2000/svg" xmlns:xlink="http://www.w3.org/1999/xlink" xml:space="preserve" overflow="hidden"><defs><clipPath id="clip0"><rect x="2575" y="893" width="1583" height="1586"/></clipPath></defs><g clip-path="url(#clip0)" transform="translate(-2575 -893)"><rect x="2581" y="897" width="1540" height="1540" fill="#FFC000"/><path d="M2575 2062 4114.89 2062" stroke="#FFFFFF" stroke-width="85.9375" stroke-miterlimit="8" fill="none" fill-rule="evenodd"/><path d="M2575 1381 4114.89 1381" stroke="#FFFFFF" stroke-width="85.9375" stroke-miterlimit="8" fill="none" fill-rule="evenodd"/><path d="M3004 896 3004 2435.89" stroke="#FFFFFF" stroke-width="85.9375" stroke-miterlimit="8" fill="none" fill-rule="evenodd"/><path d="M3639 893 3639 2432.89" stroke="#FFFFFF" stroke-width="85.9375" stroke-miterlimit="8" fill="none" fill-rule="evenodd"/><path d="M3190.11 2252.5 3190.11 1416.11 3926.5 1416.11 3926.5 1492.89 3228.5 1492.89 3266.89 1454.5 3266.89 2252.5ZM3343.66 2252.5C3343.66 2316.1 3292.1 2367.66 3228.5 2367.66 3164.9 2367.66 3113.34 2316.1 3113.34 2252.5 3113.34 2188.9 3164.9 2137.34 3228.5 2137.34 3292.1 2137.34 3343.66 2188.9 3343.66 2252.5ZM3926.5 1339.34C3990.1 1339.34 4041.66 1390.9 4041.66 1454.5 4041.66 1518.1 3990.1 1569.66 3926.5 1569.66 3862.9 1569.66 3811.34 1518.1 3811.34 1454.5 3811.34 1390.9 3862.9 1339.34 3926.5 1339.34Z"/><path d="M3266.89 1124.5 3266.89 1904.89 2698.5 1904.89 2698.5 1828.11 3228.5 1828.11 3190.11 1866.5 3190.11 1124.5ZM3113.34 1124.5C3113.34 1060.9 3164.9 1009.34 3228.5 1009.34 3292.1 1009.34 3343.66 1060.9 3343.66 1124.5 3343.66 1188.1 3292.1 1239.66 3228.5 1239.66 3164.9 1239.66 3113.34 1188.1 3113.34 1124.5ZM2698.5 1981.66C2634.9 1981.66 2583.34 1930.1 2583.34 1866.5 2583.34 1802.9 2634.9 1751.34 2698.5 1751.34 2762.1 1751.34 2813.66 1802.9 2813.66 1866.5 2813.66 1930.1 2762.1 1981.66 2698.5 1981.66Z"/></g></svg>