<svg width="675" height="680" xmlns="http://www.w3.org/2000/svg" xmlns:xlink="http://www.w3.org/1999/xlink" xml:space="preserve" overflow="hidden"><defs><clipPath id="clip0"><rect x="2287" y="3524" width="675" height="680"/></clipPath></defs><g clip-path="url(#clip0)" transform="translate(-2287 -3524)"><rect x="2297.5" y="3534.5" width="190" height="191" stroke="#0D0D0D" stroke-width="20.625" stroke-miterlimit="8" fill="none"/><rect x="2487.5" y="3534.5" width="191" height="191" stroke="#0D0D0D" stroke-width="20.625" stroke-miterlimit="8" fill="none"/><rect x="2678.5" y="3534.5" width="190" height="191" stroke="#0D0D0D" stroke-width="20.625" stroke-miterlimit="8" fill="none"/><rect x="2297.5" y="3725.5" width="190" height="190" stroke="#0D0D0D" stroke-width="20.625" stroke-miterlimit="8" fill="none"/><rect x="2487.5" y="3725.5" width="191" height="190" stroke="#0D0D0D" stroke-width="20.625" stroke-miterlimit="8" fill="none"/><rect x="2678.5" y="3725.5" width="190" height="190" stroke="#0D0D0D" stroke-width="20.625" stroke-miterlimit="8" fill="none"/><rect x="2297.5" y="3915.5" width="190" height="191" stroke="#0D0D0D" stroke-width="20.625" stroke-miterlimit="8" fill="none"/><rect x="2487.5" y="3915.5" width="191" height="191" stroke="#0D0D0D" stroke-width="20.625" stroke-miterlimit="8" fill="none"/><rect x="2678.5" y="3915.5" width="190" height="191" stroke="#0D0D0D" stroke-width="20.625" stroke-miterlimit="8" fill="none"/><rect x="2380.5" y="3621.5" width="190" height="191" stroke="#0D0D0D" stroke-width="20.625" stroke-miterlimit="8" fill="#C5E0B4"/><rect x="2570.5" y="3621.5" width="191" height="191" stroke="#0D0D0D" stroke-width="20.625" stroke-miterlimit="8" fill="#92D050"/><rect x="2761.5" y="3621.5" width="190" height="191" stroke="#0D0D0D" stroke-width="20.625" stroke-miterlimit="8" fill="#C5E0B4"/><rect x="2380.5" y="3812.5" width="190" height="191" stroke="#0D0D0D" stroke-width="20.625" stroke-miterlimit="8" fill="#92D050"/><rect x="2570.5" y="3812.5" width="191" height="191" stroke="#0D0D0D" stroke-width="20.625" stroke-miterlimit="8" fill="#1FBCD8"/><rect x="2761.5" y="3812.5" width="190" height="191" stroke="#0D0D0D" stroke-width="20.625" stroke-miterlimit="8" fill="#92D050"/><rect x="2380.5" y="4003.5" width="190" height="190" stroke="#0D0D0D" stroke-width="20.625" stroke-miterlimit="8" fill="#1FBCD8"/><rect x="2570.5" y="4003.5" width="191" height="190" stroke="#0D0D0D" stroke-width="20.625" stroke-miterlimit="8" fill="#B4C7E7"/><rect x="2761.5" y="4003.5" width="190" height="190" stroke="#0D0D0D" stroke-width="20.625" stroke-miterlimit="8" fill="#B4C7E7"/></g></svg>