<svg width="1568" height="1572" xmlns="http://www.w3.org/2000/svg" xmlns:xlink="http://www.w3.org/1999/xlink" xml:space="preserve" overflow="hidden"><defs><clipPath id="clip0"><rect x="2575" y="897" width="1568" height="1572"/></clipPath></defs><g clip-path="url(#clip0)" transform="translate(-2575 -897)"><rect x="2581" y="897" width="1540" height="1540" fill="#FFC000"/><path d="M2575.5 2062.5 4115.39 2062.5" stroke="#FFFFFF" stroke-width="55" stroke-miterlimit="8" fill="none" fill-rule="evenodd"/><path d="M2575.5 1381.5 4115.39 1381.5" stroke="#FFFFFF" stroke-width="55" stroke-miterlimit="8" fill="none" fill-rule="evenodd"/><path d="M2977.5 901.5 2977.5 2441.39" stroke="#FFFFFF" stroke-width="55" stroke-miterlimit="8" fill="none" fill-rule="evenodd"/><path d="M3674.5 897.5 3674.5 2437.39" stroke="#FFFFFF" stroke-width="55" stroke-miterlimit="8" fill="none" fill-rule="evenodd"/><path d="M3201 2301.5 3201 1427 3926.5 1427 3926.5 1482 3228.5 1482 3256 1454.5 3256 2301.5ZM3311 2301.5C3311 2347.06 3274.06 2384 3228.5 2384 3182.94 2384 3146 2347.06 3146 2301.5 3146 2255.94 3182.94 2219 3228.5 2219 3274.06 2219 3311 2255.94 3311 2301.5ZM3926.5 1372C3972.06 1372 4009 1408.94 4009 1454.5 4009 1500.06 3972.06 1537 3926.5 1537 3880.94 1537 3844 1500.06 3844 1454.5 3844 1408.94 3880.94 1372 3926.5 1372Z"/><path d="M3256 1124.5 3256 1894 2698.5 1894 2698.5 1839 3228.5 1839 3201 1866.5 3201 1124.5ZM3146 1124.5C3146 1078.94 3182.94 1042 3228.5 1042 3274.06 1042 3311 1078.94 3311 1124.5 3311 1170.06 3274.06 1207 3228.5 1207 3182.94 1207 3146 1170.06 3146 1124.5ZM2698.5 1949C2652.94 1949 2616 1912.06 2616 1866.5 2616 1820.94 2652.94 1784 2698.5 1784 2744.06 1784 2781 1820.94 2781 1866.5 2781 1912.06 2744.06 1949 2698.5 1949Z"/></g></svg>