<svg width="574" height="574" xmlns="http://www.w3.org/2000/svg" xmlns:xlink="http://www.w3.org/1999/xlink" xml:space="preserve" overflow="hidden"><defs><clipPath id="clip0"><rect x="2036" y="1138" width="574" height="574"/></clipPath></defs><g clip-path="url(#clip0)" transform="translate(-2036 -1138)"><path d="M2068.23 1534.35C2007.96 1393.47 2073.31 1230.42 2214.18 1170.15 2355.05 1109.88 2518.11 1175.23 2578.38 1316.1 2638.64 1456.98 2573.3 1620.03 2432.43 1680.3 2291.55 1740.57 2128.49 1675.22 2068.23 1534.35Z" stroke="#385723" stroke-width="18.3333" stroke-miterlimit="8" fill="#C5E0B4" fill-rule="evenodd"/><path d="M2214 1170 2432.25 1680.15" stroke="#385723" stroke-width="13.75" stroke-miterlimit="8" fill="none" fill-rule="evenodd"/><path d="M2068.23 1534.35 2578.38 1316.1" stroke="#385723" stroke-width="13.75" stroke-miterlimit="8" fill="none" fill-rule="evenodd"/><path d="M2109 1428.5C2109 1308.93 2205.71 1212 2325 1212 2444.29 1212 2541 1308.93 2541 1428.5 2541 1548.07 2444.29 1645 2325 1645 2205.71 1645 2109 1548.07 2109 1428.5Z" stroke="#385723" stroke-width="18.3333" stroke-miterlimit="8" fill="#385723" fill-rule="evenodd"/><path d="M2354.01 1631C2236.43 1631 2171.48 1577.72 2148.79 1477.13L2144 1434 2224.48 1434 2228.15 1471.72C2243.56 1589.04 2367.24 1630.1 2354.01 1631Z" fill="#C5E0B4" fill-rule="evenodd"/><path d="M2143.23 1415 2143.23 1392.41 2113 1392.41 2183.5 1345 2254 1392.41 2223.77 1392.41 2223.77 1415Z" fill="#C5E0B4" fill-rule="evenodd"/><path d="M2311.99 1242C2429.57 1242 2494.52 1295.28 2517.21 1395.87L2522 1439 2441.52 1439 2437.85 1401.28C2422.44 1283.96 2298.76 1242.9 2311.99 1242Z" fill="#C5E0B4" fill-rule="evenodd"/><path d="M2522.77 1459 2522.77 1481.27 2553 1481.27 2482.5 1528 2412 1481.27 2442.23 1481.27 2442.23 1459Z" fill="#C5E0B4" fill-rule="evenodd"/></g></svg>