<svg width="600" height="600" xmlns="http://www.w3.org/2000/svg" xmlns:xlink="http://www.w3.org/1999/xlink" xml:space="preserve" overflow="hidden"><defs><clipPath id="clip0"><rect x="180" y="1478" width="600" height="600"/></clipPath></defs><g clip-path="url(#clip0)" transform="translate(-180 -1478)"><path d="M480 1496 764 1619.43 764 1936.57 480 2060 196 1936.57 196 1619.43Z" stroke="#000000" stroke-width="32.0833" stroke-miterlimit="8" fill="none" fill-rule="evenodd"/><path d="M259.5 1775.5C259.5 1656.21 356.207 1559.5 475.5 1559.5 594.794 1559.5 691.5 1656.21 691.5 1775.5 691.5 1894.79 594.794 1991.5 475.5 1991.5 356.207 1991.5 259.5 1894.79 259.5 1775.5Z" stroke="#000000" stroke-width="22.9167" stroke-miterlimit="8" fill="#FFD200" fill-rule="evenodd"/><path d="M506.477 1726.52C521.13 1726.17 531.773 1729.73 534.934 1737.26 541.256 1752.33 515.255 1777.6 476.859 1793.72 438.463 1809.83 402.212 1810.68 395.889 1795.61 389.567 1780.54 415.568 1755.27 453.964 1739.16 473.162 1731.1 491.824 1726.86 506.477 1726.52Z" stroke="#000000" stroke-width="22.9167" stroke-miterlimit="8" fill="none" fill-rule="evenodd"/><path d="M592.435 1660.05C634.493 1659.28 665.099 1669.74 674.285 1691.63 692.657 1735.41 618.391 1808.32 508.407 1854.47 398.422 1900.62 294.37 1902.55 275.997 1858.76 257.626 1814.98 331.892 1742.08 441.876 1695.92 496.868 1672.85 550.377 1660.83 592.435 1660.05ZM506.477 1726.52C491.824 1726.86 473.162 1731.1 453.964 1739.16 415.568 1755.27 389.567 1780.54 395.889 1795.61 402.212 1810.68 438.463 1809.83 476.859 1793.72 515.256 1777.6 541.257 1752.33 534.934 1737.26 531.773 1729.73 521.13 1726.17 506.477 1726.52Z" stroke="#000000" stroke-width="22.9167" stroke-miterlimit="8" fill="#FFE979" fill-rule="evenodd"/></g></svg>