<svg width="593" height="592" xmlns="http://www.w3.org/2000/svg" xmlns:xlink="http://www.w3.org/1999/xlink" xml:space="preserve" overflow="hidden"><defs><clipPath id="clip0"><rect x="5514" y="1356" width="593" height="592"/></clipPath></defs><g clip-path="url(#clip0)" transform="translate(-5514 -1356)"><path d="M5810.5 1356C5974.25 1356 6107 1488.53 6107 1652.02 6107 1774.63 6032.33 1879.83 5925.91 1924.77L5900.66 1934 5783.66 1656.57 5697.88 1656.57 5608.76 1867.86 5600.84 1861.33C5547.19 1807.77 5514 1733.76 5514 1652.02 5514 1488.53 5646.75 1356 5810.5 1356ZM5775.08 1455.31 5629.25 1605.18 5719.32 1605.18 5912.33 1455.31 5775.08 1455.31Z" fill-rule="evenodd"/><path d="M5740.59 1764 5815 1947.75 5810.13 1948C5769.31 1948 5730.41 1939.74 5695.04 1924.79L5679 1916.09 5740.59 1764Z" fill-rule="evenodd"/></g></svg>