<svg width="991" height="990" xmlns="http://www.w3.org/2000/svg" xmlns:xlink="http://www.w3.org/1999/xlink" xml:space="preserve" overflow="hidden"><defs><clipPath id="clip0"><rect x="3804" y="1986" width="991" height="990"/></clipPath></defs><g clip-path="url(#clip0)" transform="translate(-3804 -1986)"><path d="M3804 1986 4247 1986 4247 2429 3804 2429 3804 1986Z" fill-rule="evenodd"/><path d="M4351 1986 4795 1986 4795 2429 4351 2429 4351 1986Z" fill-rule="evenodd"/><path d="M3804 2533 4247 2533 4247 2976 3804 2976 3804 2533Z" fill-rule="evenodd"/><path d="M4351 2533 4795 2533 4795 2976 4351 2976 4351 2533Z" fill-rule="evenodd"/><path d="M3895.5 2478.5C3895.5 2264.77 4068.77 2091.5 4282.5 2091.5 4496.23 2091.5 4669.5 2264.77 4669.5 2478.5 4669.5 2692.23 4496.23 2865.5 4282.5 2865.5 4068.77 2865.5 3895.5 2692.23 3895.5 2478.5Z" stroke="#FFFFFF" stroke-width="41.25" stroke-miterlimit="8" fill="none" fill-rule="evenodd"/><path d="M4049.5 2478.5C4049.5 2264.77 4153.82 2091.5 4282.5 2091.5 4411.18 2091.5 4515.5 2264.77 4515.5 2478.5 4515.5 2692.23 4411.18 2865.5 4282.5 2865.5 4153.82 2865.5 4049.5 2692.23 4049.5 2478.5Z" stroke="#FFFFFF" stroke-width="41.25" stroke-miterlimit="8" fill="#FFC000" fill-rule="evenodd"/><path d="M4282 2091 4282 2864.86" stroke="#FFFFFF" stroke-width="27.5" stroke-miterlimit="8" fill="none" fill-rule="evenodd"/><path d="M3895 2478 4668.86 2478" stroke="#FFFFFF" stroke-width="27.5" stroke-miterlimit="8" fill="none" fill-rule="evenodd"/></g></svg>