<svg width="603" height="596" xmlns="http://www.w3.org/2000/svg" xmlns:xlink="http://www.w3.org/1999/xlink" xml:space="preserve" overflow="hidden"><defs><clipPath id="clip0"><rect x="4926" y="1045" width="603" height="596"/></clipPath></defs><g clip-path="url(#clip0)" transform="translate(-4926 -1045)"><path d="M5036.76 1502.13 5037.66 1507.9C5044.18 1539.11 5055.35 1568.66 5070.43 1595.84L5082.32 1615 4939 1615 4939 1557.9 4959.86 1547.19C4977.3 1537.41 4995 1526.86 5012.69 1516.29ZM4939 1055 5511 1055 5511 1161.41 5484.6 1148.96C5445.54 1132.78 5402.59 1123.84 5357.51 1123.84 5211.01 1123.84 5087.04 1218.31 5045.7 1348.43L5042.78 1359.56 5037.66 1379.06C5033.31 1399.87 5031.02 1421.41 5031.02 1443.48 5031.02 1454.51 5031.59 1465.41 5032.71 1476.16L5036.76 1502.13 5012.69 1516.29C4995 1526.86 4977.3 1537.41 4959.86 1547.19L4939 1557.9 4939 1407.73Z" fill-rule="evenodd"/><path d="M5359.54 1134C5404.61 1134 5447.55 1142.93 5486.6 1159.09L5513 1171.53 5513 1464.91 5500.17 1466.91C5483.7 1468.66 5468.9 1469.34 5456.51 1468.84 5357.4 1464.86 5337.04 1289.58 5244.71 1281.62 5198.55 1277.63 5136.44 1315.14 5074.16 1352.32L5046 1371.73C5046.98 1368.02 5046.8 1362.03 5047.78 1358.32 5089.11 1228.36 5213.06 1134 5359.54 1134Z" stroke="#000000" stroke-width="27.5" stroke-miterlimit="8" fill="none" fill-rule="evenodd"/><path d="M5208.66 1445.33C5287.3 1452.15 5319.97 1566.32 5378.88 1624.9L5379 1625 5084.55 1625 5072.66 1605.78C5057.59 1578.52 5046.42 1548.88 5039.9 1517.57L5039 1511.79 5067.68 1494.86C5119.82 1465.14 5169.34 1441.92 5208.66 1445.33Z" stroke="#000000" stroke-width="27.5" stroke-miterlimit="8" fill="none" fill-rule="evenodd"/><path d="M5244.66 1281.29C5337 1289.28 5357.37 1464.93 5456.5 1468.92 5468.89 1469.42 5483.69 1468.75 5500.16 1466.99L5513 1464.99 5513 1625 5378.85 1625 5378.73 1624.9C5319.8 1566.44 5287.12 1452.51 5208.45 1445.7 5169.12 1442.3 5119.58 1465.47 5067.42 1495.13L5038.73 1512.02 5034.69 1486.02C5033.57 1475.27 5033 1464.35 5033 1453.31 5033 1431.22 5035.28 1409.66 5039.63 1388.83L5044.75 1369.31 5074.06 1352.15C5136.36 1314.89 5198.49 1277.3 5244.66 1281.29Z" stroke="#000000" stroke-width="27.5" stroke-miterlimit="8" fill="none" fill-rule="evenodd"/><rect x="4942" y="1061" width="571" height="564" stroke="#000000" stroke-width="32.0833" stroke-linecap="square" stroke-miterlimit="8" fill="none"/></g></svg>