<svg width="664" height="645" xmlns="http://www.w3.org/2000/svg" xmlns:xlink="http://www.w3.org/1999/xlink" xml:space="preserve" overflow="hidden"><defs><clipPath id="clip0"><rect x="6468" y="651" width="664" height="645"/></clipPath></defs><g clip-path="url(#clip0)" transform="translate(-6468 -651)"><path d="M6527.5 980C6527.5 826.741 6651.74 702.5 6805 702.5 6958.26 702.5 7082.5 826.741 7082.5 980 7082.5 1133.26 6958.26 1257.5 6805 1257.5 6651.74 1257.5 6527.5 1133.26 6527.5 980Z" stroke="#000000" stroke-width="36.6667" stroke-miterlimit="8" fill="none" fill-rule="evenodd"/><path d="M0 85.0001C-1.10126e-14 38.0558 38.7273-1.08216e-14 86.4999-2.16433e-14 134.273-4.32866e-14 173 38.0558 173 85.0001 173 131.944 134.273 170 86.4999 170 38.7273 170-5.5063e-14 131.944 0 85.0001Z" stroke="#000000" stroke-width="22.9167" stroke-miterlimit="8" fill-rule="evenodd" transform="matrix(-1 0 0 1 6754.5 662.5)"/><path d="M0 85.0001C-1.10126e-14 38.0558 38.7274-1.08216e-14 86.5001-2.16433e-14 134.273-4.32866e-14 173 38.0558 173 85.0001 173 131.944 134.273 170 86.5001 170 38.7274 170-5.50631e-14 131.944 0 85.0001Z" stroke="#000000" stroke-width="22.9167" stroke-miterlimit="8" fill-rule="evenodd" transform="matrix(-1 0 0 1 6652.5 1037.5)"/><path d="M0 85.0001C-1.10763e-14 38.0558 38.9512-1.08216e-14 87-2.16433e-14 135.049-4.32866e-14 174 38.0558 174 85.0001 174 131.944 135.049 170 87 170 38.9512 170-5.53813e-14 131.944 0 85.0001Z" stroke="#000000" stroke-width="22.9167" stroke-miterlimit="8" fill-rule="evenodd" transform="matrix(-1 0 0 1 7034.5 1114.5)"/><path d="M0 85.0001C-1.10126e-14 38.0558 38.7273-1.08216e-14 86.4999-2.16433e-14 134.273-4.32866e-14 173 38.0558 173 85.0001 173 131.944 134.273 170 86.4999 170 38.7273 170-5.5063e-14 131.944 0 85.0001Z" stroke="#000000" stroke-width="22.9167" stroke-miterlimit="8" fill-rule="evenodd" transform="matrix(-1 0 0 1 7120.5 748.5)"/></g></svg>