<svg width="587" height="587" xmlns="http://www.w3.org/2000/svg" xmlns:xlink="http://www.w3.org/1999/xlink" xml:space="preserve" overflow="hidden"><defs><clipPath id="clip0"><rect x="6786" y="1535" width="587" height="587"/></clipPath></defs><g clip-path="url(#clip0)" transform="translate(-6786 -1535)"><rect x="6902" y="1638" width="354" height="397" stroke="#000000" stroke-width="27.5" stroke-miterlimit="8" fill="#FFE979"/><path d="M6802 1828.5C6802 1675.24 6926.24 1551 7079.5 1551 7232.76 1551 7357 1675.24 7357 1828.5 7357 1981.76 7232.76 2106 7079.5 2106 6926.24 2106 6802 1981.76 6802 1828.5Z" stroke="#000000" stroke-width="32.0833" stroke-miterlimit="8" fill="none" fill-rule="evenodd"/><path d="M6985.5 1638.5C6985.5 1618.07 7001.84 1601.5 7022 1601.5 7042.16 1601.5 7058.5 1618.07 7058.5 1638.5 7058.5 1658.93 7042.16 1675.5 7022 1675.5 7001.84 1675.5 6985.5 1658.93 6985.5 1638.5Z" stroke="#000000" stroke-width="4.58333" stroke-miterlimit="8" fill-rule="evenodd"/><path d="M6862.5 1844C6862.5 1823.84 6879.07 1807.5 6899.5 1807.5 6919.93 1807.5 6936.5 1823.84 6936.5 1844 6936.5 1864.16 6919.93 1880.5 6899.5 1880.5 6879.07 1880.5 6862.5 1864.16 6862.5 1844Z" stroke="#000000" stroke-width="4.58333" stroke-miterlimit="8" fill-rule="evenodd"/><path d="M6995.5 2032.5C6995.5 2012.07 7012.07 1995.5 7032.5 1995.5 7052.93 1995.5 7069.5 2012.07 7069.5 2032.5 7069.5 2052.93 7052.93 2069.5 7032.5 2069.5 7012.07 2069.5 6995.5 2052.93 6995.5 2032.5Z" stroke="#000000" stroke-width="4.58333" stroke-miterlimit="8" fill-rule="evenodd"/><path d="M7210.5 1704C7210.5 1683.84 7226.84 1667.5 7247 1667.5 7267.16 1667.5 7283.5 1683.84 7283.5 1704 7283.5 1724.16 7267.16 1740.5 7247 1740.5 7226.84 1740.5 7210.5 1724.16 7210.5 1704Z" stroke="#000000" stroke-width="4.58333" stroke-miterlimit="8" fill-rule="evenodd"/><path d="M7219.5 1950C7219.5 1929.84 7236.07 1913.5 7256.5 1913.5 7276.93 1913.5 7293.5 1929.84 7293.5 1950 7293.5 1970.16 7276.93 1986.5 7256.5 1986.5 7236.07 1986.5 7219.5 1970.16 7219.5 1950Z" stroke="#000000" stroke-width="4.58333" stroke-miterlimit="8" fill-rule="evenodd"/></g></svg>