<svg width="587" height="587" xmlns="http://www.w3.org/2000/svg" xmlns:xlink="http://www.w3.org/1999/xlink" xml:space="preserve" overflow="hidden"><defs><clipPath id="clip0"><rect x="1002" y="2744" width="587" height="587"/></clipPath></defs><g clip-path="url(#clip0)" transform="translate(-1002 -2744)"><path d="M1018 3037.5C1018 2884.24 1142.24 2760 1295.5 2760 1448.76 2760 1573 2884.24 1573 3037.5 1573 3190.76 1448.76 3315 1295.5 3315 1142.24 3315 1018 3190.76 1018 3037.5Z" stroke="#000000" stroke-width="32.0833" stroke-miterlimit="8" fill="none" fill-rule="evenodd"/><path d="M1127.5 3038C1127.5 2941.63 1202.94 2863.5 1296 2863.5 1389.06 2863.5 1464.5 2941.63 1464.5 3038 1464.5 3134.37 1389.06 3212.5 1296 3212.5 1202.94 3212.5 1127.5 3134.37 1127.5 3038Z" stroke="#000000" stroke-width="22.9167" stroke-miterlimit="8" fill="#FFE979" fill-rule="evenodd"/></g></svg>