<svg width="556" height="583" xmlns="http://www.w3.org/2000/svg" xmlns:xlink="http://www.w3.org/1999/xlink" xml:space="preserve" overflow="hidden"><defs><clipPath id="clip0"><rect x="5448" y="2744" width="556" height="583"/></clipPath></defs><g clip-path="url(#clip0)" transform="translate(-5448 -2744)"><path d="M5464 3125C5464 3022.27 5547.27 2939 5650 2939 5752.73 2939 5836 3022.27 5836 3125 5836 3227.72 5752.73 3311 5650 3311 5547.27 3311 5464 3227.72 5464 3125Z" stroke="#000000" stroke-width="32.0833" stroke-miterlimit="8" fill="#FFE979" fill-rule="evenodd"/><path d="M5617 2946C5617 2843.27 5700.05 2760 5802.5 2760 5904.95 2760 5988 2843.27 5988 2946 5988 3048.72 5904.95 3132 5802.5 3132 5700.05 3132 5617 3048.72 5617 2946Z" stroke="#000000" stroke-width="32.0833" stroke-miterlimit="8" fill="#FFFFFF" fill-rule="evenodd"/><path d="M5799.5 2763.5C5902.22 2763.5 5985.5 2846.75 5985.5 2949.44 5985.5 3039.3 5921.74 3114.27 5836.98 3131.61L5832.15 3132.1 5828.73 3166.03C5811.38 3250.76 5736.39 3314.5 5646.5 3314.5 5543.78 3314.5 5460.5 3231.25 5460.5 3128.56 5460.5 3038.7 5524.26 2963.73 5609.02 2946.39L5613.85 2945.9 5617.27 2911.97C5634.62 2827.24 5709.61 2763.5 5799.5 2763.5Z" stroke="#000000" stroke-width="22.9167" stroke-miterlimit="8" fill="none" fill-rule="evenodd"/></g></svg>