<svg width="587" height="587" xmlns="http://www.w3.org/2000/svg" xmlns:xlink="http://www.w3.org/1999/xlink" xml:space="preserve" overflow="hidden"><defs><clipPath id="clip0"><rect x="3982" y="2744" width="587" height="587"/></clipPath></defs><g clip-path="url(#clip0)" transform="translate(-3982 -2744)"><path d="M4455.79 3163.77 4218.48 3244.41 4068.71 3043.43 4213.47 2838.58 4452.7 2912.95Z" stroke="#000000" stroke-width="27.5" stroke-miterlimit="8" fill="#FFE979" fill-rule="evenodd"/><path d="M3998 3037.5C3998 2884.24 4122.24 2760 4275.5 2760 4428.76 2760 4553 2884.24 4553 3037.5 4553 3190.76 4428.76 3315 4275.5 3315 4122.24 3315 3998 3190.76 3998 3037.5Z" stroke="#000000" stroke-width="32.0833" stroke-miterlimit="8" fill="none" fill-rule="evenodd"/><path d="M4181.5 2847.5C4181.5 2827.07 4197.84 2810.5 4218 2810.5 4238.16 2810.5 4254.5 2827.07 4254.5 2847.5 4254.5 2867.93 4238.16 2884.5 4218 2884.5 4197.84 2884.5 4181.5 2867.93 4181.5 2847.5Z" stroke="#000000" stroke-width="4.58333" stroke-miterlimit="8" fill-rule="evenodd"/><path d="M4029.5 3053C4029.5 3032.84 4046.07 3016.5 4066.5 3016.5 4086.93 3016.5 4103.5 3032.84 4103.5 3053 4103.5 3073.16 4086.93 3089.5 4066.5 3089.5 4046.07 3089.5 4029.5 3073.16 4029.5 3053Z" stroke="#000000" stroke-width="4.58333" stroke-miterlimit="8" fill-rule="evenodd"/><path d="M4187.5 3241.5C4187.5 3221.07 4204.07 3204.5 4224.5 3204.5 4244.93 3204.5 4261.5 3221.07 4261.5 3241.5 4261.5 3261.93 4244.93 3278.5 4224.5 3278.5 4204.07 3278.5 4187.5 3261.93 4187.5 3241.5Z" stroke="#000000" stroke-width="4.58333" stroke-miterlimit="8" fill-rule="evenodd"/><path d="M4406.5 2913C4406.5 2892.84 4422.84 2876.5 4443 2876.5 4463.16 2876.5 4479.5 2892.84 4479.5 2913 4479.5 2933.16 4463.16 2949.5 4443 2949.5 4422.84 2949.5 4406.5 2933.16 4406.5 2913Z" stroke="#000000" stroke-width="4.58333" stroke-miterlimit="8" fill-rule="evenodd"/><path d="M4415.5 3159C4415.5 3138.84 4432.07 3122.5 4452.5 3122.5 4472.93 3122.5 4489.5 3138.84 4489.5 3159 4489.5 3179.16 4472.93 3195.5 4452.5 3195.5 4432.07 3195.5 4415.5 3179.16 4415.5 3159Z" stroke="#000000" stroke-width="4.58333" stroke-miterlimit="8" fill-rule="evenodd"/></g></svg>