<svg width="587" height="587" xmlns="http://www.w3.org/2000/svg" xmlns:xlink="http://www.w3.org/1999/xlink" xml:space="preserve" overflow="hidden"><defs><clipPath id="clip0"><rect x="7786" y="2767" width="587" height="587"/></clipPath></defs><g clip-path="url(#clip0)" transform="translate(-7786 -2767)"><path d="M7802 3060.5C7802 2907.24 7926.24 2783 8079.5 2783 8232.76 2783 8357 2907.24 8357 3060.5 8357 3213.76 8232.76 3338 8079.5 3338 7926.24 3338 7802 3213.76 7802 3060.5Z" stroke="#000000" stroke-width="32.0833" stroke-miterlimit="8" fill="none" fill-rule="evenodd"/><path d="M8306.57 2993.56 7857.98 3004.36 7861.18 3137.06 8309.12 3126.28 8306.57 2993.56ZM8212.98 3101.07 8162.49 3102.28 8161.52 3062.15 8143.4 3062.58 8144.36 3102.72 8093.87 3103.93 8092.91 3063.8 8074.78 3064.24 8075.75 3104.37 8025.26 3105.59 8024.29 3065.45 8006.17 3065.89 8007.13 3106.02 7956.64 3107.24 7955.68 3067.1 7937.55 3067.54 7938.52 3107.67 7888.67 3108.87 7886.8 3031.2 8279.73 3021.74 8281.6 3099.41 8231.75 3100.61 8230.79 3060.48 8212.01 3060.93 8212.98 3101.07Z" fill-rule="evenodd"/></g></svg>