<svg width="587" height="587" xmlns="http://www.w3.org/2000/svg" xmlns:xlink="http://www.w3.org/1999/xlink" xml:space="preserve" overflow="hidden"><defs><clipPath id="clip0"><rect x="1747" y="2744" width="587" height="587"/></clipPath></defs><g clip-path="url(#clip0)" transform="translate(-1747 -2744)"><path d="M1763 3037.5C1763 2884.24 1887.24 2760 2040.5 2760 2193.76 2760 2318 2884.24 2318 3037.5 2318 3190.76 2193.76 3315 2040.5 3315 1887.24 3315 1763 3190.76 1763 3037.5Z" stroke="#000000" stroke-width="32.0833" stroke-miterlimit="8" fill="none" fill-rule="evenodd"/><path d="M1861.5 3038C1861.5 2935 1941.86 2851.5 2041 2851.5 2140.14 2851.5 2220.5 2935 2220.5 3038 2220.5 3141 2140.14 3224.5 2041 3224.5 1941.86 3224.5 1861.5 3141 1861.5 3038Z" stroke="#000000" stroke-width="22.9167" stroke-miterlimit="8" fill="none" fill-rule="evenodd"/><path d="M1968.5 3037.5C1968.5 2996.08 2000.96 2962.5 2041 2962.5 2081.04 2962.5 2113.5 2996.08 2113.5 3037.5 2113.5 3078.92 2081.04 3112.5 2041 3112.5 2000.96 3112.5 1968.5 3078.92 1968.5 3037.5Z" stroke="#000000" stroke-width="22.9167" stroke-miterlimit="8" fill-rule="evenodd"/></g></svg>