<svg width="587" height="587" xmlns="http://www.w3.org/2000/svg" xmlns:xlink="http://www.w3.org/1999/xlink" xml:space="preserve" overflow="hidden"><defs><clipPath id="clip0"><rect x="6907" y="2744" width="587" height="587"/></clipPath></defs><g clip-path="url(#clip0)" transform="translate(-6907 -2744)"><path d="M6923 3037.5C6923 2884.24 7047.24 2760 7200.5 2760 7353.76 2760 7478 2884.24 7478 3037.5 7478 3190.76 7353.76 3315 7200.5 3315 7047.24 3315 6923 3190.76 6923 3037.5Z" stroke="#000000" stroke-width="32.0833" stroke-miterlimit="8" fill="none" fill-rule="evenodd"/><path d="M7014.5 2951C7014.5 2902.68 7052.33 2863.5 7099 2863.5 7145.67 2863.5 7183.5 2902.68 7183.5 2951 7183.5 2999.32 7145.67 3038.5 7099 3038.5 7052.33 3038.5 7014.5 2999.32 7014.5 2951Z" stroke="#000000" stroke-width="22.9167" stroke-miterlimit="8" fill="#FFE358" fill-rule="evenodd"/><path d="M7206.04 3142.79C7201.09 3094.84 7234.55 3052.11 7280.78 3047.34 7327 3042.57 7368.48 3077.58 7373.42 3125.54 7378.36 3173.49 7344.9 3216.22 7298.68 3220.99 7252.46 3225.75 7210.98 3190.75 7206.04 3142.79Z" stroke="#000000" stroke-width="22.9167" stroke-miterlimit="8" fill="none" fill-rule="evenodd"/><path d="M7158.5 3012.5 7224.78 3079.34" stroke="#000000" stroke-width="22.9167" stroke-miterlimit="8" fill="none" fill-rule="evenodd"/></g></svg>