<svg width="612" height="595" xmlns="http://www.w3.org/2000/svg" xmlns:xlink="http://www.w3.org/1999/xlink" xml:space="preserve" overflow="hidden"><defs><clipPath id="clip0"><rect x="1834" y="1010" width="612" height="595"/></clipPath></defs><g clip-path="url(#clip0)" transform="translate(-1834 -1010)"><path d="M1834 1312 1906 1168 2096 1168 2168 1312 2096 1456 1906 1456Z" fill="#CAEEFB" fill-rule="evenodd"/><path d="M2110 1153.5 2181.75 1010 2371.25 1010 2443 1153.5 2371.25 1297 2181.75 1297Z" fill="#61CBF4" fill-rule="evenodd"/><path d="M2113 1461 2185 1317 2374 1317 2446 1461 2374 1605 2185 1605Z" fill="#CAEEFB" fill-rule="evenodd"/><path d="M1964 1312C1964 1294.33 1978.1 1280 1995.5 1280 2012.9 1280 2027 1294.33 2027 1312 2027 1329.67 2012.9 1344 1995.5 1344 1978.1 1344 1964 1329.67 1964 1312Z" fill-rule="evenodd"/><path d="M2242 1147C2242 1129.33 2256.1 1115 2273.5 1115 2290.9 1115 2305 1129.33 2305 1147 2305 1164.67 2290.9 1179 2273.5 1179 2256.1 1179 2242 1164.67 2242 1147Z" fill-rule="evenodd"/><path d="M2231 1457.5C2231 1440.1 2245.1 1426 2262.5 1426 2279.9 1426 2294 1440.1 2294 1457.5 2294 1474.9 2279.9 1489 2262.5 1489 2245.1 1489 2231 1474.9 2231 1457.5Z" fill-rule="evenodd"/></g></svg>