<svg width="559" height="583" xmlns="http://www.w3.org/2000/svg" xmlns:xlink="http://www.w3.org/1999/xlink" xml:space="preserve" overflow="hidden"><defs><clipPath id="clip0"><rect x="4727" y="2744" width="559" height="583"/></clipPath></defs><g clip-path="url(#clip0)" transform="translate(-4727 -2744)"><path d="M4929.01 2940C5031.73 2940 5115 3022.92 5115 3125.2L5114.64 3128.72 5081.99 3132C4979.27 3132 4896 3049.08 4896 2946.8L4896.36 2943.28 4929.01 2940Z" stroke="#000000" stroke-width="32.0833" stroke-miterlimit="8" fill="#FFE979" fill-rule="evenodd"/><path d="M5081.32 2760C5183.87 2760 5267 2843.34 5267 2946.15 5267 3036.1 5203.35 3111.16 5118.74 3128.51L5113.92 3129 5114.28 3125.46C5114.28 3022.65 5031.14 2939.31 4928.6 2939.31L4896 2942.61 4899.42 2908.63C4916.73 2823.81 4991.59 2760 5081.32 2760Z" stroke="#000000" stroke-width="32.0833" stroke-miterlimit="8" fill="#FFE979" fill-rule="evenodd"/><path d="M4896.08 2943 4895.72 2946.53C4895.72 3049.06 4978.86 3132.17 5081.4 3132.17L5114 3128.89 5110.58 3162.77C5093.27 3247.37 5018.41 3311 4928.68 3311 4826.13 3311 4743 3227.89 4743 3125.36 4743 3035.65 4806.65 2960.8 4891.26 2943.49L4896.08 2943Z" stroke="#000000" stroke-width="32.0833" stroke-miterlimit="8" fill="#FFE979" fill-rule="evenodd"/><path d="M5084.35 2760C5186.88 2760 5270 2843.25 5270 2945.94 5270 3035.8 5206.36 3110.77 5121.77 3128.11L5116.94 3128.6 5113.53 3162.53C5096.22 3247.26 5021.36 3311 4931.65 3311 4829.12 3311 4746 3227.75 4746 3125.06 4746 3035.2 4809.64 2960.23 4894.23 2942.89L4899.06 2942.4 4902.47 2908.47C4919.78 2823.74 4994.64 2760 5084.35 2760Z" stroke="#000000" stroke-width="32.0833" stroke-miterlimit="8" fill="none" fill-rule="evenodd"/></g></svg>