<svg width="587" height="587" xmlns="http://www.w3.org/2000/svg" xmlns:xlink="http://www.w3.org/1999/xlink" xml:space="preserve" overflow="hidden"><defs><clipPath id="clip0"><rect x="6162" y="2744" width="587" height="587"/></clipPath></defs><g clip-path="url(#clip0)" transform="translate(-6162 -2744)"><path d="M6339 2952.29 6440.06 3197 6633 2982.88 6351.25 2937" stroke="#000000" stroke-width="13.75" stroke-miterlimit="8" fill="none" fill-rule="evenodd"/><path d="M6178 3037.5C6178 2884.24 6302.24 2760 6455.5 2760 6608.76 2760 6733 2884.24 6733 3037.5 6733 3190.76 6608.76 3315 6455.5 3315 6302.24 3315 6178 3190.76 6178 3037.5Z" stroke="#000000" stroke-width="32.0833" stroke-miterlimit="8" fill="#FFE358" fill-rule="evenodd"/><path d="M6261.5 2942.5C6261.5 2894.45 6299.33 2855.5 6346 2855.5 6392.67 2855.5 6430.5 2894.45 6430.5 2942.5 6430.5 2990.55 6392.67 3029.5 6346 3029.5 6299.33 3029.5 6261.5 2990.55 6261.5 2942.5Z" stroke="#000000" stroke-width="22.9167" stroke-miterlimit="8" fill-rule="evenodd"/><path d="M6515.03 3034.75C6508.11 2987.05 6539.78 2942.97 6585.76 2936.3 6631.75 2929.63 6674.64 2962.89 6681.56 3010.6 6688.48 3058.31 6656.81 3102.39 6610.82 3109.06 6564.84 3115.73 6521.95 3082.46 6515.03 3034.75Z" stroke="#000000" stroke-width="22.9167" stroke-miterlimit="8" fill="#FFE358" fill-rule="evenodd"/><path d="M6349.38 3225.15C6328.77 3181.57 6346.11 3130.14 6388.12 3110.27 6430.12 3090.4 6480.88 3109.62 6501.49 3153.2 6522.1 3196.78 6504.76 3248.21 6462.76 3268.08 6420.75 3287.94 6369.99 3268.72 6349.38 3225.15Z" stroke="#000000" stroke-width="22.9167" stroke-miterlimit="8" fill="#FFE358" fill-rule="evenodd"/></g></svg>