<svg width="592" height="592" xmlns="http://www.w3.org/2000/svg" xmlns:xlink="http://www.w3.org/1999/xlink" xml:space="preserve" overflow="hidden"><defs><clipPath id="clip0"><rect x="4213" y="2819" width="592" height="592"/></clipPath></defs><g clip-path="url(#clip0)" transform="translate(-4213 -2819)"><path d="M4231.5 3115C4231.5 2961.74 4355.74 2837.5 4509 2837.5 4662.26 2837.5 4786.5 2961.74 4786.5 3115 4786.5 3268.26 4662.26 3392.5 4509 3392.5 4355.74 3392.5 4231.5 3268.26 4231.5 3115Z" stroke="#000000" stroke-width="36.6667" stroke-miterlimit="8" fill="#FFE979" fill-rule="evenodd"/><path d="M4508.71 2838.46C4623.62 2838.46 4722.22 2908.33 4764.34 3007.9L4774.95 3042.08 4614.75 3172.09 4614.75 3172.09 4366.65 3059.69 4359.87 2882.43 4400.71 2860.26C4433.91 2846.22 4470.4 2838.46 4508.71 2838.46Z" stroke="#000000" stroke-width="27.5" stroke-miterlimit="8" fill="#F4B183" fill-rule="evenodd"/><path d="M4366.65 3059.69 4614.75 3172.09 4614.75 3172.09 4622.27 3368.5 4616.7 3371.53C4583.5 3385.57 4547.01 3393.33 4508.71 3393.33 4374.63 3393.33 4262.78 3298.23 4236.91 3171.81L4235.98 3165.74 4366.65 3059.69Z" stroke="#000000" stroke-width="27.5" stroke-miterlimit="8" fill="none" fill-rule="evenodd"/><path d="M4359.87 2882.43 4366.65 3059.69 4235.98 3165.74 4232.7 3144.26C4231.75 3134.93 4231.27 3125.47 4231.27 3115.89 4231.27 3020.13 4279.79 2935.7 4353.59 2885.84L4359.87 2882.43Z" stroke="#000000" stroke-width="27.5" stroke-miterlimit="8" fill="#C5E0B4" fill-rule="evenodd"/><path d="M4774.95 3042.08 4780.51 3059.98C4784.2 3078.04 4786.14 3096.74 4786.14 3115.89 4786.14 3211.66 4737.62 3296.09 4663.82 3345.95L4622.27 3368.5 4614.75 3172.09 4774.95 3042.08Z" stroke="#000000" stroke-width="27.5" stroke-miterlimit="8" fill="#DEEBF7" fill-rule="evenodd"/><path d="M4366.65 3059.69 4614.75 3172.09 4614.76 3172.09 4614.76 3172.09 4366.65 3059.69Z" stroke="#000000" stroke-width="27.5" stroke-miterlimit="8" fill="none" fill-rule="evenodd"/><path d="M4515 2965C4515 2944.01 4532.24 2927 4553.5 2927 4574.76 2927 4592 2944.01 4592 2965 4592 2985.99 4574.76 3003 4553.5 3003 4532.24 3003 4515 2985.99 4515 2965Z" fill-rule="evenodd"/><path d="M4417 3260.5C4417 3239.24 4434.01 3222 4455 3222 4475.99 3222 4493 3239.24 4493 3260.5 4493 3281.76 4475.99 3299 4455 3299 4434.01 3299 4417 3281.76 4417 3260.5Z" fill-rule="evenodd"/></g></svg>