<svg width="593" height="593" xmlns="http://www.w3.org/2000/svg" xmlns:xlink="http://www.w3.org/1999/xlink" xml:space="preserve" overflow="hidden"><defs><clipPath id="clip0"><rect x="2729" y="3310" width="593" height="593"/></clipPath></defs><g clip-path="url(#clip0)" transform="translate(-2729 -3310)"><rect x="2739.5" y="3320.5" width="190" height="191" stroke="#0D0D0D" stroke-width="20.625" stroke-miterlimit="8" fill="none"/><rect x="2929.5" y="3320.5" width="191" height="191" stroke="#0D0D0D" stroke-width="20.625" stroke-miterlimit="8" fill="none"/><rect x="3120.5" y="3320.5" width="191" height="191" stroke="#0D0D0D" stroke-width="20.625" stroke-miterlimit="8" fill="none"/><rect x="2739.5" y="3511.5" width="190" height="191" stroke="#0D0D0D" stroke-width="20.625" stroke-miterlimit="8" fill="none"/><rect x="2929.5" y="3511.5" width="191" height="191" stroke="#0D0D0D" stroke-width="20.625" stroke-miterlimit="8" fill="none"/><rect x="3120.5" y="3511.5" width="191" height="191" stroke="#0D0D0D" stroke-width="20.625" stroke-miterlimit="8" fill="none"/><rect x="2739.5" y="3702.5" width="190" height="190" stroke="#0D0D0D" stroke-width="20.625" stroke-miterlimit="8" fill="none"/><rect x="2929.5" y="3702.5" width="191" height="190" stroke="#0D0D0D" stroke-width="20.625" stroke-miterlimit="8" fill="none"/><rect x="3120.5" y="3702.5" width="191" height="190" stroke="#0D0D0D" stroke-width="20.625" stroke-miterlimit="8" fill="none"/><path d="M2955 3800C2955 3760.24 2987.24 3728 3027 3728 3066.76 3728 3099 3760.24 3099 3800 3099 3839.76 3066.76 3872 3027 3872 2987.24 3872 2955 3839.76 2955 3800Z" fill-rule="evenodd"/><path d="M2767 3610C2767 3570.24 2799.24 3538 2839 3538 2878.76 3538 2911 3570.24 2911 3610 2911 3649.76 2878.76 3682 2839 3682 2799.24 3682 2767 3649.76 2767 3610Z" fill-rule="evenodd"/></g></svg>