<svg width="593" height="593" xmlns="http://www.w3.org/2000/svg" xmlns:xlink="http://www.w3.org/1999/xlink" xml:space="preserve" overflow="hidden"><defs><clipPath id="clip0"><rect x="598" y="1287" width="593" height="593"/></clipPath></defs><g clip-path="url(#clip0)" transform="translate(-598 -1287)"><rect x="608.5" y="1297.5" width="190" height="190" stroke="#000000" stroke-width="20.625" stroke-miterlimit="8"/><rect x="798.5" y="1297.5" width="191" height="190" stroke="#000000" stroke-width="20.625" stroke-miterlimit="8"/><rect x="989.5" y="1297.5" width="191" height="190" stroke="#000000" stroke-width="20.625" stroke-miterlimit="8" fill="none"/><rect x="608.5" y="1487.5" width="190" height="191" stroke="#000000" stroke-width="20.625" stroke-miterlimit="8"/><rect x="798.5" y="1487.5" width="191" height="191" stroke="#000000" stroke-width="20.625" stroke-miterlimit="8" fill="none"/><rect x="989.5" y="1487.5" width="191" height="191" stroke="#000000" stroke-width="20.625" stroke-miterlimit="8" fill="none"/><rect x="608.5" y="1678.5" width="190" height="191" stroke="#000000" stroke-width="20.625" stroke-miterlimit="8" fill="none"/><rect x="798.5" y="1678.5" width="191" height="191" stroke="#000000" stroke-width="20.625" stroke-miterlimit="8" fill="none"/><rect x="989.5" y="1678.5" width="191" height="191" stroke="#000000" stroke-width="20.625" stroke-miterlimit="8"/><path d="M802.5 1492.5 993.5 1492.5 802.5 1678.5Z" stroke="#000000" stroke-width="4.58333" stroke-miterlimit="8" fill-rule="evenodd"/><path d="M1174.5 1677.5 983.5 1677.5 1174.5 1491.5Z" stroke="#000000" stroke-width="4.58333" stroke-miterlimit="8" fill-rule="evenodd"/><path d="M613.5 1680.5 804.5 1680.5 613.5 1866.5Z" stroke="#000000" stroke-width="4.58333" stroke-miterlimit="8" fill-rule="evenodd"/><path d="M993.5 1301.5 1184.5 1301.5 993.5 1487.5Z" stroke="#000000" stroke-width="4.58333" stroke-miterlimit="8" fill-rule="evenodd"/><path d="M979.5 1873.5 789.5 1873.5 979.5 1687.5Z" stroke="#000000" stroke-width="4.58333" stroke-miterlimit="8" fill-rule="evenodd"/></g></svg>