<svg width="594" height="593" xmlns="http://www.w3.org/2000/svg" xmlns:xlink="http://www.w3.org/1999/xlink" xml:space="preserve" overflow="hidden"><defs><clipPath id="clip0"><rect x="1310" y="1283" width="594" height="593"/></clipPath></defs><g clip-path="url(#clip0)" transform="translate(-1310 -1283)"><rect x="1320.5" y="1293.5" width="191" height="191" stroke="#000000" stroke-width="20.625" stroke-miterlimit="8" fill="none"/><rect x="1511.5" y="1293.5" width="191" height="191" stroke="#000000" stroke-width="20.625" stroke-miterlimit="8" fill="none"/><rect x="1702.5" y="1293.5" width="190" height="191" stroke="#000000" stroke-width="20.625" stroke-miterlimit="8" fill="none"/><rect x="1320.5" y="1484.5" width="191" height="190" stroke="#000000" stroke-width="20.625" stroke-miterlimit="8" fill="none"/><rect x="1511.5" y="1484.5" width="191" height="190" stroke="#000000" stroke-width="20.625" stroke-miterlimit="8"/><rect x="1702.5" y="1484.5" width="190" height="190" stroke="#000000" stroke-width="20.625" stroke-miterlimit="8" fill="none"/><rect x="1320.5" y="1674.5" width="191" height="191" stroke="#000000" stroke-width="20.625" stroke-miterlimit="8" fill="none"/><rect x="1511.5" y="1674.5" width="191" height="191" stroke="#000000" stroke-width="20.625" stroke-miterlimit="8" fill="none"/><rect x="1702.5" y="1674.5" width="190" height="191" stroke="#000000" stroke-width="20.625" stroke-miterlimit="8" fill="none"/><path d="M1323.5 1868.5 1323.5 1677.5 1509.5 1868.5Z" stroke="#000000" stroke-width="4.58333" stroke-miterlimit="8" fill-rule="evenodd"/><path d="M1894.5 1858.5 1704.5 1858.5 1894.5 1672.5Z" stroke="#000000" stroke-width="4.58333" stroke-miterlimit="8" fill-rule="evenodd"/><path d="M1882.57 1478.6 1900.28 1668.46 1697.48 1495.87Z" stroke="#000000" stroke-width="4.58333" stroke-miterlimit="8" fill-rule="evenodd"/><path d="M1322.5 1302.5 1513.5 1302.5 1322.5 1488.5Z" stroke="#000000" stroke-width="4.58333" stroke-miterlimit="8" fill-rule="evenodd"/><path d="M1891.5 1296.5 1891.5 1487.5 1705.5 1296.5Z" stroke="#000000" stroke-width="4.58333" stroke-miterlimit="8" fill-rule="evenodd"/></g></svg>