<svg width="620" height="619" xmlns="http://www.w3.org/2000/svg" xmlns:xlink="http://www.w3.org/1999/xlink" xml:space="preserve" overflow="hidden"><defs><clipPath id="clip0"><rect x="7249" y="4346" width="620" height="619"/></clipPath></defs><g clip-path="url(#clip0)" transform="translate(-7249 -4346)"><path d="M7354.01 4865.05C7238.24 4751.85 7236.16 4566.22 7349.36 4450.45 7462.56 4334.67 7648.19 4332.59 7763.96 4445.79 7879.74 4559 7881.82 4744.62 7768.62 4860.4 7655.41 4976.17 7469.79 4978.26 7354.01 4865.05Z" stroke="#000000" stroke-width="32.0833" stroke-miterlimit="8" fill="#FFC000" fill-rule="evenodd"/><path d="M7435.38 4781.84C7319.6 4668.64 7281.09 4520.27 7349.36 4450.45 7417.63 4380.63 7566.83 4415.8 7682.6 4529 7798.38 4642.21 7836.89 4790.58 7768.62 4860.4 7700.35 4930.22 7551.15 4895.05 7435.38 4781.84Z" stroke="#000000" stroke-width="22.9167" stroke-miterlimit="8" fill="#FFFFFF" fill-rule="evenodd"/><path d="M7349.36 4450.45 7768.62 4860.4" stroke="#000000" stroke-width="22.9167" stroke-miterlimit="8" fill="none" fill-rule="evenodd"/><path d="M7354.01 4865.05 7763.96 4445.79" stroke="#000000" stroke-width="22.9167" stroke-miterlimit="8" fill="none" fill-rule="evenodd"/><path d="M7491.41 4712.76C7428.11 4650.87 7407.05 4569.75 7444.38 4531.58 7481.7 4493.41 7563.27 4512.63 7626.57 4574.53 7689.87 4636.42 7710.93 4717.54 7673.6 4755.71 7636.28 4793.89 7554.7 4774.66 7491.41 4712.76Z" stroke="#000000" stroke-width="22.9167" stroke-miterlimit="8" fill-rule="evenodd"/></g></svg>