<svg width="619" height="620" xmlns="http://www.w3.org/2000/svg" xmlns:xlink="http://www.w3.org/1999/xlink" xml:space="preserve" overflow="hidden"><defs><clipPath id="clip0"><rect x="4466" y="3654" width="619" height="620"/></clipPath></defs><g clip-path="url(#clip0)" transform="translate(-4466 -3654)"><path d="M4985.37 4168.98C4872.16 4284.76 4686.54 4286.84 4570.76 4173.64 4454.99 4060.43 4452.9 3874.81 4566.11 3759.03 4679.31 3643.26 4864.94 3641.17 4980.71 3754.38 5096.49 3867.58 5098.57 4053.21 4985.37 4168.98Z" stroke="#000000" stroke-width="32.0833" stroke-miterlimit="8" fill="none" fill-rule="evenodd"/><path d="M4987.42 4165.1 4568.16 3755.15" stroke="#000000" stroke-width="22.9167" stroke-miterlimit="8" fill="#FFC000" fill-rule="evenodd"/><path d="M4922.75 4107.75C4809.54 4223.53 4651.95 4253.02 4570.76 4173.64 4489.57 4094.25 4515.52 3936.04 4628.73 3820.26 4741.93 3704.49 4899.52 3674.99 4980.71 3754.38 5061.9 3833.77 5035.95 3991.98 4922.75 4107.75Z" stroke="#000000" stroke-width="22.9167" stroke-miterlimit="8" fill="#72AD79" fill-rule="evenodd"/><path d="M4843.19 4041.48C4772.24 4114.04 4679.26 4138.17 4635.5 4095.39 4591.74 4052.6 4613.78 3959.09 4684.73 3886.53 4755.68 3813.98 4848.67 3789.84 4892.42 3832.63 4936.18 3875.41 4914.14 3968.92 4843.19 4041.48Z" stroke="#000000" stroke-width="22.9167" stroke-miterlimit="8" fill="#DAA90C" fill-rule="evenodd"/><path d="M4799.69 4000.82C4766.2 4035.07 4722.31 4046.46 4701.66 4026.26 4681.01 4006.07 4691.41 3961.94 4724.9 3927.69 4758.38 3893.45 4802.27 3882.06 4822.92 3902.25 4843.57 3922.44 4833.17 3966.58 4799.69 4000.82Z" stroke="#000000" stroke-width="22.9167" stroke-miterlimit="8" fill="#EE7100" fill-rule="evenodd"/></g></svg>