<svg width="1579" height="1579" xmlns="http://www.w3.org/2000/svg" xmlns:xlink="http://www.w3.org/1999/xlink" xml:space="preserve" overflow="hidden"><defs><clipPath id="clip0"><rect x="903" y="893" width="1579" height="1579"/></clipPath></defs><g clip-path="url(#clip0)" transform="translate(-903 -893)"><rect x="908" y="897" width="1540" height="1540" fill="#BFBFBF"/><rect x="908" y="897" width="394" height="469" fill="#3D81F4"/><rect x="908" y="2078" width="382" height="359" fill="#EF6F63"/><rect x="1310" y="1401" width="674" height="649" fill="#FBBC05"/><rect x="2025" y="2082" width="423" height="355" fill="#4285F4"/><rect x="1319" y="2085" width="665" height="352" fill="#34A853"/><rect x="2025" y="897" width="423" height="465" fill="#E93D2E"/><path d="M903.5 2062.5 2462.56 2062.5" stroke="#FFFFFF" stroke-width="36.6667" stroke-miterlimit="8" fill="none" fill-rule="evenodd"/><path d="M903.5 1381.5 2462.56 1381.5" stroke="#FFFFFF" stroke-width="36.6667" stroke-miterlimit="8" fill="none" fill-rule="evenodd"/><path d="M1305.5 893.5 1305.5 2452.56" stroke="#FFFFFF" stroke-width="36.6667" stroke-miterlimit="8" fill="none" fill-rule="evenodd"/><path d="M2002.5 893.5 2002.5 2452.56" stroke="#FFFFFF" stroke-width="36.6667" stroke-miterlimit="8" fill="none" fill-rule="evenodd"/><path d="M1275 2074.5 1275 1351 2003.5 1351 2003.5 1406 1302.5 1406 1330 1378.5 1330 2074.5ZM1385 2074.5C1385 2120.06 1348.06 2157 1302.5 2157 1256.94 2157 1220 2120.06 1220 2074.5 1220 2028.94 1256.94 1992 1302.5 1992 1348.06 1992 1385 2028.94 1385 2074.5ZM2003.5 1296C2049.06 1296 2086 1332.94 2086 1378.5 2086 1424.06 2049.06 1461 2003.5 1461 1957.94 1461 1921 1424.06 1921 1378.5 1921 1332.94 1957.94 1296 2003.5 1296Z" fill="#FF0000"/></g></svg>