<svg width="1578" height="1579" xmlns="http://www.w3.org/2000/svg" xmlns:xlink="http://www.w3.org/1999/xlink" xml:space="preserve" overflow="hidden"><defs><clipPath id="clip0"><rect x="871" y="2596" width="1578" height="1579"/></clipPath></defs><g clip-path="url(#clip0)" transform="translate(-871 -2596)"><rect x="905" y="2602" width="1539" height="1540" fill="#BFBFBF"/><rect x="1975" y="2602" width="469" height="394" fill="#3D81F4"/><rect x="905" y="2596" width="351" height="394" fill="#EF6F63"/><rect x="1291" y="3003" width="649" height="670" fill="#FBBC05"/><rect x="905" y="3718" width="363" height="415" fill="#4285F4"/><rect x="905" y="3012" width="351" height="661" fill="#34A853"/><rect x="1979" y="3718" width="465" height="424" fill="#E93D2E"/><path d="M1279.5 2596.5 1279.5 4155.55" stroke="#FFFFFF" stroke-width="36.6667" stroke-miterlimit="8" fill="none" fill-rule="evenodd"/><path d="M1960.5 2596.5 1960.5 4155.55" stroke="#FFFFFF" stroke-width="36.6667" stroke-miterlimit="8" fill="none" fill-rule="evenodd"/><path d="M2448.56 2998.5 889.5 2998.5" stroke="#FFFFFF" stroke-width="36.6667" stroke-miterlimit="8" fill="none" fill-rule="evenodd"/><path d="M2448.56 3696.5 889.5 3696.5" stroke="#FFFFFF" stroke-width="36.6667" stroke-miterlimit="8" fill="none" fill-rule="evenodd"/><path d="M1985.88 3018.02 1284.88 3714.02 1246.12 3674.99 1947.12 2978.99ZM1908.37 2939.96C1940.71 2907.85 1992.94 2908.04 2025.04 2940.37 2057.15 2972.71 2056.96 3024.94 2024.63 3057.04 1992.29 3089.15 1940.06 3088.96 1907.96 3056.63 1875.85 3024.29 1876.04 2972.06 1908.37 2939.96ZM1323.63 3753.04C1291.29 3785.15 1239.06 3784.96 1206.96 3752.63 1174.85 3720.29 1175.04 3668.06 1207.37 3635.96 1239.71 3603.85 1291.94 3604.04 1324.04 3636.37 1356.15 3668.71 1355.96 3720.94 1323.63 3753.04Z" fill="#FF0000"/></g></svg>