<svg width="1540" height="1540" xmlns="http://www.w3.org/2000/svg" xmlns:xlink="http://www.w3.org/1999/xlink" xml:space="preserve" overflow="hidden"><defs><clipPath id="clip0"><rect x="4359" y="2654" width="1540" height="1540"/></clipPath></defs><g clip-path="url(#clip0)" transform="translate(-4359 -2654)"><path d="M4359 2654 4808 2810.33 4808 3147 4409.15 3147 4359 2654Z" fill="#00B0F0" fill-rule="evenodd"/><path d="M5899 2654 5735.18 3147 5304 3147 5304 2749.32 5899 2654Z" fill-rule="evenodd"/><path d="M5205 2765 5205 3147 4907 3147 4907 2812.69 5205 2765Z" fill="#4472C4" fill-rule="evenodd"/><path d="M4419 3246 4808 3246 4808 3587 4453.7 3587 4419 3246Z" fill="#00B0F0" fill-rule="evenodd"/><path d="M4907 3246 5205 3246 5205 3587 4907 3587 4907 3246Z" fill="#4472C4" fill-rule="evenodd"/><path d="M5304 3246 5711.29 3246 5779 3587 5304 3587 5304 3246Z" fill-rule="evenodd"/><path d="M4452.43 3686 4808 3686 4808 4113.42 4359 4194 4452.43 3686Z" fill="#92D050" fill-rule="evenodd"/><path d="M4907 3686 5205 3686 5205 4042.53 4907 4096 4907 3686Z" fill="#92D050" fill-rule="evenodd"/><path d="M5304 3686 5798.25 3686 5899 4194 5323.56 4020.91 5304 4024.43 5304 3686Z" fill-rule="evenodd"/><path d="M5278.99 3101.51 4536.99 3657.51 4504.01 3613.49 5246.01 3057.49ZM5213.03 3013.48C5249.49 2986.16 5301.2 2993.57 5328.52 3030.03 5355.84 3066.49 5348.43 3118.2 5311.97 3145.52 5275.51 3172.84 5223.8 3165.43 5196.48 3128.97 5169.16 3092.51 5176.57 3040.8 5213.03 3013.48ZM4569.97 3701.52C4533.51 3728.84 4481.8 3721.43 4454.48 3684.97 4427.16 3648.51 4434.57 3596.8 4471.03 3569.48 4507.49 3542.16 4559.2 3549.57 4586.52 3586.03 4613.84 3622.49 4606.43 3674.2 4569.97 3701.52Z" fill="#FF0000"/></g></svg>