<svg width="1540" height="1540" xmlns="http://www.w3.org/2000/svg" xmlns:xlink="http://www.w3.org/1999/xlink" xml:space="preserve" overflow="hidden"><defs><clipPath id="clip0"><rect x="6054" y="2641" width="1540" height="1540"/></clipPath></defs><g clip-path="url(#clip0)" transform="translate(-6054 -2641)"><path d="M6063.17 2650.17 6516.92 2806 7594 2641 7424.42 3186.42 7594 4181 7021.08 4006.83 6054 4176.42 6154.83 3621.83 6063.17 2650.17Z" fill="#92D050" fill-rule="evenodd"/><path d="M6322.88 2914.88 6613.69 3014.75 7304 2909 7195.31 3258.56 7304 3896 6936.81 3784.38 6317 3893.06 6381.62 3537.63 6322.88 2914.88Z" fill="#FFFFFF" fill-rule="evenodd"/><path d="M6530.21 3125.21 6689.32 3179.86 7067 3122 7007.54 3313.25 7067 3662 6866.11 3600.93 6527 3660.39 6562.36 3465.93 6530.21 3125.21Z" stroke="#000000" stroke-width="27.5" stroke-miterlimit="8" fill="#0D0D0D" fill-rule="evenodd"/></g></svg>