<svg width="1540" height="1540" xmlns="http://www.w3.org/2000/svg" xmlns:xlink="http://www.w3.org/1999/xlink" xml:space="preserve" overflow="hidden"><defs><clipPath id="clip0"><rect x="2596" y="2607" width="1540" height="1540"/></clipPath></defs><g clip-path="url(#clip0)" transform="translate(-2596 -2607)"><path d="M2596 2607 3045 2763.33 3045 3100 2646.15 3100 2596 2607Z" fill="#00B0F0" fill-rule="evenodd"/><path d="M4136 2607 3972.18 3100 3541 3100 3541 2702.32 4136 2607Z" fill-rule="evenodd"/><path d="M3442 2718 3442 3100 3144 3100 3144 2765.69 3442 2718Z" fill="#4472C4" fill-rule="evenodd"/><path d="M2656 3199 3045 3199 3045 3540 2690.7 3540 2656 3199Z" fill="#00B0F0" fill-rule="evenodd"/><path d="M3144 3199 3442 3199 3442 3540 3144 3540 3144 3199Z" fill="#4472C4" fill-rule="evenodd"/><path d="M3541 3199 3947.43 3199 4015 3540 3541 3540 3541 3199Z" fill-rule="evenodd"/><path d="M2689.43 3639 3045 3639 3045 4066.42 2596 4147 2689.43 3639Z" fill="#92D050" fill-rule="evenodd"/><path d="M3144 3639 3442 3639 3442 3995.53 3144 4049 3144 3639Z" fill="#92D050" fill-rule="evenodd"/><path d="M3541 3639 4035.25 3639 4136 4147 3560.56 3973.91 3541 3977.43 3541 3639Z" fill-rule="evenodd"/><path d="M3502 2990.5 3502 3640 2806.5 3640 2806.5 3585 3474.5 3585 3447 3612.5 3447 2990.5ZM3392 2990.5C3392 2944.94 3428.94 2908 3474.5 2908 3520.06 2908 3557 2944.94 3557 2990.5 3557 3036.06 3520.06 3073 3474.5 3073 3428.94 3073 3392 3036.06 3392 2990.5ZM2806.5 3695C2760.94 3695 2724 3658.06 2724 3612.5 2724 3566.94 2760.94 3530 2806.5 3530 2852.06 3530 2889 3566.94 2889 3612.5 2889 3658.06 2852.06 3695 2806.5 3695Z" fill="#FF0000"/></g></svg>