<svg width="1580" height="1582" xmlns="http://www.w3.org/2000/svg" xmlns:xlink="http://www.w3.org/1999/xlink" xml:space="preserve" overflow="hidden"><defs><clipPath id="clip0"><rect x="4255" y="875" width="1580" height="1582"/></clipPath><radialGradient cx="4281054" cy="4256116" r="6036718" fx="4281054" fy="4256117" gradientUnits="userSpaceOnUse" spreadMethod="pad" id="fill1" gradientTransform="matrix(-0.000360892 4.41966e-20 -4.41966e-20 -0.000360892 5832.5 2449.5)"><stop offset="0" stop-color="#025390"/><stop offset="0.0120482" stop-color="#03528F"/><stop offset="0.0240964" stop-color="#05528F"/><stop offset="0.0361446" stop-color="#07528F"/><stop offset="0.0481928" stop-color="#09528F"/><stop offset="0.060241" stop-color="#0B528F"/><stop offset="0.0722892" stop-color="#0D528F"/><stop offset="0.0843373" stop-color="#0E528F"/><stop offset="0.0963855" stop-color="#10528F"/><stop offset="0.108434" stop-color="#12528F"/><stop offset="0.120482" stop-color="#13528F"/><stop offset="0.13253" stop-color="#15528F"/><stop offset="0.144578" stop-color="#17518F"/><stop offset="0.156627" stop-color="#18518F"/><stop offset="0.168675" stop-color="#1A518F"/><stop offset="0.180723" stop-color="#1C518F"/><stop offset="0.192771" stop-color="#1D518E"/><stop offset="0.204819" stop-color="#1F518E"/><stop offset="0.216867" stop-color="#20508E"/><stop offset="0.228916" stop-color="#22508E"/><stop offset="0.240964" stop-color="#23508E"/><stop offset="0.253012" stop-color="#25508E"/><stop offset="0.26506" stop-color="#264F8E"/><stop offset="0.277108" stop-color="#284F8E"/><stop offset="0.289157" stop-color="#294F8D"/><stop offset="0.301205" stop-color="#2B4E8D"/><stop offset="0.313253" stop-color="#2C4E8D"/><stop offset="0.325301" stop-color="#2D4E8D"/><stop offset="0.337349" stop-color="#2F4D8D"/><stop offset="0.349398" stop-color="#304D8C"/><stop offset="0.361446" stop-color="#314D8C"/><stop offset="0.373494" stop-color="#334C8C"/><stop offset="0.385542" stop-color="#344C8C"/><stop offset="0.39759" stop-color="#354C8C"/><stop offset="0.409639" stop-color="#364B8B"/><stop offset="0.421687" stop-color="#374B8B"/><stop offset="0.433735" stop-color="#394A8B"/><stop offset="0.445783" stop-color="#3A4A8B"/><stop offset="0.457831" stop-color="#3B498A"/><stop offset="0.46988" stop-color="#3C498A"/><stop offset="0.481928" stop-color="#3D498A"/><stop offset="0.493976" stop-color="#3E488A"/><stop offset="0.506024" stop-color="#3F4889"/><stop offset="0.518072" stop-color="#404789"/><stop offset="0.53012" stop-color="#414789"/><stop offset="0.542169" stop-color="#424689"/><stop offset="0.554217" stop-color="#434688"/><stop offset="0.566265" stop-color="#444588"/><stop offset="0.578313" stop-color="#454588"/><stop offset="0.590361" stop-color="#464487"/><stop offset="0.60241" stop-color="#474387"/><stop offset="0.614458" stop-color="#474387"/><stop offset="0.626506" stop-color="#484286"/><stop offset="0.638554" stop-color="#494286"/><stop offset="0.650602" stop-color="#4A4186"/><stop offset="0.662651" stop-color="#4B4085"/><stop offset="0.674699" stop-color="#4B4085"/><stop offset="0.686747" stop-color="#4C3F85"/><stop offset="0.698795" stop-color="#4D3F84"/><stop offset="0.710843" stop-color="#4D3E84"/><stop offset="0.722892" stop-color="#4E3D84"/><stop offset="0.73494" stop-color="#4F3D83"/><stop offset="0.746988" stop-color="#4F3C83"/><stop offset="0.759036" stop-color="#503B82"/><stop offset="0.771084" stop-color="#503B82"/><stop offset="0.783133" stop-color="#513A82"/><stop offset="0.795181" stop-color="#513981"/><stop offset="0.807229" stop-color="#523881"/><stop offset="0.819277" stop-color="#523880"/><stop offset="0.831325" stop-color="#533780"/><stop offset="0.843373" stop-color="#533680"/><stop offset="0.855422" stop-color="#53357F"/><stop offset="0.86747" stop-color="#54357F"/><stop offset="0.879518" stop-color="#54347E"/><stop offset="0.891566" stop-color="#54337E"/><stop offset="0.903614" stop-color="#54327D"/><stop offset="0.915663" stop-color="#55317D"/><stop offset="0.927711" stop-color="#55317C"/><stop offset="0.939759" stop-color="#55307C"/><stop offset="0.951807" stop-color="#552F7B"/><stop offset="0.963855" stop-color="#552E7B"/><stop offset="0.975904" stop-color="#552D7A"/><stop offset="0.987952" stop-color="#552C7A"/><stop offset="1" stop-color="#562C7A"/></radialGradient></defs><g clip-path="url(#clip0)" transform="translate(-4255 -875)"><path d="M5832.5 2193.5C5832.5 2334.88 5717.88 2449.5 5576.5 2449.5L4543.5 2449.5C4402.12 2449.5 4287.5 2334.88 4287.5 2193.5L4287.5 1169.5C4287.5 1028.12 4402.12 913.5 4543.5 913.5L5576.5 913.5C5717.88 913.5 5832.5 1028.12 5832.5 1169.5Z" stroke="#2F528F" stroke-width="4.58333" stroke-miterlimit="8" fill="url(#fill1)" fill-rule="evenodd"/><path d="M5832.56 1288.5 4273.5 1288.5" stroke="#FFFFFF" stroke-width="36.6667" stroke-miterlimit="8" fill="none" fill-rule="evenodd"/><path d="M5832.56 1968.5 4273.5 1968.5" stroke="#FFFFFF" stroke-width="36.6667" stroke-miterlimit="8" fill="none" fill-rule="evenodd"/><path d="M5431.5 2452.55 5431.5 893.5" stroke="#FFFFFF" stroke-width="36.6667" stroke-miterlimit="8" fill="none" fill-rule="evenodd"/><path d="M4733.5 2456.56 4733.5 897.5" stroke="#FFFFFF" stroke-width="36.6667" stroke-miterlimit="8" fill="none" fill-rule="evenodd"/><path d="M4705 1972.5 4705 1249 5433.5 1249 5433.5 1304 4732.5 1304 4760 1276.5 4760 1972.5ZM4815 1972.5C4815 2018.06 4778.06 2055 4732.5 2055 4686.94 2055 4650 2018.06 4650 1972.5 4650 1926.94 4686.94 1890 4732.5 1890 4778.06 1890 4815 1926.94 4815 1972.5ZM5433.5 1194C5479.06 1194 5516 1230.94 5516 1276.5 5516 1322.06 5479.06 1359 5433.5 1359 5387.94 1359 5351 1322.06 5351 1276.5 5351 1230.94 5387.94 1194 5433.5 1194Z" fill="#FF0000"/><path d="M5651 2073C5651 2181.25 5563.25 2269 5455 2269L4664 2269C4555.75 2269 4468 2181.25 4468 2073L4468 1289.02C4468 1180.77 4555.75 1093.02 4664 1093.02L5455 1093.02C5563.25 1093.02 5651 1180.77 5651 1289.02Z" stroke="#FFFFFF" stroke-width="24.0625" stroke-miterlimit="8" fill="none" fill-rule="evenodd"/></g></svg>