<svg width="530" height="527" xmlns="http://www.w3.org/2000/svg" xmlns:xlink="http://www.w3.org/1999/xlink" xml:space="preserve" overflow="hidden"><defs><clipPath id="clip0"><rect x="1645" y="759" width="530" height="527"/></clipPath></defs><g clip-path="url(#clip0)" transform="translate(-1645 -759)"><path d="M1645 1027 1759.27 1027 1761.86 1052.67C1773.92 1111.56 1820.34 1157.94 1879.28 1169.99L1890 1171.07 1890 1286 1882.61 1285.63C1757.92 1272.98 1658.79 1173.93 1646.13 1049.35L1645 1027Z" fill="#DF1B12" fill-rule="evenodd"/><path d="M2060.73 1027 2175 1027 2173.87 1049.35C2161.21 1173.93 2062.08 1272.98 1937.39 1285.63L1930 1286 1930 1171.07 1940.72 1169.99C1999.66 1157.94 2046.08 1111.56 2058.14 1052.67L2060.73 1027Z" fill="#DF1B12" fill-rule="evenodd"/><path d="M1873.9 759 1910 821.353 1946.1 759 1957 759.964C2063.8 779.073 2148.47 862.14 2170.14 968.2L2173 987 2056.84 987 2049.35 962.835C2026.4 908.456 1972.65 870.301 1910 870.301 1847.35 870.301 1793.6 908.456 1770.64 962.835L1763.16 987 1647 987 1649.86 968.2C1671.53 862.14 1756.2 779.073 1863 759.964L1873.9 759Z" fill="#DF1B12" fill-rule="evenodd"/></g></svg>