<svg width="560" height="555" xmlns="http://www.w3.org/2000/svg" xmlns:xlink="http://www.w3.org/1999/xlink" xml:space="preserve" overflow="hidden"><defs><clipPath id="clip0"><rect x="248" y="1243" width="560" height="555"/></clipPath></defs><g clip-path="url(#clip0)" transform="translate(-248 -1243)"><path d="M302 1472C302 1345.53 404.303 1243 530.5 1243 656.697 1243 759 1345.53 759 1472 759 1598.47 656.697 1701 530.5 1701 404.303 1701 302 1598.47 302 1472Z" fill="#FBE3D6" fill-rule="evenodd"/><path d="M530.5 1381.45C480.35 1381.45 439.696 1421.99 439.696 1472 439.696 1522.01 480.35 1562.55 530.5 1562.55 580.65 1562.55 621.304 1522.01 621.304 1472 621.304 1421.99 580.65 1381.45 530.5 1381.45ZM530.5 1293C629.635 1293 710 1373.14 710 1472 710 1570.86 629.635 1651 530.5 1651 431.365 1651 351 1570.86 351 1472 351 1373.14 431.365 1293 530.5 1293Z" fill="#DF1C14" fill-rule="evenodd"/><path d="M594 1688 530.5 1798 467 1688Z" fill="#DF1C14" fill-rule="evenodd"/><path d="M740 1444 808 1484 740 1524Z" fill="#FBE3D6" fill-rule="evenodd"/><path d="M316 1529 248 1489 316 1449Z" fill="#FBE3D6" fill-rule="evenodd"/></g></svg>