<svg width="203" height="199" xmlns="http://www.w3.org/2000/svg" xmlns:xlink="http://www.w3.org/1999/xlink" xml:space="preserve" overflow="hidden"><defs><clipPath id="clip0"><rect x="1851" y="866" width="203" height="199"/></clipPath></defs><g clip-path="url(#clip0)" transform="translate(-1851 -866)"><path d="M1952.5 866C2008.56 866 2054 911.468 2054 967.556 2054 1009.62 2028.44 1045.71 1992.01 1061.13L1979.55 1065 1952.5 1018.33 1925.45 1065 1912.99 1061.13C1876.56 1045.71 1851 1009.62 1851 967.556 1851 911.468 1896.44 866 1952.5 866Z" fill="#FF0000" fill-rule="evenodd"/><path d="M1908 967.5C1908 942.923 1927.92 923 1952.5 923 1977.08 923 1997 942.923 1997 967.5 1997 992.077 1977.08 1012 1952.5 1012 1927.92 1012 1908 992.077 1908 967.5Z" fill="#FFFFFF" fill-rule="evenodd"/></g></svg>