<svg width="635" height="625" xmlns="http://www.w3.org/2000/svg" xmlns:xlink="http://www.w3.org/1999/xlink" xml:space="preserve" overflow="hidden"><defs><clipPath id="clip0"><rect x="7437" y="2390" width="635" height="625"/></clipPath></defs><g clip-path="url(#clip0)" transform="translate(-7437 -2390)"><path d="M7609.5 2446C7609.5 2416.45 7633.68 2392.5 7663.5 2392.5 7693.32 2392.5 7717.5 2416.45 7717.5 2446 7717.5 2475.55 7693.32 2499.5 7663.5 2499.5 7633.68 2499.5 7609.5 2475.55 7609.5 2446Z" stroke="#000000" stroke-width="4.58333" stroke-miterlimit="8" fill-rule="evenodd"/><path d="M7439.5 2620.5C7439.5 2590.68 7463.45 2566.5 7493 2566.5 7522.55 2566.5 7546.5 2590.68 7546.5 2620.5 7546.5 2650.32 7522.55 2674.5 7493 2674.5 7463.45 2674.5 7439.5 2650.32 7439.5 2620.5Z" stroke="#000000" stroke-width="4.58333" stroke-miterlimit="8" fill-rule="evenodd"/><path d="M7450.5 2943.5C7450.5 2913.68 7474.45 2889.5 7504 2889.5 7533.55 2889.5 7557.5 2913.68 7557.5 2943.5 7557.5 2973.32 7533.55 2997.5 7504 2997.5 7474.45 2997.5 7450.5 2973.32 7450.5 2943.5Z" stroke="#000000" stroke-width="4.58333" stroke-miterlimit="8" fill-rule="evenodd"/><path d="M7772.5 2957C7772.5 2927.45 7796.45 2903.5 7826 2903.5 7855.55 2903.5 7879.5 2927.45 7879.5 2957 7879.5 2986.55 7855.55 3010.5 7826 3010.5 7796.45 3010.5 7772.5 2986.55 7772.5 2957Z" stroke="#000000" stroke-width="4.58333" stroke-miterlimit="8" fill-rule="evenodd"/><path d="M7772.5 2959C7772.5 2929.45 7796.45 2905.5 7826 2905.5 7855.55 2905.5 7879.5 2929.45 7879.5 2959 7879.5 2988.55 7855.55 3012.5 7826 3012.5 7796.45 3012.5 7772.5 2988.55 7772.5 2959Z" stroke="#000000" stroke-width="4.58333" stroke-miterlimit="8" fill-rule="evenodd"/><path d="M7954.5 2779C7954.5 2749.45 7978.45 2725.5 8008 2725.5 8037.55 2725.5 8061.5 2749.45 8061.5 2779 8061.5 2808.55 8037.55 2832.5 8008 2832.5 7978.45 2832.5 7954.5 2808.55 7954.5 2779Z" stroke="#000000" stroke-width="4.58333" stroke-miterlimit="8" fill-rule="evenodd"/><path d="M7962.5 2449C7962.5 2419.45 7986.45 2395.5 8016 2395.5 8045.55 2395.5 8069.5 2419.45 8069.5 2449 8069.5 2478.55 8045.55 2502.5 8016 2502.5 7986.45 2502.5 7962.5 2478.55 7962.5 2449Z" stroke="#000000" stroke-width="4.58333" stroke-miterlimit="8" fill-rule="evenodd"/><rect x="7496.5" y="2445.5" width="513" height="495" stroke="#000000" stroke-width="36.6667" stroke-linecap="square" stroke-miterlimit="8" fill="none"/></g></svg>