<svg width="636" height="627" xmlns="http://www.w3.org/2000/svg" xmlns:xlink="http://www.w3.org/1999/xlink" xml:space="preserve" overflow="hidden"><defs><clipPath id="clip0"><rect x="6514" y="2389" width="636" height="627"/></clipPath></defs><g clip-path="url(#clip0)" transform="translate(-6514 -2389)"><path d="M0 0 342.438 0 515 172.562 515 508 515 508 172.562 508 0 335.437 0 0Z" stroke="#000000" stroke-width="32.0833" stroke-miterlimit="8" fill="#FFC000" fill-rule="evenodd" transform="matrix(1 0 0 -1 6575 2955)"/><path d="M6686.5 2445C6686.5 2415.45 6710.68 2391.5 6740.5 2391.5 6770.32 2391.5 6794.5 2415.45 6794.5 2445 6794.5 2474.55 6770.32 2498.5 6740.5 2498.5 6710.68 2498.5 6686.5 2474.55 6686.5 2445Z" stroke="#000000" stroke-width="4.58333" stroke-miterlimit="8" fill-rule="evenodd"/><path d="M6516.5 2619C6516.5 2589.45 6540.45 2565.5 6570 2565.5 6599.55 2565.5 6623.5 2589.45 6623.5 2619 6623.5 2648.55 6599.55 2672.5 6570 2672.5 6540.45 2672.5 6516.5 2648.55 6516.5 2619Z" stroke="#000000" stroke-width="4.58333" stroke-miterlimit="8" fill-rule="evenodd"/><path d="M6527.5 2942.5C6527.5 2912.68 6551.45 2888.5 6581 2888.5 6610.55 2888.5 6634.5 2912.68 6634.5 2942.5 6634.5 2972.32 6610.55 2996.5 6581 2996.5 6551.45 2996.5 6527.5 2972.32 6527.5 2942.5Z" stroke="#000000" stroke-width="4.58333" stroke-miterlimit="8" fill-rule="evenodd"/><path d="M6849.5 2956C6849.5 2926.45 6873.45 2902.5 6903 2902.5 6932.55 2902.5 6956.5 2926.45 6956.5 2956 6956.5 2985.55 6932.55 3009.5 6903 3009.5 6873.45 3009.5 6849.5 2985.55 6849.5 2956Z" stroke="#000000" stroke-width="4.58333" stroke-miterlimit="8" fill-rule="evenodd"/><path d="M6849.5 2960C6849.5 2930.45 6873.45 2906.5 6903 2906.5 6932.55 2906.5 6956.5 2930.45 6956.5 2960 6956.5 2989.55 6932.55 3013.5 6903 3013.5 6873.45 3013.5 6849.5 2989.55 6849.5 2960Z" stroke="#000000" stroke-width="4.58333" stroke-miterlimit="8" fill-rule="evenodd"/><path d="M7031.5 2778C7031.5 2748.45 7055.45 2724.5 7085 2724.5 7114.55 2724.5 7138.5 2748.45 7138.5 2778 7138.5 2807.55 7114.55 2831.5 7085 2831.5 7055.45 2831.5 7031.5 2807.55 7031.5 2778Z" stroke="#000000" stroke-width="4.58333" stroke-miterlimit="8" fill-rule="evenodd"/><path d="M7039.5 2448C7039.5 2418.45 7063.68 2394.5 7093.5 2394.5 7123.32 2394.5 7147.5 2418.45 7147.5 2448 7147.5 2477.55 7123.32 2501.5 7093.5 2501.5 7063.68 2501.5 7039.5 2477.55 7039.5 2448Z" stroke="#000000" stroke-width="4.58333" stroke-miterlimit="8" fill-rule="evenodd"/></g></svg>