<svg width="677" height="687" xmlns="http://www.w3.org/2000/svg" xmlns:xlink="http://www.w3.org/1999/xlink" xml:space="preserve" overflow="hidden"><defs><clipPath id="clip0"><rect x="6296" y="271" width="677" height="687"/></clipPath></defs><g clip-path="url(#clip0)" transform="translate(-6296 -271)"><path d="M0 0 380.415 0 572 191.585 572 564 572 564 191.585 564 0 372.415 0 0Z" stroke="#000000" stroke-width="36.6667" stroke-miterlimit="8" fill="#FFE979" fill-rule="evenodd" transform="matrix(1 0 0 -1 6351.5 900.5)"/><path d="M14.7238-14.443 567.843 549.429 538.395 578.315-14.7238 14.443ZM-44.1714 43.329C-68.1013 18.9338-67.7242-20.2414-43.329-44.1714-18.9338-68.1013 20.2414-67.7242 44.1714-43.329 68.1013-18.9338 67.7242 20.2414 43.329 44.1714 18.9338 68.1013-20.2414 67.7242-44.1714 43.329ZM597.29 520.543C621.22 544.939 620.843 584.114 596.448 608.044 572.053 631.974 532.877 631.597 508.947 607.201 485.017 582.806 485.395 543.631 509.79 519.701 534.185 495.771 573.36 496.148 597.29 520.543Z" transform="matrix(1 0 0 -1 6357.5 896.372)"/></g></svg>