<svg width="595" height="587" xmlns="http://www.w3.org/2000/svg" xmlns:xlink="http://www.w3.org/1999/xlink" xml:space="preserve" overflow="hidden"><defs><clipPath id="clip0"><rect x="4689" y="3707" width="595" height="587"/></clipPath></defs><g clip-path="url(#clip0)" transform="translate(-4689 -3707)"><rect x="4700.5" y="3718.5" width="572" height="564" stroke="#385723" stroke-width="22.9167" stroke-linecap="square" stroke-miterlimit="8" fill="#385723"/><path d="M0 0 381.415 0 573 191.585 573 564 573 564 191.585 564 0 372.415 0 0Z" fill="#C5E0B4" fill-rule="evenodd" transform="matrix(1 0 0 -1 4700 4280)"/><rect x="4892.21" y="3718" width="379.789" height="371.789" fill="#C5E0B4"/><path d="M4892.21 4089.79 4700 4282 4700 3910.21 4892.21 3718Z" fill="#9EB491" fill-rule="evenodd"/><path d="M5272 4089.79 5079.79 4282 4700 4282 4892.21 4089.79Z" fill="#D0E6C3" fill-rule="evenodd"/><path d="M5272 4089.79 5079.79 4282 4700 4282 4700 3910.21 4892.21 3718 5272 3718ZM5272 4089.79 4892.21 4089.79 4700 4282M4892.21 4089.79 4892.21 3718" stroke="#385723" stroke-width="13.75" stroke-miterlimit="8" fill="none" fill-rule="evenodd"/></g></svg>