<svg width="605" height="596" xmlns="http://www.w3.org/2000/svg" xmlns:xlink="http://www.w3.org/1999/xlink" xml:space="preserve" overflow="hidden"><defs><clipPath id="clip0"><rect x="3872" y="370" width="605" height="596"/></clipPath></defs><g clip-path="url(#clip0)" transform="translate(-3872 -370)"><rect x="3889" y="386" width="572" height="564" stroke="#000000" stroke-width="32.0833" stroke-linecap="square" stroke-miterlimit="8"/><path d="M0 0 380.415 0 572 191.585 572 564 572 564 191.585 564 0 372.415 0 0Z" stroke="#000000" stroke-width="13.75" stroke-linecap="square" stroke-miterlimit="8" fill="#C5E0B4" fill-rule="evenodd" transform="matrix(1 0 0 -1 3889 948)"/><rect x="4080.21" y="386" width="380.789" height="371.789" fill="#FFE979"/><path d="M4080.21 757.789 3888 950 3888 578.211 4080.21 386Z" fill="#CDBB61" fill-rule="evenodd"/><path d="M4461 757.789 4268.79 950 3888 950 4080.21 757.789Z" fill="#FFED93" fill-rule="evenodd"/><path d="M4461 757.789 4268.79 950 3888 950 3888 578.211 4080.21 386 4461 386ZM4461 757.789 4080.21 757.789 3888 950M4080.21 757.789 4080.21 386" stroke="#000000" stroke-width="32.0833" stroke-miterlimit="8" fill="none" fill-rule="evenodd"/></g></svg>