<svg width="595" height="590" xmlns="http://www.w3.org/2000/svg" xmlns:xlink="http://www.w3.org/1999/xlink" xml:space="preserve" overflow="hidden"><defs><clipPath id="clip0"><rect x="4653" y="2089" width="595" height="590"/></clipPath></defs><g clip-path="url(#clip0)" transform="translate(-4653 -2089)"><path d="M5236 2475.06 5041.06 2670 4664 2670 4664 2292.94 4858.94 2098 5236 2098ZM5236 2475.06 4858.94 2475.06 4664 2670M4858.94 2475.06 4858.94 2098" stroke="#385723" stroke-width="18.3333" stroke-miterlimit="8" fill="none" fill-rule="evenodd"/><path d="M4794 2461C4794 2420.13 4826.91 2387 4867.5 2387 4908.09 2387 4941 2420.13 4941 2461 4941 2501.87 4908.09 2535 4867.5 2535 4826.91 2535 4794 2501.87 4794 2461Z" fill="#385723" fill-rule="evenodd"/><path d="M0 0 380.415 0 572 191.585 572 564 572 564 191.585 564 0 372.415 0 0Z" stroke="#385723" stroke-width="22.9167" stroke-miterlimit="8" fill="none" fill-rule="evenodd" transform="matrix(1 0 0 -1 4664.5 2665.5)"/></g></svg>