<svg width="604" height="600" xmlns="http://www.w3.org/2000/svg" xmlns:xlink="http://www.w3.org/1999/xlink" xml:space="preserve" overflow="hidden"><defs><clipPath id="clip0"><rect x="2422" y="370" width="604" height="600"/></clipPath></defs><g clip-path="url(#clip0)" transform="translate(-2422 -370)"><path d="M3010 761.063 2815.06 956 2438 956 2438 578.938 2632.94 384.001 3010 384.001ZM3010 761.063 2632.94 761.063 2438 956M2632.94 761.063 2632.94 384.001" stroke="#000000" stroke-width="27.5" stroke-miterlimit="8" fill="none" fill-rule="evenodd"/><path d="M2568 747C2568 706.131 2601.13 673 2642 673 2682.87 673 2716 706.131 2716 747 2716 787.869 2682.87 821 2642 821 2601.13 821 2568 787.869 2568 747Z" stroke="#000000" stroke-width="27.5" stroke-miterlimit="8" fill="#FFE979" fill-rule="evenodd"/><path d="M0 0 380.415 0 572 191.585 572 564 572 564 191.585 564 0 372.415 0 0Z" stroke="#000000" stroke-width="32.0833" stroke-miterlimit="8" fill="none" fill-rule="evenodd" transform="matrix(1 0 0 -1 2438 950)"/></g></svg>