<svg width="1466" height="1487" xmlns="http://www.w3.org/2000/svg" xmlns:xlink="http://www.w3.org/1999/xlink" xml:space="preserve" overflow="hidden"><defs><clipPath id="clip0"><rect x="4498" y="2427" width="1466" height="1487"/></clipPath></defs><g clip-path="url(#clip0)" transform="translate(-4498 -2427)"><path d="M4769 3189C4769 2926.66 4981.89 2714 5244.5 2714 5507.11 2714 5720 2926.66 5720 3189 5720 3451.34 5507.11 3664 5244.5 3664 4981.89 3664 4769 3451.34 4769 3189Z" fill-rule="evenodd"/><path d="M4534.5 3171C4534.5 2786.33 4846.33 2474.5 5231 2474.5 5615.67 2474.5 5927.5 2786.33 5927.5 3171 5927.5 3555.67 5615.67 3867.5 5231 3867.5 4846.33 3867.5 4534.5 3555.67 4534.5 3171Z" stroke="#000000" stroke-width="73.3333" stroke-miterlimit="8" fill="none" fill-rule="evenodd"/><path d="M5036 3210.5C5036 3084.86 5137.63 2983 5263 2983 5388.37 2983 5490 3084.86 5490 3210.5 5490 3336.14 5388.37 3438 5263 3438 5137.63 3438 5036 3336.14 5036 3210.5Z" fill-rule="evenodd"/><path d="M5022.79 2431.14C5076.76 2416.12 5132.68 2447.7 5147.7 2501.67 5162.71 2555.65 5131.13 2611.57 5077.16 2626.59 5023.19 2641.6 4967.27 2610.02 4952.25 2556.05 4937.23 2502.08 4968.81 2446.16 5022.79 2431.14Z" fill-rule="evenodd"/><path d="M5147.7 2501.68 5248.12 3177.65C5242.25 3178.72 5259.48 3175.65 5230.7 3183.59L4952.25 2556.05 5147.7 2501.68Z" fill-rule="evenodd"/><path d="M5810.64 2820.3C5847.28 2862.68 5842.63 2926.73 5800.26 2963.38 5757.88 3000.02 5693.83 2995.37 5657.18 2953 5620.54 2910.63 5625.19 2846.57 5667.56 2809.93 5709.94 2773.28 5773.99 2777.93 5810.64 2820.3Z" fill-rule="evenodd"/><path d="M5800.26 2963.38 5232.06 3343.09C5228.59 3338.24 5238.72 3352.51 5219.24 3329.88L5667.56 2809.93 5800.26 2963.38Z" fill-rule="evenodd"/><path d="M4523 3221C4523 3165.22 4568.44 3120 4624.5 3120 4680.56 3120 4726 3165.22 4726 3221 4726 3276.78 4680.56 3322 4624.5 3322 4568.44 3322 4523 3276.78 4523 3221Z" fill-rule="evenodd"/><path d="M4624 3120 5302.95 3204.08C5302.4 3209.99 5304.07 3192.64 5304 3222.38L4624 3322 4624 3120Z" fill-rule="evenodd"/><path d="M5777.28 3653.19C5738.73 3693.84 5674.53 3695.54 5633.88 3657 5593.22 3618.45 5591.52 3554.25 5630.06 3513.6 5668.61 3472.95 5732.81 3471.24 5773.46 3509.79 5814.11 3548.33 5815.82 3612.53 5777.28 3653.19Z" fill-rule="evenodd"/><path d="M5633.88 3657 5199.87 3129.11C5204.35 3125.18 5191.15 3136.67 5211.75 3115.05L5773.46 3509.79 5633.88 3657Z" fill-rule="evenodd"/><path d="M5000.36 3907.87C4947.54 3889.19 4919.87 3831.23 4938.55 3778.42 4957.23 3725.6 5015.19 3697.93 5068 3716.61 5120.82 3735.29 5148.49 3793.25 5129.81 3846.06 5111.13 3898.88 5053.17 3926.55 5000.36 3907.87Z" fill-rule="evenodd"/><path d="M4938.55 3778.42 5244.29 3167.23C5249.71 3169.72 5233.84 3162.34 5261.97 3172.36L5129.81 3846.06 4938.55 3778.42Z" fill-rule="evenodd"/><path d="M5099 3204.5C5099 3114.75 5171.53 3042 5261 3042 5350.47 3042 5423 3114.75 5423 3204.5 5423 3294.25 5350.47 3367 5261 3367 5171.53 3367 5099 3294.25 5099 3204.5Z" fill="#FFC000" fill-rule="evenodd"/><path d="M5670 2881.5C5670 2846.43 5698.43 2818 5733.5 2818 5768.57 2818 5797 2846.43 5797 2881.5 5797 2916.57 5768.57 2945 5733.5 2945 5698.43 2945 5670 2916.57 5670 2881.5Z" fill="#FFC000" fill-rule="evenodd"/><path d="M4986 2528.5C4986 2493.43 5014.65 2465 5050 2465 5085.35 2465 5114 2493.43 5114 2528.5 5114 2563.57 5085.35 2592 5050 2592 5014.65 2592 4986 2563.57 4986 2528.5Z" fill="#FFC000" fill-rule="evenodd"/><path d="M4568 3220.5C4568 3185.43 4596.43 3157 4631.5 3157 4666.57 3157 4695 3185.43 4695 3220.5 4695 3255.57 4666.57 3284 4631.5 3284 4596.43 3284 4568 3255.57 4568 3220.5Z" fill="#FFC000" fill-rule="evenodd"/><path d="M5640 3576.5C5640 3541.43 5668.43 3513 5703.5 3513 5738.57 3513 5767 3541.43 5767 3576.5 5767 3611.57 5738.57 3640 5703.5 3640 5668.43 3640 5640 3611.57 5640 3576.5Z" fill="#FFC000" fill-rule="evenodd"/><path d="M4964 3812.5C4964 3777.43 4992.43 3749 5027.5 3749 5062.57 3749 5091 3777.43 5091 3812.5 5091 3847.57 5062.57 3876 5027.5 3876 4992.43 3876 4964 3847.57 4964 3812.5Z" fill="#FFC000" fill-rule="evenodd"/></g></svg>