<svg width="1575" height="1575" xmlns="http://www.w3.org/2000/svg" xmlns:xlink="http://www.w3.org/1999/xlink" xml:space="preserve" overflow="hidden"><defs><clipPath id="clip0"><rect x="66" y="3003" width="1575" height="1575"/></clipPath></defs><g clip-path="url(#clip0)" transform="translate(-66 -3003)"><path d="M68.4999 3790.5C68.4999 3356.96 419.956 3005.5 853.5 3005.5 1287.04 3005.5 1638.5 3356.96 1638.5 3790.5 1638.5 4224.04 1287.04 4575.5 853.5 4575.5 419.956 4575.5 68.4999 4224.04 68.4999 3790.5Z" stroke="#2F528F" stroke-width="4.58333" stroke-miterlimit="8" fill-rule="evenodd"/><path d="M0 227.162C-2.89207e-14 101.704 101.704-2.89207e-14 227.162-5.78415e-14 352.62-1.15683e-13 454.324 101.704 454.324 227.162 454.324 352.62 352.62 454.324 227.162 454.324 101.704 454.324-1.44604e-13 352.62 0 227.162Z" fill="#FFFFFF" fill-rule="evenodd" transform="matrix(0.290665 -0.956825 -0.956825 -0.290665 1000.58 4035.97)"/><path d="M0 101.435C-1.2914e-14 45.4139 45.414-1.2914e-14 101.435-2.5828e-14 157.456-5.1656e-14 202.87 45.4139 202.87 101.435 202.87 157.456 157.456 202.87 101.435 202.87 45.414 202.87-6.45701e-14 157.456 0 101.435Z" fill="#FFFFFF" fill-rule="evenodd" transform="matrix(-0.843902 -0.536497 -0.536497 0.843902 1579.4 4123.6)"/><path d="M0 0 678.159 84.4391C677.61 90.3797 679.279 72.9572 679.211 102.819L0 202.87 0 0Z" fill="#FFFFFF" fill-rule="evenodd" transform="matrix(-0.843902 -0.536497 -0.536497 0.843902 1493.8 4069.18)"/><path d="M0 101.435C-1.2914e-14 45.4139 45.414-1.2914e-14 101.435-2.5828e-14 157.456-5.1656e-14 202.87 45.4139 202.87 101.435 202.87 157.456 157.456 202.87 101.435 202.87 45.414 202.87-6.45701e-14 157.456 0 101.435Z" fill="#FFFFFF" fill-rule="evenodd" transform="matrix(-0.845719 0.533629 0.533629 0.845719 1327.49 3256.46)"/><path d="M0 0 678.159 84.4391C677.61 90.3797 679.279 72.9572 679.211 102.819L0 202.87 0 0Z" fill="#FFFFFF" fill-rule="evenodd" transform="matrix(-0.845719 0.533629 0.533629 0.845719 1241.71 3310.59)"/><path d="M0 101.435C-1.2914e-14 45.4139 45.414-1.2914e-14 101.435-2.5828e-14 157.456-5.1656e-14 202.87 45.4139 202.87 101.435 202.87 157.456 157.456 202.87 101.435 202.87 45.414 202.87-6.45701e-14 157.456 0 101.435Z" fill="#FFFFFF" fill-rule="evenodd" transform="matrix(0.290665 -0.956825 -0.956825 -0.290665 721.062 4487.31)"/><path d="M0 0 678.159 84.4391C677.61 90.3797 679.279 72.9572 679.211 102.819L0 202.87 0 0Z" fill="#FFFFFF" fill-rule="evenodd" transform="matrix(0.290665 -0.956825 -0.956825 -0.290665 750.545 4390.25)"/><path d="M0 101.435C-1.2914e-14 45.4139 45.414-1.2914e-14 101.435-2.5828e-14 157.456-5.1656e-14 202.87 45.4139 202.87 101.435 202.87 157.456 157.456 202.87 101.435 202.87 45.414 202.87-6.45701e-14 157.456 0 101.435Z" fill="#FFFFFF" fill-rule="evenodd" transform="matrix(0.447431 0.894319 0.894319 -0.447431 484.288 3177.47)"/><path d="M0 0 678.159 84.4391C677.61 90.3797 679.279 72.9572 679.211 102.819L0 202.87 0 0Z" fill="#FFFFFF" fill-rule="evenodd" transform="matrix(0.447431 0.894319 0.894319 -0.447431 529.673 3268.18)"/><path d="M0 101.435C-1.2914e-14 45.4139 45.414-1.2914e-14 101.435-2.5828e-14 157.456-5.1656e-14 202.87 45.4139 202.87 101.435 202.87 157.456 157.456 202.87 101.435 202.87 45.414 202.87-6.45701e-14 157.456 0 101.435Z" fill="#FFFFFF" fill-rule="evenodd" transform="matrix(0.998986 -0.0450276 -0.0450276 -0.998986 110.06 3902.76)"/><path d="M0 0 678.159 84.4391C677.61 90.3797 679.279 72.9572 679.211 102.819L0 202.87 0 0Z" fill="#FFFFFF" fill-rule="evenodd" transform="matrix(0.998986 -0.0450276 -0.0450276 -0.998986 211.392 3898.19)"/><path d="M0 162.057C-2.0632e-14 72.5554 72.5554-2.0632e-14 162.057-4.12641e-14 251.559-8.25281e-14 324.114 72.5554 324.114 162.057 324.114 251.559 251.559 324.114 162.057 324.114 72.5554 324.114-1.0316e-13 251.559 0 162.057Z" fill="#FFC000" fill-rule="evenodd" transform="matrix(0.290665 -0.956825 -0.956825 -0.290665 962.295 3958.35)"/><path d="M0 63.5283C-8.08799e-15 28.4426 28.4426-8.08799e-15 63.5283-1.6176e-14 98.6139-3.2352e-14 127.057 28.4426 127.057 63.5283 127.057 98.6139 98.6139 127.057 63.5283 127.057 28.4426 127.057-4.044e-14 98.6139 0 63.5283Z" fill="#FFC000" fill-rule="evenodd" transform="matrix(0.290665 -0.956825 -0.956825 -0.290665 1343.43 3477.23)"/><path d="M0 63.5283C-8.08799e-15 28.4426 28.4426-8.08799e-15 63.5283-1.6176e-14 98.6139-3.2352e-14 127.057 28.4426 127.057 63.5283 127.057 98.6139 98.6139 127.057 63.5283 127.057 28.4426 127.057-4.044e-14 98.6139 0 63.5283Z" fill="#FFC000" fill-rule="evenodd" transform="matrix(0.290665 -0.956825 -0.956825 -0.290665 1481.7 4234.03)"/><path d="M0 63.5283C-8.08799e-15 28.4426 28.4426-8.08799e-15 63.5283-1.6176e-14 98.6139-3.2352e-14 127.057 28.4426 127.057 63.5283 127.057 98.6139 98.6139 127.057 63.5283 127.057 28.4426 127.057-4.044e-14 98.6139 0 63.5283Z" fill="#FFC000" fill-rule="evenodd" transform="matrix(0.290665 -0.956825 -0.956825 -0.290665 697.774 4433.55)"/><path d="M0 63.5283C-8.08799e-15 28.4426 28.4426-8.08799e-15 63.5283-1.6176e-14 98.6139-3.2352e-14 127.057 28.4426 127.057 63.5283 127.057 98.6139 98.6139 127.057 63.5283 127.057 28.4426 127.057-4.044e-14 98.6139 0 63.5283Z" fill="#FFC000" fill-rule="evenodd" transform="matrix(0.290665 -0.956825 -0.956825 -0.290665 669.05 3303.97)"/><path d="M0 63.5283C-8.08799e-15 28.4426 28.4426-8.08799e-15 63.5283-1.6176e-14 98.6139-3.2352e-14 127.057 28.4426 127.057 63.5283 127.057 98.6139 98.6139 127.057 63.5283 127.057 28.4426 127.057-4.044e-14 98.6139 0 63.5283Z" fill="#FFC000" fill-rule="evenodd" transform="matrix(0.290665 -0.956825 -0.956825 -0.290665 247.229 3882.42)"/></g></svg>