<svg width="1313" height="1488" xmlns="http://www.w3.org/2000/svg" xmlns:xlink="http://www.w3.org/1999/xlink" xml:space="preserve" overflow="hidden"><defs><clipPath id="clip0"><rect x="5416" y="795" width="1313" height="1488"/></clipPath></defs><g clip-path="url(#clip0)" transform="translate(-5416 -795)"><path d="M5703.5 1548.5C5703.5 1311.57 5895.35 1119.5 6132 1119.5 6368.65 1119.5 6560.5 1311.57 6560.5 1548.5 6560.5 1785.43 6368.65 1977.5 6132 1977.5 5895.35 1977.5 5703.5 1785.43 5703.5 1548.5Z" stroke="#000000" stroke-width="73.3333" stroke-miterlimit="8" fill="none" fill-rule="evenodd"/><path d="M5929 1579C5929 1453.63 6030.63 1352 6156 1352 6281.37 1352 6383 1453.63 6383 1579 6383 1704.37 6281.37 1806 6156 1806 6030.63 1806 5929 1704.37 5929 1579Z" fill-rule="evenodd"/><path d="M5915.62 799.673C5969.59 784.657 6025.51 816.236 6040.53 870.207 6055.54 924.178 6023.96 980.103 5969.99 995.119 5916.02 1010.14 5860.1 978.556 5845.08 924.585 5830.07 870.614 5861.65 814.689 5915.62 799.673Z" fill-rule="evenodd"/><path d="M6040.53 870.208 6140.95 1546.18C6135.08 1547.25 6152.31 1544.19 6123.53 1552.12L5845.08 924.585 6040.53 870.208Z" fill-rule="evenodd"/><path d="M6703.47 1188.84C6740.11 1231.21 6735.47 1295.27 6693.09 1331.91 6650.72 1368.55 6586.66 1363.91 6550.02 1321.53 6513.37 1279.16 6518.02 1215.1 6560.39 1178.46 6602.77 1141.81 6666.83 1146.46 6703.47 1188.84Z" fill-rule="evenodd"/><path d="M6693.09 1331.91 6124.89 1711.62C6121.42 1706.77 6131.56 1721.04 6112.08 1698.41L6560.39 1178.46 6693.09 1331.91Z" fill-rule="evenodd"/><path d="M5416 1589.5C5416 1533.44 5461.44 1488 5517.5 1488 5573.56 1488 5619 1533.44 5619 1589.5 5619 1645.56 5573.56 1691 5517.5 1691 5461.44 1691 5416 1645.56 5416 1589.5Z" fill-rule="evenodd"/><path d="M5517 1488 6194.95 1572.49C6194.4 1578.44 6196.07 1561 6196 1590.89L5517 1691 5517 1488Z" fill-rule="evenodd"/><path d="M6670.11 2021.72C6631.56 2062.37 6567.36 2064.08 6526.71 2025.53 6486.05 1986.99 6484.35 1922.78 6522.89 1882.13 6561.44 1841.48 6625.64 1839.77 6666.29 1878.32 6706.94 1916.86 6708.65 1981.07 6670.11 2021.72Z" fill-rule="evenodd"/><path d="M6526.71 2025.53 6092.7 1497.64C6097.18 1493.71 6083.98 1505.21 6104.58 1483.58L6666.29 1878.32 6526.71 2025.53Z" fill-rule="evenodd"/><path d="M5893.19 2276.4C5840.37 2257.72 5812.7 2199.76 5831.38 2146.95 5850.06 2094.13 5908.02 2066.46 5960.83 2085.14 6013.65 2103.82 6041.32 2161.78 6022.64 2214.6 6003.96 2267.41 5946 2295.08 5893.19 2276.4Z" fill-rule="evenodd"/><path d="M5831.38 2146.95 6137.12 1535.76C6142.54 1538.26 6126.67 1530.87 6154.8 1540.9L6022.64 2214.6 5831.38 2146.95Z" fill-rule="evenodd"/><path d="M5992 1573C5992 1483.53 6064.53 1411 6154 1411 6243.47 1411 6316 1483.53 6316 1573 6316 1662.47 6243.47 1735 6154 1735 6064.53 1735 5992 1662.47 5992 1573Z" fill="#FFC000" fill-rule="evenodd"/><path d="M6563 1249.5C6563 1214.43 6591.43 1186 6626.5 1186 6661.57 1186 6690 1214.43 6690 1249.5 6690 1284.57 6661.57 1313 6626.5 1313 6591.43 1313 6563 1284.57 6563 1249.5Z" fill="#FFC000" fill-rule="evenodd"/><path d="M5879 897.5C5879 862.43 5907.43 834 5942.5 834 5977.57 834 6006 862.43 6006 897.5 6006 932.57 5977.57 961 5942.5 961 5907.43 961 5879 932.57 5879 897.5Z" fill="#FFC000" fill-rule="evenodd"/><path d="M5461 1589.5C5461 1554.43 5489.43 1526 5524.5 1526 5559.57 1526 5588 1554.43 5588 1589.5 5588 1624.57 5559.57 1653 5524.5 1653 5489.43 1653 5461 1624.57 5461 1589.5Z" fill="#FFC000" fill-rule="evenodd"/><path d="M6533 1945.5C6533 1910.43 6561.43 1882 6596.5 1882 6631.57 1882 6660 1910.43 6660 1945.5 6660 1980.57 6631.57 2009 6596.5 2009 6561.43 2009 6533 1980.57 6533 1945.5Z" fill="#FFC000" fill-rule="evenodd"/><path d="M5857 2180.5C5857 2145.43 5885.43 2117 5920.5 2117 5955.57 2117 5984 2145.43 5984 2180.5 5984 2215.57 5955.57 2244 5920.5 2244 5885.43 2244 5857 2215.57 5857 2180.5Z" fill="#FFC000" fill-rule="evenodd"/></g></svg>