<svg width="1313" height="1487" xmlns="http://www.w3.org/2000/svg" xmlns:xlink="http://www.w3.org/1999/xlink" xml:space="preserve" overflow="hidden"><defs><clipPath id="clip0"><rect x="584" y="1393" width="1313" height="1487"/></clipPath></defs><g clip-path="url(#clip0)" transform="translate(-584 -1393)"><path d="M1097 2176.5C1097 2050.86 1198.86 1949 1324.5 1949 1450.14 1949 1552 2050.86 1552 2176.5 1552 2302.14 1450.14 2404 1324.5 2404 1198.86 2404 1097 2302.14 1097 2176.5Z" fill-rule="evenodd"/><path d="M1083.87 1397.12C1137.84 1382.1 1193.76 1413.68 1208.78 1467.65 1223.79 1521.63 1192.21 1577.55 1138.24 1592.57 1084.27 1607.58 1028.35 1576 1013.33 1522.03 998.315 1468.06 1029.89 1412.14 1083.87 1397.12Z" fill-rule="evenodd"/><path d="M1208.78 1467.65 1309.2 2143.63C1303.33 2144.7 1320.56 2141.63 1291.78 2149.57L1013.33 1522.03 1208.78 1467.65Z" fill-rule="evenodd"/><path d="M1871.72 1786.28C1908.36 1828.66 1903.71 1892.71 1861.34 1929.36 1818.96 1966 1754.91 1961.35 1718.27 1918.98 1681.62 1876.61 1686.27 1812.55 1728.64 1775.91 1771.02 1739.26 1835.07 1743.91 1871.72 1786.28Z" fill-rule="evenodd"/><path d="M1861.34 1929.36 1293.14 2309.07C1289.67 2304.22 1299.8 2318.49 1280.32 2295.85L1728.64 1775.91 1861.34 1929.36Z" fill-rule="evenodd"/><path d="M584 2186.5C584 2130.44 629.443 2085 685.5 2085 741.557 2085 787 2130.44 787 2186.5 787 2242.56 741.557 2288 685.5 2288 629.443 2288 584 2242.56 584 2186.5Z" fill-rule="evenodd"/><path d="M686 2085 1363.95 2169.49C1363.4 2175.44 1365.07 2158 1365 2187.89L686 2288 686 2085Z" fill-rule="evenodd"/><path d="M1838.36 2619.17C1799.81 2659.82 1735.61 2661.52 1694.96 2622.98 1654.3 2584.43 1652.6 2520.23 1691.14 2479.58 1729.69 2438.93 1793.89 2437.22 1834.54 2475.77 1875.19 2514.31 1876.9 2578.51 1838.36 2619.17Z" fill-rule="evenodd"/><path d="M1694.96 2622.98 1260.95 2095.09C1265.43 2091.16 1252.23 2102.65 1272.83 2081.03L1834.54 2475.77 1694.96 2622.98Z" fill-rule="evenodd"/><path d="M1061.44 2873.85C1008.62 2855.17 980.951 2797.21 999.631 2744.4 1018.31 2691.58 1076.27 2663.91 1129.08 2682.59 1181.9 2701.27 1209.57 2759.23 1190.89 2812.04 1172.21 2864.86 1114.25 2892.53 1061.44 2873.85Z" fill-rule="evenodd"/><path d="M999.631 2744.4 1305.37 2133.21C1310.79 2135.7 1294.92 2128.32 1323.05 2138.34L1190.89 2812.04 999.631 2744.4Z" fill-rule="evenodd"/><path d="M1160 2170.5C1160 2080.75 1232.53 2008 1322 2008 1411.47 2008 1484 2080.75 1484 2170.5 1484 2260.25 1411.47 2333 1322 2333 1232.53 2333 1160 2260.25 1160 2170.5Z" fill="#FFC000" fill-rule="evenodd"/><path d="M1731 1847.5C1731 1812.43 1759.65 1784 1795 1784 1830.35 1784 1859 1812.43 1859 1847.5 1859 1882.57 1830.35 1911 1795 1911 1759.65 1911 1731 1882.57 1731 1847.5Z" fill="#FFC000" fill-rule="evenodd"/><path d="M1048 1494.5C1048 1459.43 1076.43 1431 1111.5 1431 1146.57 1431 1175 1459.43 1175 1494.5 1175 1529.57 1146.57 1558 1111.5 1558 1076.43 1558 1048 1529.57 1048 1494.5Z" fill="#FFC000" fill-rule="evenodd"/><path d="M629 2186.5C629 2151.43 657.43 2123 692.5 2123 727.57 2123 756 2151.43 756 2186.5 756 2221.57 727.57 2250 692.5 2250 657.43 2250 629 2221.57 629 2186.5Z" fill="#FFC000" fill-rule="evenodd"/><path d="M1701 2542.5C1701 2507.43 1729.43 2479 1764.5 2479 1799.57 2479 1828 2507.43 1828 2542.5 1828 2577.57 1799.57 2606 1764.5 2606 1729.43 2606 1701 2577.57 1701 2542.5Z" fill="#FFC000" fill-rule="evenodd"/><path d="M1025 2778.5C1025 2743.43 1053.43 2715 1088.5 2715 1123.57 2715 1152 2743.43 1152 2778.5 1152 2813.57 1123.57 2842 1088.5 2842 1053.43 2842 1025 2813.57 1025 2778.5Z" fill="#FFC000" fill-rule="evenodd"/></g></svg>