<svg width="925" height="852" xmlns="http://www.w3.org/2000/svg" xmlns:xlink="http://www.w3.org/1999/xlink" xml:space="preserve" overflow="hidden"><defs><clipPath id="clip0"><rect x="4724" y="2597" width="925" height="852"/></clipPath></defs><g clip-path="url(#clip0)" transform="translate(-4724 -2597)"><rect x="4747" y="2620" width="286" height="670" stroke="#000000" stroke-width="45.8333" stroke-miterlimit="8" fill="#FFFFFF"/><path d="M5033 2620 5456.91 2620 5626 2789.09 5626 3290 5033 3290 5033 2620Z" stroke="#000000" stroke-width="45.8333" stroke-miterlimit="8" fill="#FFC000" fill-rule="evenodd"/><path d="M5201 2751 5413.31 2751 5498 2835.69 5498 3087 5201 3087 5201 2751Z" stroke="#000000" stroke-width="45.8333" stroke-miterlimit="8" fill="#FFFFFF" fill-rule="evenodd"/><path d="M5249.5 3297C5249.5 3228.24 5305.24 3172.5 5374 3172.5 5442.76 3172.5 5498.5 3228.24 5498.5 3297 5498.5 3365.76 5442.76 3421.5 5374 3421.5 5305.24 3421.5 5249.5 3365.76 5249.5 3297Z" stroke="#000000" stroke-width="55" stroke-miterlimit="8" fill="#FFFFFF" fill-rule="evenodd"/><path d="M4757.5 3297C4757.5 3228.24 4813.24 3172.5 4882 3172.5 4950.76 3172.5 5006.5 3228.24 5006.5 3297 5006.5 3365.76 4950.76 3421.5 4882 3421.5 4813.24 3421.5 4757.5 3365.76 4757.5 3297Z" stroke="#000000" stroke-width="55" stroke-miterlimit="8" fill="#FFFFFF" fill-rule="evenodd"/></g></svg>