<svg width="897" height="1014" xmlns="http://www.w3.org/2000/svg" xmlns:xlink="http://www.w3.org/1999/xlink" xml:space="preserve" overflow="hidden"><defs><radialGradient cx="-0.125" cy="-0.125" r="3072834" fx="0" fy="0" gradientUnits="userSpaceOnUse" spreadMethod="pad" id="fill0" gradientTransform="matrix(0.000360892 0 0 0.000360892 4712 1715)"><stop offset="0" stop-color="#0F5913"/><stop offset="0.5" stop-color="#1B8220"/><stop offset="1" stop-color="#229C28"/></radialGradient><linearGradient x1="4113.29" y1="2055.78" x2="4862.71" y2="2387.22" gradientUnits="userSpaceOnUse" spreadMethod="reflect" id="fill1"><stop offset="0" stop-color="#0F5913"/><stop offset="0.5" stop-color="#1B8220"/><stop offset="1" stop-color="#229C28"/></linearGradient></defs><g transform="translate(-4264 -1715)"><path d="M4712.32 1715 5161 1939.42 5161 2504.58 4712.32 2729 4712 2728.84 4712 1715.16 4712.32 1715Z" fill="url(#fill0)" fill-rule="evenodd"/><path d="M4712 1715 4712 2728 4264 2503.89 4264 1939.11 4712 1715Z" fill="url(#fill1)" fill-rule="evenodd"/><path d="M4668.55 1861.29 4672.64 2033.87 4582.73 1886.5Z" fill="#FFFFFF" fill-rule="evenodd"/><path d="M4344 2313.02C4564.12 2300.56 4787.8 2324.9 4980.82 2046 5081.03 2101.31 4990.4 2213.3 4876.23 2287.31 4794.92 2337.95 4615.04 2425.98 4344 2313.02Z" fill="#FFFFFF" fill-rule="evenodd"/><path d="M4713.22 1889.65 4772.57 1895.63C4914.91 1924.76 5021.99 2050.7 5021.99 2201.66 5021.99 2374.18 4882.13 2514.03 4709.61 2514.03 4580.22 2514.03 4469.21 2435.37 4421.78 2323.25L4421.24 2321.51 4447.14 2322.66C4464.87 2322.46 4481.53 2321.31 4497.07 2319.52L4499.49 2319.12 4510.7 2339.77C4555.09 2405.48 4630.27 2448.69 4715.54 2448.69 4851.97 2448.69 4962.57 2338.09 4962.57 2201.66 4962.57 2065.23 4851.97 1954.63 4715.54 1954.63L4713.22 1954.86 4713.22 1889.65Z" fill="#FFFFFF" fill-rule="evenodd"/><path d="M4671.8 1893.09 4671.8 1959.04 4665.75 1959.65C4553.19 1982.68 4468.51 2082.28 4468.51 2201.66 4468.51 2218.71 4470.24 2235.36 4473.53 2251.44L4477.77 2265.09 4449.87 2269.91 4405.93 2272.19 4403.58 2264.61C4399.42 2244.28 4397.24 2223.22 4397.24 2201.66 4397.24 2050.7 4504.31 1924.76 4646.66 1895.63L4671.8 1893.09Z" fill="#FFFFFF" fill-rule="evenodd"/><path d="M4672 2499.5C4672 2492.04 4678.04 2486 4685.5 2486L4739.5 2486C4746.96 2486 4753 2492.04 4753 2499.5L4753 2553.5C4753 2560.96 4746.96 2567 4739.5 2567L4685.5 2567C4678.04 2567 4672 2560.96 4672 2553.5Z" fill="#FFFFFF" fill-rule="evenodd"/><path d="M4583 2608 4597 2552 4828 2552 4842 2608Z" fill="#FFFFFF" fill-rule="evenodd"/></g></svg>