<svg width="792" height="775" xmlns="http://www.w3.org/2000/svg" xmlns:xlink="http://www.w3.org/1999/xlink" xml:space="preserve" overflow="hidden"><defs><clipPath id="clip0"><rect x="470" y="4317" width="792" height="775"/></clipPath></defs><g clip-path="url(#clip0)" transform="translate(-470 -4317)"><path d="M887.853 4324C909.843 4324 928.77 4331.83 944.632 4347.5 960.495 4363.16 972.522 4385.77 980.713 4415.31 988.905 4444.86 993 4479.7 993 4519.84L993 4558.47 931.618 4558.47 931.618 4519.84C931.618 4499.18 929.893 4481.75 926.445 4467.57 922.996 4453.39 918.036 4442.78 911.563 4435.75 905.09 4428.73 897.187 4425.22 887.853 4425.22 878.771 4425.22 871.048 4428.72 864.682 4435.72 858.317 4442.71 853.342 4453.3 849.758 4467.46 846.175 4481.63 844.383 4499.25 844.383 4520.34L844.383 4889.16C844.383 4910 846.169 4927.41 849.742 4941.38 853.315 4955.35 858.287 4965.92 864.659 4973.07 871.031 4980.22 878.762 4983.79 887.853 4983.79 897.262 4983.79 905.181 4980.23 911.612 4973.11 918.043 4965.98 922.985 4955.32 926.438 4941.12 929.891 4926.92 931.618 4909.6 931.618 4889.16L931.618 4850.04 993 4850.04 993 4889.16C993 4929.41 988.905 4964.31 980.713 4993.85 972.522 5023.39 960.522 5045.97 944.714 5061.58 928.906 5077.19 909.952 5085 887.853 5085 865.984 5085 847.176 5077.22 831.427 5061.67 815.678 5046.11 803.669 5023.62 795.402 4994.17 787.134 4964.73 783 4929.73 783 4889.16L783 4520.34C783 4479.54 787.132 4444.42 795.397 4414.99 803.661 4385.56 815.646 4363.04 831.35 4347.42 847.053 4331.81 865.888 4324 887.853 4324Z" stroke="#000000" stroke-width="13.75" stroke-linejoin="round" stroke-miterlimit="10" fill-rule="evenodd"/><path d="M1146.29 4324C1169.1 4324 1188.52 4330.87 1204.54 4344.62 1220.56 4358.36 1232.58 4378.75 1240.61 4405.78 1248.64 4432.81 1252.66 4465.51 1252.66 4503.87L1252.66 4551.98 1191.83 4551.98 1191.83 4505.87C1191.83 4478.02 1188.05 4457.28 1180.48 4443.66 1172.92 4430.03 1161.52 4423.22 1146.29 4423.22 1130.1 4423.22 1118.03 4429.72 1110.07 4442.73 1102.1 4455.73 1098.12 4475.11 1098.12 4500.88L1098.12 4541.3C1098.12 4559.7 1100.69 4575.22 1105.83 4587.85 1110.97 4600.49 1117.64 4611.01 1125.82 4619.41 1134 4627.82 1145.31 4637.85 1159.74 4649.51 1161.57 4650.67 1163.11 4651.84 1164.38 4653 1165.65 4654.16 1167.05 4655.23 1168.61 4656.23 1169.66 4657.12 1170.49 4657.8 1171.09 4658.25 1171.7 4658.7 1172.98 4659.74 1174.93 4661.36 1190.77 4674.08 1204.3 4687.36 1215.5 4701.21 1226.71 4715.06 1236.09 4734 1243.66 4758.02 1251.22 4782.04 1255 4812.12 1255 4848.24L1255 4904.14C1255 4942.87 1250.87 4975.78 1242.61 5002.88 1234.36 5029.97 1222.17 5050.43 1206.05 5064.26 1189.93 5078.09 1170.11 5085 1146.58 5085 1122.91 5085 1102.89 5078.2 1086.54 5064.61 1070.18 5051.02 1057.84 5030.63 1049.5 5003.45 1041.17 4976.27 1037 4943.17 1037 4904.14L1037 4858.02 1097.82 4858.02 1097.82 4902.63C1097.82 4930.57 1101.85 4951.33 1109.9 4964.91 1117.95 4978.49 1130.18 4985.29 1146.58 4985.29 1162.69 4985.29 1174.65 4978.48 1182.46 4964.88 1190.27 4951.28 1194.17 4930.53 1194.17 4902.63L1194.17 4849.23C1194.17 4831.14 1191.66 4815.55 1186.63 4802.46 1181.6 4789.37 1175.12 4778.39 1167.18 4769.52 1159.23 4760.65 1148.17 4750.56 1133.97 4739.26 1133.56 4738.88 1133.14 4738.55 1132.73 4738.27 1132.31 4737.99 1131.84 4737.62 1131.29 4737.19L1125.46 4732.22C1108.01 4718.12 1093.25 4704.1 1081.19 4690.15 1069.12 4676.2 1058.79 4656.95 1050.19 4632.39 1041.59 4607.84 1037.29 4577.31 1037.29 4540.81L1037.29 4501.87C1037.29 4463.49 1041.45 4431.01 1049.76 4404.43 1058.07 4377.85 1070.42 4357.8 1086.79 4344.28 1103.17 4330.76 1123.01 4324 1146.29 4324Z" stroke="#000000" stroke-width="13.75" stroke-linejoin="round" stroke-miterlimit="10" fill-rule="evenodd"/><path d="M588.571 4332 649.327 4332 749 5077 684.488 5077 664.382 4889.71 573.515 4889.71 553.41 5077 489 5077Z" stroke="#000000" stroke-width="13.75" stroke-miterlimit="8" fill-rule="evenodd"/><path d="M501.5 4672.23 596.228 4672.23 625.5 4577.5 654.772 4672.23 749.5 4672.23 672.863 4730.77 702.136 4825.5 625.5 4766.95 548.864 4825.5 578.137 4730.77Z" stroke="#000000" stroke-width="20.625" stroke-miterlimit="8" fill="#FFFFFF" fill-rule="evenodd"/></g></svg>