<svg width="508" height="569" xmlns="http://www.w3.org/2000/svg" xmlns:xlink="http://www.w3.org/1999/xlink" xml:space="preserve" overflow="hidden"><defs><clipPath id="clip0"><rect x="2809" y="955" width="508" height="569"/></clipPath></defs><g clip-path="url(#clip0)" transform="translate(-2809 -955)"><path d="M2823 969 3063 969 3303 969 3303 1209.67C3295.45 1335.31 3201.72 1392.33 3104.59 1470.8L3063.08 1505.92 3063.08 1505.95 3063.01 1506 3063 1505.99 3062.99 1506 3062.92 1505.95 3062.92 1505.92 3021.41 1470.8C2924.28 1392.33 2830.55 1335.31 2823 1209.67Z" stroke="#000000" stroke-width="27.5" stroke-miterlimit="8" fill="#FFFFFF" fill-rule="evenodd"/><path d="M2983.32 1362.98C2971.2 1317.11 2998.57 1270.11 3044.43 1257.99 3090.3 1245.88 3137.31 1273.24 3149.42 1319.11 3161.54 1364.98 3134.17 1411.98 3088.3 1424.1 3042.44 1436.21 2995.43 1408.85 2983.32 1362.98Z" stroke="#000000" stroke-width="36.6667" stroke-miterlimit="8" fill-rule="evenodd"/><path d="M3113.44 1198.38C3109.02 1172.14 3126.71 1147.28 3152.95 1142.85 3179.2 1138.43 3204.06 1156.12 3208.48 1182.37 3212.9 1208.61 3195.21 1233.47 3168.97 1237.89 3142.72 1242.32 3117.86 1224.63 3113.44 1198.38Z" stroke="#000000" stroke-width="36.6667" stroke-miterlimit="8" fill-rule="evenodd"/><path d="M3086.94 1058.65C3082.06 1033.7 3098.34 1009.52 3123.29 1004.64 3148.24 999.76 3172.42 1016.03 3177.29 1040.98 3182.17 1065.93 3165.9 1090.11 3140.95 1094.99 3116 1099.87 3091.82 1083.6 3086.94 1058.65Z" stroke="#000000" stroke-width="36.6667" stroke-miterlimit="8" fill-rule="evenodd"/><path d="M3141.5 1095.5 3153.5 1143.36" stroke="#000000" stroke-width="36.6667" stroke-miterlimit="8" fill-rule="evenodd"/><path d="M0 0 23.432 37.1697" stroke="#000000" stroke-width="36.6667" stroke-miterlimit="8" fill-rule="evenodd" transform="matrix(-1 0 0 1 3133.93 1230.5)"/></g></svg>