<svg width="879" height="879" xmlns="http://www.w3.org/2000/svg" xmlns:xlink="http://www.w3.org/1999/xlink" xml:space="preserve" overflow="hidden"><defs><clipPath id="clip0"><rect x="3193" y="1768" width="879" height="879"/></clipPath></defs><g clip-path="url(#clip0)" transform="translate(-3193 -1768)"><path d="M3193 2207.5C3193 1964.77 3389.77 1768 3632.5 1768 3875.23 1768 4072 1964.77 4072 2207.5 4072 2450.23 3875.23 2647 3632.5 2647 3389.77 2647 3193 2450.23 3193 2207.5Z" fill="#002060" fill-rule="evenodd"/><path d="M3490.39 1994.74 3763.4 1994 3763.4 1994 3870 1994 3870 2064.58 3520.14 2064.58 3490.39 2064.58 3468.4 2064.58 3468.4 2358.17 3799.6 2358.17 3799.6 2237.63 3597.16 2237.63 3597.16 2167.05 3870 2167.05 3870 2180.09 3870 2237.63 3870 2316.95C3870 2355.64 3863.07 2381.98 3849.2 2395.99 3835.33 2410 3809.2 2417 3770.8 2417L3497.2 2417C3458.53 2417 3432.33 2409.93 3418.6 2395.79 3404.87 2381.65 3398 2355.37 3398 2316.95L3398 2094.05C3398 2055.63 3404.87 2029.35 3418.6 2015.21 3425.47 2008.14 3435.45 2002.84 3448.55 1999.3L3490.39 1994.74Z" stroke="#FFFFFF" stroke-width="13.75" stroke-miterlimit="8" fill="#FFFFFF" fill-rule="evenodd"/></g></svg>