<svg width="536" height="537" xmlns="http://www.w3.org/2000/svg" xmlns:xlink="http://www.w3.org/1999/xlink" xml:space="preserve" overflow="hidden"><g transform="translate(-1044 -734)"><path d="M268 55.8333C150.75 55.8333 55.8333 150.75 55.8333 268 55.8333 385.25 150.75 480.167 268 480.167 385.25 480.167 480.167 385.25 480.167 268 480.167 150.75 385.25 55.8333 268 55.8333ZM78.1667 268C78.1667 218.308 97.15 173.642 128.417 139.583 133.442 142.375 138.467 146.842 139.583 150.75L139.583 185.925C139.583 188.158 140.142 190.95 141.817 192.625L178.667 240.083 181.458 237.292C183.133 235.617 183.692 232.825 182.575 230.592L175.875 219.425C173.083 214.958 177.55 209.375 182.575 211.05 184.25 211.608 185.367 212.725 185.925 213.842L204.35 250.133C206.583 254.042 209.933 257.392 213.842 258.508L238.408 266.883C240.083 267.442 241.2 268.558 241.758 269.675L243.433 272.467C245.108 276.375 249.017 278.608 253.483 278.608L260.183 278.608C261.858 278.608 263.533 279.725 264.65 280.842L271.908 291.45C273.583 293.683 275.817 295.358 278.608 295.917L290.333 298.708C293.683 299.267 295.358 303.175 294.242 305.967 294.242 305.967 285.308 314.9 285.308 327.742 285.308 364.592 318.808 375.2 318.808 383.575 318.808 406.467 315.458 438.292 313.783 450.575 299.267 453.925 284.192 456.158 268.558 456.158 163.592 457.833 78.1667 372.408 78.1667 268ZM339.467 443.875C351.75 433.267 372.408 415.4 379.667 407.583 389.158 396.975 390.833 379.667 390.833 379.667 390.833 379.667 429.917 369.058 429.917 340.583 429.917 321.042 390.833 312.667 390.833 312.667 384.133 290.892 351.192 279.167 323.833 279.167 317.692 279.167 295.917 290.333 295.917 290.333L284.75 284.75 284.75 268C284.75 264.65 282.517 262.417 279.167 262.417L268 262.417 268 245.667C268 242.317 265.767 240.083 262.417 240.083L256.833 240.083 250.692 243.992C245.108 247.9 237.292 245.667 234.5 239.525 234.5 239.525 228.917 231.708 228.917 228.358 228.917 204.35 256.833 206.025 256.833 206.025L269.117 206.025C271.908 206.025 274.142 207.7 274.7 210.492L278.05 224.45C278.608 226.683 280.842 228.917 283.633 228.917L285.867 228.917C288.658 228.917 290.892 227.242 291.45 224.45L295.358 203.792C295.917 202.117 296.475 200.442 297.592 198.767L313.225 179.225C316.575 175.317 321.042 173.083 326.067 173.083L340.583 173.083C343.933 173.083 346.167 170.85 346.167 167.5L346.167 161.917 344.492 160.242C341.142 156.892 343.375 150.75 348.4 150.75L351.75 150.75C355.1 150.75 357.333 152.983 357.333 156.333 357.333 159.683 359.567 161.917 362.917 161.917L368.5 161.917 371.85 147.4C372.967 142.375 370.733 137.908 366.825 135.117L319.367 106.642C318.808 106.083 317.692 106.083 316.575 106.083L307.083 106.083C300.942 106.083 295.917 111.108 295.917 117.25L295.917 122.833C295.917 126.183 293.683 128.417 290.333 128.417L284.75 128.417 279.167 122.833 262.417 122.833C259.067 122.833 256.833 120.6 256.833 117.25L256.833 103.292C256.833 101.617 257.392 99.9417 259.067 98.825L294.8 83.75 300.383 93.2417C301.5 94.3583 302.617 94.9167 304.292 94.9167L318.25 94.9167C321.6 94.9167 323.833 92.6833 323.833 89.3333L323.833 86.5417C401.442 110.55 457.833 182.575 457.833 268 457.833 347.283 408.7 415.4 339.467 443.875Z" transform="matrix(1 0 0 1.00187 1044 734)"/><path d="M336.675 244.55 309.875 235.617C307.642 235.058 305.967 235.058 303.733 235.617L284.75 240.083C283.075 241.2 282.517 243.433 284.75 245.667L310.433 245.667C312.108 245.667 313.225 245.667 314.342 246.225L333.883 254.042C337.233 255.158 340.583 252.925 340.583 249.575 340.583 247.342 338.908 245.108 336.675 244.55Z" transform="matrix(1 0 0 1.00187 1044 734)"/></g></svg>