<svg width="879" height="879" xmlns="http://www.w3.org/2000/svg" xmlns:xlink="http://www.w3.org/1999/xlink" xml:space="preserve" overflow="hidden"><g transform="translate(-5485 -1787)"><path d="M5485 2226.5C5485 1983.77 5681.77 1787 5924.5 1787 6167.23 1787 6364 1983.77 6364 2226.5 6364 2469.23 6167.23 2666 5924.5 2666 5681.77 2666 5485 2469.23 5485 2226.5Z" fill="#1F4E79" fill-rule="evenodd"/><path d="M5780.35 2548 5865.17 2548 6058.39 2274.63 6242.17 2274.63C6278.93 2274.63 6327 2255.78 6327 2227.5 6327 2200.16 6278.93 2180.37 6242.17 2180.37L6058.39 2180.37 5865.17 1907 5780.35 1907 5917.01 2180.37 5711.55 2180.37 5629.55 2086.1 5573 2086.1 5629.55 2227.5 5573 2368.9 5629.55 2368.9 5711.55 2274.63 5917.01 2274.63 5780.35 2548Z" fill="#FFFFFF" fill-rule="evenodd"/></g></svg>