<svg width="602" height="583" xmlns="http://www.w3.org/2000/svg" xmlns:xlink="http://www.w3.org/1999/xlink" xml:space="preserve" overflow="hidden"><defs><clipPath id="clip0"><rect x="3408" y="627" width="602" height="583"/></clipPath></defs><g clip-path="url(#clip0)" transform="translate(-3408 -627)"><path d="M3999 627 3979.95 918 3863.93 918 3867.38 883.821C3867.38 801.122 3808.63 732.123 3730.52 716.166L3718 714.906 3718 657.331 3999 627Z" fill-rule="evenodd"/><path d="M3408 633 3687 661.2 3687 714.019 3662.18 716.519C3584.24 732.448 3525.62 801.326 3525.62 883.88L3529.06 918 3455.21 918 3408 633Z" fill="#00B0F0" fill-rule="evenodd"/><path d="M3459.81 950 3538.4 950 3538.64 950.795C3560.34 1001.99 3606.28 1040.45 3662.11 1051.85L3687 1054.35 3687 1150.16 3421 1183 3459.81 950Z" fill="#92D050" fill-rule="evenodd"/><path d="M3854.15 950 3977.86 950 4010 1210 3718 1155.28 3718 1052.91 3730.52 1051.65C3786.31 1040.27 3832.22 1001.88 3853.9 950.794L3854.15 950Z" fill-rule="evenodd"/><path d="M3587 883.5C3587 820.816 3637.82 770 3700.5 770 3763.18 770 3814 820.816 3814 883.5 3814 946.184 3763.18 997 3700.5 997 3637.82 997 3587 946.184 3587 883.5Z" stroke="#000000" stroke-width="27.5" stroke-miterlimit="8" fill="none" fill-rule="evenodd"/></g></svg>