<svg width="603" height="583" xmlns="http://www.w3.org/2000/svg" xmlns:xlink="http://www.w3.org/1999/xlink" xml:space="preserve" overflow="hidden"><defs><clipPath id="clip0"><rect x="2239" y="625" width="603" height="583"/></clipPath></defs><g clip-path="url(#clip0)" transform="translate(-2239 -625)"><path d="M2831 625 2811.95 916 2678.82 916 2680.72 908.577C2682.16 900.091 2682.9 891.393 2682.9 882.566 2682.9 807.6 2629.15 744.56 2558.23 729.972L2550 729.137 2550 655.33 2831 625Z" fill-rule="evenodd"/><path d="M2239 630 2518 658.3 2518 727.331 2495.28 729.645C2424.51 744.259 2370.88 807.41 2370.88 882.507 2370.88 893.236 2371.97 903.72 2374.05 913.854L2374.72 916 2286.21 916 2239 630Z" fill-rule="evenodd"/><path d="M2518 758 2518 916 2407.3 916 2404.53 907.066C2402.87 898.961 2402 890.575 2402 881.994 2402 821.928 2444.72 771.418 2501.09 759.729L2518 758Z" fill="#92D050" fill-rule="evenodd"/><path d="M2550 760 2551.44 760.146C2608.07 771.804 2651 822.179 2651 882.085 2651 890.643 2650.12 899.006 2648.46 907.09L2645.67 916 2550 916 2550 760Z" fill="#92D050" fill-rule="evenodd"/><path d="M2291.66 948 2385.78 948 2397.67 969.775C2420.09 1002.8 2454.9 1026.86 2495.3 1035.16L2518 1037.46 2518 1147.3 2253 1180 2291.66 948Z" fill-rule="evenodd"/><path d="M2421 948 2518 948 2518 1006 2501.07 1004.28C2468.83 997.635 2441.04 978.379 2423.15 951.945L2421 948Z" fill="#92D050" fill-rule="evenodd"/><path d="M2550 948 2632 948 2629.84 951.916C2611.84 978.151 2583.88 997.261 2551.44 1003.86L2550 1004 2550 948Z" fill="#92D050" fill-rule="evenodd"/><path d="M2668.07 948 2809.86 948 2842 1208 2550 1153.28 2550 1036.6 2552.86 1036.36C2578.24 1032.06 2601.64 1021.56 2621.53 1006.4L2644.41 1029.21C2642.33 1040.61 2645.45 1052.53 2654.29 1061.34L2719.3 1126.13C2726.58 1133.38 2735.94 1137.01 2745.3 1137.01 2754.66 1137.01 2764.02 1133.38 2771.3 1126.13 2784.82 1111.61 2784.82 1088.81 2770.78 1074.81L2705.78 1010.03C2696.94 1001.22 2684.98 998.109 2673.53 1000.18L2650.65 977.377C2655.72 970.898 2660.27 963.966 2664.25 956.662L2668.07 948Z" fill-rule="evenodd"/></g></svg>