<svg width="602" height="583" xmlns="http://www.w3.org/2000/svg" xmlns:xlink="http://www.w3.org/1999/xlink" xml:space="preserve" overflow="hidden"><defs><clipPath id="clip0"><rect x="6673" y="2623" width="602" height="583"/></clipPath></defs><g clip-path="url(#clip0)" transform="translate(-6673 -2623)"><path d="M7264 2623 7245.02 2914 7112.36 2914 7114.25 2906.58C7115.69 2898.09 7116.43 2889.39 7116.43 2880.57 7116.43 2805.6 7062.87 2742.56 6992.2 2727.97L6984 2727.14 6984 2653.33 7264 2623Z" fill-rule="evenodd"/><path d="M6673 2628 6952 2656.3 6952 2725.33 6929.28 2727.65C6858.51 2742.26 6804.88 2805.41 6804.88 2880.51 6804.88 2891.24 6805.97 2901.72 6808.05 2911.85L6808.72 2914 6720.21 2914 6673 2628Z" fill="#00B0F0" fill-rule="evenodd"/><path d="M6952 2756 6952 2914 6841.3 2914 6838.53 2905.07C6836.87 2896.96 6836 2888.57 6836 2879.99 6836 2819.93 6878.72 2769.42 6935.09 2757.73L6952 2756Z" fill="#00B0F0" fill-rule="evenodd"/><path d="M6984 2757 6985.44 2757.15C7042.07 2768.88 7085 2819.58 7085 2879.87 7085 2888.48 7084.12 2896.9 7082.46 2905.03L7079.67 2914 6984 2914 6984 2757Z" fill-rule="evenodd"/><path d="M6725.66 2945 6819.79 2945 6831.67 2966.87C6854.09 3000.04 6888.9 3024.2 6929.3 3032.53L6952 3034.84 6952 3145.16 6687 3178 6725.66 2945Z" fill="#92D050" fill-rule="evenodd"/><path d="M6855 2945 6952 2945 6952 3003 6935.07 3001.28C6902.83 2994.63 6875.04 2975.38 6857.15 2948.95L6855 2945Z" fill="#92D050" fill-rule="evenodd"/><path d="M6984 2945 7066 2945 7063.84 2948.99C7045.84 2975.69 7017.88 2995.14 6985.44 3001.85L6984 3002 6984 2945Z" fill-rule="evenodd"/><path d="M7101.67 2945 7242.97 2945 7275 3206 6984 3151.07 6984 3033.94 6986.85 3033.7C7012.14 3029.38 7035.46 3018.84 7055.29 3003.63L7078.09 3026.52C7076.02 3037.96 7079.13 3049.93 7087.94 3058.78L7152.72 3123.81C7159.97 3131.09 7169.3 3134.74 7178.63 3134.74 7187.96 3134.74 7197.29 3131.09 7204.54 3123.81 7218.02 3109.24 7218.02 3086.35 7204.02 3072.3L7139.24 3007.27C7130.43 2998.42 7118.51 2995.3 7107.11 2997.38L7084.31 2974.49C7089.36 2967.99 7093.9 2961.03 7097.86 2953.7L7101.67 2945Z" fill-rule="evenodd"/></g></svg>