<svg width="974" height="949" xmlns="http://www.w3.org/2000/svg" xmlns:xlink="http://www.w3.org/1999/xlink" xml:space="preserve" overflow="hidden"><defs><clipPath id="clip0"><rect x="1785" y="1778" width="974" height="949"/></clipPath></defs><g clip-path="url(#clip0)" transform="translate(-1785 -1778)"><path d="M1785 2072C1785 2011.8 1833.58 1963 1893.5 1963 1953.42 1963 2002 2011.8 2002 2072 2002 2132.2 1953.42 2181 1893.5 2181 1833.58 2181 1785 2132.2 1785 2072Z" fill="#40528F" fill-rule="evenodd"/><path d="M1969 2267C1969 2206.8 2017.8 2158 2078 2158 2138.2 2158 2187 2206.8 2187 2267 2187 2327.2 2138.2 2376 2078 2376 2017.8 2376 1969 2327.2 1969 2267Z" fill="#40528F" fill-rule="evenodd"/><path d="M2167 2072C2167 2011.8 2215.58 1963 2275.5 1963 2335.42 1963 2384 2011.8 2384 2072 2384 2132.2 2335.42 2181 2275.5 2181 2215.58 2181 2167 2132.2 2167 2072Z" fill="#8F9B49" fill-rule="evenodd"/><path d="M2351 2268.5C2351 2208.58 2399.58 2160 2459.5 2160 2519.42 2160 2568 2208.58 2568 2268.5 2568 2328.42 2519.42 2377 2459.5 2377 2399.58 2377 2351 2328.42 2351 2268.5Z" fill="#8F9B49" fill-rule="evenodd"/><path d="M2167 2454C2167 2393.8 2215.8 2345 2276 2345 2336.2 2345 2385 2393.8 2385 2454 2385 2514.2 2336.2 2563 2276 2563 2215.8 2563 2167 2514.2 2167 2454Z" fill="#40528F" fill-rule="evenodd"/><path d="M1954 2618.5C1954 2558.58 2002.58 2510 2062.5 2510 2122.42 2510 2171 2558.58 2171 2618.5 2171 2678.42 2122.42 2727 2062.5 2727 2002.58 2727 1954 2678.42 1954 2618.5Z" fill="#40528F" fill-rule="evenodd"/><path d="M2542 2454C2542 2393.8 2590.58 2345 2650.5 2345 2710.42 2345 2759 2393.8 2759 2454 2759 2514.2 2710.42 2563 2650.5 2563 2590.58 2563 2542 2514.2 2542 2454Z" fill="#8F9B49" fill-rule="evenodd"/><path d="M2368 1886.5C2368 1826.58 2416.58 1778 2476.5 1778 2536.42 1778 2585 1826.58 2585 1886.5 2585 1946.42 2536.42 1995 2476.5 1995 2416.58 1995 2368 1946.42 2368 1886.5Z" fill="#8F9B49" fill-rule="evenodd"/><path d="M2271 1909 2271 2623 1914 2266 2271 1909Z" fill="#8F9B49" fill-rule="evenodd"/><path d="M2273.34 1907 2633 2266 2273.34 2625 2271 2622.66 2271 1909.34 2273.34 1907Z" fill="#40528F" fill-rule="evenodd"/></g></svg>