<svg width="699" height="686" xmlns="http://www.w3.org/2000/svg" xmlns:xlink="http://www.w3.org/1999/xlink" xml:space="preserve" overflow="hidden"><defs><clipPath id="clip0"><rect x="2289" y="4438" width="699" height="686"/></clipPath></defs><g clip-path="url(#clip0)" transform="translate(-2289 -4438)"><path d="M2372.92 4440.5 2576.8 4440.5 2638.5 4502.2 2700.2 4440.5 2904.08 4440.5C2949.05 4440.5 2985.5 4476.96 2985.5 4521.93L2985.5 5040.07C2985.5 5085.04 2949.05 5121.5 2904.08 5121.5L2700.2 5121.5 2638.5 5059.8 2576.8 5121.5 2372.92 5121.5C2327.95 5121.5 2291.5 5085.04 2291.5 5040.07L2291.5 4521.93C2291.5 4476.96 2327.95 4440.5 2372.92 4440.5Z" stroke="#2F528F" stroke-width="4.58333" stroke-miterlimit="8" fill-rule="evenodd"/><path d="M2798.09 4500C2827.51 4500 2852.27 4505.02 2872.36 4515.05 2892.46 4525.08 2907.56 4540 2917.68 4559.8 2927.79 4579.6 2932.85 4603.96 2932.85 4632.88L2932.85 4662.59 2867.44 4662.59 2867.44 4634.45C2867.44 4610.48 2861.59 4592.37 2849.91 4580.12 2838.22 4567.88 2820.94 4561.75 2798.09 4561.75 2773.92 4561.75 2755.67 4567.61 2743.32 4579.34 2730.98 4591.06 2724.8 4608.13 2724.8 4630.54L2724.8 4662.2C2724.8 4678.09 2728.68 4691.57 2736.43 4702.65 2744.18 4713.72 2753.83 4722.71 2765.39 4729.62 2776.95 4736.52 2792.71 4744.66 2812.67 4754.04 2814.77 4754.82 2816.68 4755.67 2818.38 4756.58 2820.09 4757.5 2822 4758.34 2824.1 4759.12 2825.15 4759.65 2826.26 4760.17 2827.45 4760.69 2828.63 4761.21 2829.74 4761.73 2830.79 4762.25 2853.12 4772.67 2871.45 4783.03 2885.76 4793.32 2900.08 4803.61 2912.03 4817.62 2921.62 4835.34 2931.21 4853.05 2936 4875.46 2936 4902.56L2936 4946.33C2936 4975.52 2930.81 5000.01 2920.44 5019.81 2910.06 5039.61 2894.69 5054.6 2874.33 5064.76 2853.98 5074.92 2828.69 5080 2798.49 5080 2768.01 5080 2742.4 5074.98 2721.65 5064.95 2700.9 5054.92 2685.27 5039.94 2674.76 5020.01 2664.25 5000.07 2659 4975.52 2659 4946.33L2659 4918.19 2724.41 4918.19 2724.41 4945.16C2724.41 4969.13 2730.65 4987.24 2743.12 4999.49 2755.6 5011.73 2774.06 5017.86 2798.49 5017.86 2822.39 5017.86 2840.38 5011.73 2852.47 4999.49 2864.55 4987.24 2870.59 4969.13 2870.59 4945.16L2870.59 4903.34C2870.59 4887.45 2866.85 4873.83 2859.36 4862.5 2851.88 4851.17 2842.42 4841.79 2830.99 4834.36 2819.57 4826.93 2804.26 4818.79 2785.09 4809.93 2784.56 4809.67 2783.97 4809.41 2783.31 4809.15 2782.66 4808.89 2782.07 4808.63 2781.54 4808.37L2776.03 4805.63C2751.07 4793.91 2730.84 4782.83 2715.35 4772.41 2699.85 4761.99 2686.65 4747.72 2675.75 4729.62 2664.84 4711.51 2659.39 4688.9 2659.39 4661.81L2659.39 4631.32C2659.39 4602.66 2664.65 4578.56 2675.16 4559.02 2685.66 4539.47 2701.23 4524.75 2721.85 4514.85 2742.47 4504.95 2767.88 4500 2798.09 4500Z" fill="#FFFFFF" fill-rule="evenodd"/><path d="M2348 4500 2413.84 4500 2413.84 4948.13C2413.84 4970.24 2419.3 4987.02 2430.2 4998.47 2441.11 5009.92 2457.08 5015.64 2478.11 5015.64 2499.66 5015.64 2515.89 5009.92 2526.8 4998.47 2537.71 4987.02 2543.16 4970.24 2543.16 4948.13L2543.16 4500 2609 4500 2609 4944.97C2609 4974.45 2604.07 4999.19 2594.22 5019.2 2584.36 5039.2 2569.71 5054.34 2550.26 5064.6 2530.81 5074.87 2506.76 5080 2478.11 5080 2449.72 5080 2425.87 5074.93 2406.55 5064.8 2387.23 5054.66 2372.64 5039.53 2362.78 5019.39 2352.93 4999.26 2348 4974.45 2348 4944.97L2348 4500Z" fill="#FFFFFF" fill-rule="evenodd"/></g></svg>