<svg width="321" height="316" xmlns="http://www.w3.org/2000/svg" xmlns:xlink="http://www.w3.org/1999/xlink" xml:space="preserve" overflow="hidden"><defs><clipPath id="clip0"><rect x="3777" y="405" width="321" height="316"/></clipPath></defs><g clip-path="url(#clip0)" transform="translate(-3777 -405)"><path d="M3777 438 3813 438 3813 469 3777 469 3777 438Z" fill="#FAA32F" fill-rule="evenodd"/><path d="M3777 499 3813 499 3813 530 3777 530 3777 499Z" fill="#FAA32F" fill-rule="evenodd"/><path d="M3884 499 3983.72 499 3984.55 505.3C3985.61 508.986 3987.19 512.343 3989.31 515.37L4005 530 3884 530 3884 499Z" fill="#FAA32F" fill-rule="evenodd"/><path d="M3777 561 3813 561 3813 592 3777 592 3777 561Z" fill="#FAA32F" fill-rule="evenodd"/><path d="M3884 561 4063.86 561 4070.05 564.941C4077.83 570.568 4084.33 578.226 4089.54 587.913L4091 592 3884 592 3884 561Z" fill="#FAA32F" fill-rule="evenodd"/><path d="M3777 620 3813.64 620 3813.64 648.51 3814 651 3777.39 651 3777 646.783 3777 620Z" fill="#FAA32F" fill-rule="evenodd"/><path d="M3883.35 620 4097.65 620 4098 623.595 4098 647.53 4097.66 651 3883 651 3883.35 648.51 3883.35 620Z" fill="#FAA32F" fill-rule="evenodd"/><path d="M3777 405 3813 405 3813 438 3777 438 3777 405Z" fill-rule="evenodd"/><path d="M3884 405 3898.27 405 3919.83 405 4022.61 405 4026.25 405 4026.25 405.336 4044.74 407.047C4051.48 408.412 4057.59 410.46 4063.06 413.189 4074.01 418.649 4082.23 426.768 4087.74 437.546 4093.25 448.324 4096 461.583 4096 477.325L4096 493.492 4060.38 493.492 4060.38 478.176C4060.38 465.129 4057.2 455.273 4050.83 448.607 4044.46 441.942 4035.06 438.61 4022.61 438.61 4009.45 438.61 3999.51 441.801 3992.79 448.182 3986.06 454.564 3982.7 463.852 3982.7 476.048L3982.7 493.279 3983.46 499 3884 499 3884 405Z" fill-rule="evenodd"/><path d="M3777 469 3813 469 3813 499 3777 499 3777 469Z" fill-rule="evenodd"/><path d="M3777 530 3813 530 3813 561 3777 561 3777 530Z" fill-rule="evenodd"/><path d="M3884 530 4004.58 530 4004.7 530.116C4010.99 533.89 4019.57 538.341 4030.43 543.469 4031.57 543.896 4032.61 544.359 4033.54 544.857 4034.47 545.356 4035.5 545.818 4036.65 546.246 4037.22 546.531 4037.82 546.815 4038.47 547.1 4039.11 547.385 4039.72 547.67 4040.29 547.955 4046.36 550.804 4051.89 553.643 4056.88 556.474L4064 561 3884 561 3884 530Z" fill-rule="evenodd"/><path d="M3777 592 3813 592 3813 620 3777 620 3777 592Z" fill-rule="evenodd"/><path d="M3884 592 4090.98 592 4095.39 603.911 4097 620 3884 620 3884 592Z" fill-rule="evenodd"/><path d="M3778 651 3813.78 651 3815.65 664.533C3817.14 669.146 3819.36 673.026 3822.33 676.174 3828.26 682.469 3836.95 685.617 3848.38 685.617 3860.1 685.617 3868.93 682.469 3874.86 676.174 3877.83 673.026 3880.06 669.146 3881.54 664.533L3883.42 651 4097 651 4095.22 669.643C4093.8 676.376 4091.69 682.465 4088.86 687.908 4083.22 698.795 4074.85 707.032 4063.78 712.62 4058.24 715.413 4052.03 717.508 4045.15 718.905L4025.92 720.683 4025.92 721 4022.5 721 3976.07 721 3897 721 3860.77 721 3848.38 721C3832.94 721 3819.97 718.214 3809.46 712.642 3798.96 707.071 3791.02 698.749 3785.66 687.679 3782.98 682.143 3780.97 675.966 3779.63 669.146L3778 651Z" fill-rule="evenodd"/></g></svg>