<svg width="604" height="596" xmlns="http://www.w3.org/2000/svg" xmlns:xlink="http://www.w3.org/1999/xlink" xml:space="preserve" overflow="hidden"><defs><clipPath id="clip0"><rect x="4969" y="1963" width="604" height="596"/></clipPath></defs><g clip-path="url(#clip0)" transform="translate(-4969 -1963)"><path d="M5413.59 2049C5458.64 2049 5501.57 2057.93 5540.61 2074.09L5567 2086.53 5567 2379.91 5554.17 2381.91C5537.71 2383.66 5522.92 2384.34 5510.53 2383.84 5411.45 2379.86 5391.09 2204.58 5298.8 2196.62 5252.65 2192.63 5190.56 2230.14 5128.29 2267.32L5099 2284.44 5101.92 2273.32C5143.24 2143.36 5267.15 2049 5413.59 2049Z" fill="#92D050" fill-rule="evenodd"/><path d="M5262.66 2361.33C5341.3 2368.11 5373.97 2481.65 5432.88 2539.9L5433 2540 5138.55 2540 5126.66 2520.88C5111.59 2493.78 5100.42 2464.3 5093.9 2433.17L5093 2427.42 5121.68 2410.58C5173.82 2381.03 5223.34 2357.94 5262.66 2361.33Z" fill="#F2C136" fill-rule="evenodd"/><path d="M5298.66 2196.29C5391 2204.28 5411.37 2379.93 5510.5 2383.92 5522.89 2384.42 5537.69 2383.75 5554.16 2381.99L5567 2379.99 5567 2540 5432.85 2540 5432.73 2539.9C5373.8 2481.44 5341.12 2367.51 5262.45 2360.7 5223.12 2357.3 5173.58 2380.47 5121.42 2410.13L5092.73 2427.02 5088.69 2401.02C5087.57 2390.27 5087 2379.35 5087 2368.31 5087 2346.22 5089.28 2324.66 5093.63 2303.83L5098.75 2284.31 5128.06 2267.15C5190.36 2229.89 5252.49 2192.3 5298.66 2196.29Z" fill="#00B0F0" fill-rule="evenodd"/><path d="M5092.76 2427.13 5093.66 2432.9C5100.18 2464.11 5111.35 2493.66 5126.43 2520.84L5138.32 2540 4995 2540 4995 2482.9 5015.86 2472.19C5033.3 2462.41 5051 2451.86 5068.69 2441.29ZM4995 1980 5567 1980 5567 2086.41 5540.6 2073.96C5501.54 2057.78 5458.59 2048.84 5413.51 2048.84 5267.01 2048.84 5143.04 2143.31 5101.7 2273.43L5098.78 2284.56 5093.66 2304.06C5089.31 2324.87 5087.02 2346.41 5087.02 2368.48 5087.02 2379.51 5087.59 2390.41 5088.71 2401.16L5092.76 2427.13 5068.69 2441.29C5051 2451.86 5033.3 2462.41 5015.86 2472.19L4995 2482.9 4995 2332.73Z" fill-rule="evenodd"/><rect x="4985" y="1979" width="572" height="564" stroke="#000000" stroke-width="32.0833" stroke-linecap="square" stroke-miterlimit="8" fill="none"/></g></svg>