<svg width="604" height="599" xmlns="http://www.w3.org/2000/svg" xmlns:xlink="http://www.w3.org/1999/xlink" xml:space="preserve" overflow="hidden"><defs><clipPath id="clip0"><rect x="5643" y="1963" width="604" height="599"/></clipPath></defs><g clip-path="url(#clip0)" transform="translate(-5643 -1963)"><path d="M5659 1979 6231 1979 6231 2378 6228.3 2376.55C6172.43 2338.1 6089.33 2181.52 6035.93 2169.78 5970.2 2155.33 5913.7 2300.7 5867.58 2294.38 5821.45 2288.06 5817.61 2127.34 5759.18 2131.85 5737.28 2133.55 5705.53 2161.74 5671.48 2195.9L5659 2208.69 5659 1979Z" fill="#92D050" fill-rule="evenodd"/><path d="M5758.25 2195.12C5816.76 2189.32 5820.61 2395.82 5866.8 2403.94 5913 2412.06 5969.59 2225.28 6035.41 2243.85 6088.9 2258.93 6172.11 2460.11 6228.07 2509.51L6231 2511.53 6231 2546 6195.86 2546 6185.68 2529.28C6135.29 2442.61 6076.55 2307.44 6035.41 2294.55 5969.59 2273.94 5913 2481.36 5866.8 2472.34 5820.61 2463.32 5816.76 2234 5758.25 2240.45 5736.31 2242.86 5704.51 2283.08 5670.42 2331.82L5659 2348.49 5659 2292.42 5670.42 2277.41C5704.51 2233.51 5736.31 2197.3 5758.25 2195.12Z" fill="#FFC000" fill-rule="evenodd"/><path d="M5759.18 2132.09C5817.61 2127.58 5821.45 2288.17 5867.58 2294.48 5913.7 2300.8 5970.2 2155.55 6035.93 2169.98 6089.33 2181.71 6172.43 2338.17 6228.3 2376.58L6231 2378.03 6231 2511 6228.07 2508.99C6172.11 2459.67 6088.9 2258.81 6035.41 2243.76 5969.59 2225.23 5913 2411.7 5866.8 2403.59 5820.61 2395.48 5816.76 2189.32 5758.25 2195.11 5736.31 2197.28 5704.51 2233.44 5670.42 2277.26L5659 2292.25 5659 2208.87 5671.48 2196.08C5705.53 2161.95 5737.28 2133.78 5759.18 2132.09Z" fill="#548235" fill-rule="evenodd"/><path d="M5758.28 2240.13C5816.8 2233.69 5820.65 2463.24 5866.86 2472.26 5913.06 2481.29 5969.67 2273.66 6035.51 2294.3 6076.66 2307.19 6135.41 2442.5 6185.82 2529.26L6196 2546 5659 2546 5659 2348.29 5670.42 2331.6C5704.52 2282.81 5736.33 2242.55 5758.28 2240.13Z" fill="#00B0F0" fill-rule="evenodd"/><rect x="5659" y="1979" width="572" height="567" stroke="#000000" stroke-width="32.0833" stroke-miterlimit="8" fill="none"/></g></svg>