<svg width="620" height="620" xmlns="http://www.w3.org/2000/svg" xmlns:xlink="http://www.w3.org/1999/xlink" xml:space="preserve" overflow="hidden"><defs><clipPath id="clip0"><rect x="5561" y="4486" width="620" height="620"/></clipPath></defs><g clip-path="url(#clip0)" transform="translate(-5561 -4486)"><path d="M5666.21 5005.43C5550.44 4892.23 5548.35 4706.6 5661.56 4590.83 5774.76 4475.05 5960.39 4472.97 6076.16 4586.17 6191.94 4699.38 6194.02 4885 6080.82 5000.78 5967.61 5116.55 5781.99 5118.63 5666.21 5005.43Z" stroke="#000000" stroke-width="32.0833" stroke-miterlimit="8" fill="#FFC000" fill-rule="evenodd"/><path d="M5747.58 4922.22C5631.8 4809.02 5593.29 4660.65 5661.56 4590.83 5729.83 4521.01 5879.03 4556.18 5994.8 4669.38 6110.58 4782.59 6149.09 4930.96 6080.82 5000.78 6012.55 5070.6 5863.35 5035.43 5747.58 4922.22Z" stroke="#000000" stroke-width="22.9167" stroke-miterlimit="8" fill="#FFC000" fill-rule="evenodd"/><path d="M5661.56 4590.83 6080.82 5000.78" stroke="#000000" stroke-width="22.9167" stroke-miterlimit="8" fill="#FFC000" fill-rule="evenodd"/><path d="M5666.21 5005.43 6076.16 4586.17" stroke="#000000" stroke-width="22.9167" stroke-miterlimit="8" fill="#FFC000" fill-rule="evenodd"/></g></svg>