<svg width="578" height="578" xmlns="http://www.w3.org/2000/svg" xmlns:xlink="http://www.w3.org/1999/xlink" xml:space="preserve" overflow="hidden"><defs><clipPath id="clip0"><rect x="3996" y="1119" width="578" height="578"/></clipPath></defs><g clip-path="url(#clip0)" transform="translate(-3996 -1119)"><path d="M4007.5 1408C4007.5 1254.74 4131.74 1130.5 4285 1130.5 4438.26 1130.5 4562.5 1254.74 4562.5 1408 4562.5 1561.26 4438.26 1685.5 4285 1685.5 4131.74 1685.5 4007.5 1561.26 4007.5 1408Z" stroke="#385723" stroke-width="22.9167" stroke-miterlimit="8" fill="none" fill-rule="evenodd"/><path d="M4142 1408C4142 1326.26 4205.8 1260 4284.5 1260 4363.2 1260 4427 1326.26 4427 1408 4427 1489.74 4363.2 1556 4284.5 1556 4205.8 1556 4142 1489.74 4142 1408Z" stroke="#385723" stroke-width="13.75" stroke-miterlimit="8" fill="#C5E0B4" fill-rule="evenodd"/></g></svg>