<svg width="548" height="575" xmlns="http://www.w3.org/2000/svg" xmlns:xlink="http://www.w3.org/1999/xlink" xml:space="preserve" overflow="hidden"><defs><clipPath id="clip0"><rect x="4154" y="3757" width="548" height="575"/></clipPath></defs><g clip-path="url(#clip0)" transform="translate(-4154 -3757)"><path d="M4168 4130.5C4168 4028.05 4251.27 3945 4354 3945 4456.73 3945 4540 4028.05 4540 4130.5 4540 4232.95 4456.73 4316 4354 4316 4251.27 4316 4168 4232.95 4168 4130.5Z" stroke="#385723" stroke-width="18.3333" stroke-miterlimit="8" fill="#C5E0B4" fill-rule="evenodd"/><path d="M4321 3951.5C4321 3849.05 4404.27 3766 4507 3766 4609.73 3766 4693 3849.05 4693 3951.5 4693 4053.95 4609.73 4137 4507 4137 4404.27 4137 4321 4053.95 4321 3951.5Z" stroke="#385723" stroke-width="18.3333" stroke-miterlimit="8" fill="#FFFFFF" fill-rule="evenodd"/><path d="M4504.5 3769.5C4607.22 3769.5 4690.5 3852.75 4690.5 3955.44 4690.5 4045.3 4626.74 4120.27 4541.98 4137.61L4537.15 4138.1 4533.73 4172.03C4516.38 4256.76 4441.39 4320.5 4351.5 4320.5 4248.78 4320.5 4165.5 4237.25 4165.5 4134.56 4165.5 4044.7 4229.26 3969.73 4314.02 3952.39L4318.85 3951.9 4322.27 3917.97C4339.62 3833.24 4414.61 3769.5 4504.5 3769.5Z" stroke="#385723" stroke-width="22.9167" stroke-miterlimit="8" fill="none" fill-rule="evenodd"/></g></svg>