<svg width="577" height="578" xmlns="http://www.w3.org/2000/svg" xmlns:xlink="http://www.w3.org/1999/xlink" xml:space="preserve" overflow="hidden"><defs><clipPath id="clip0"><rect x="4163" y="2887" width="577" height="578"/></clipPath></defs><g clip-path="url(#clip0)" transform="translate(-4163 -2887)"><path d="M4451.5 2898.5C4508.83 2898.5 4562.09 2915.97 4606.28 2945.88L4626.5 2962.6 4450.36 3114.5 4276.5 2962.6 4296.72 2945.88C4340.91 2915.97 4394.17 2898.5 4451.5 2898.5Z" stroke="#385723" stroke-width="22.9167" stroke-miterlimit="8" fill="#385723" fill-rule="evenodd"/><path d="M4664.4 3000.5 4681.12 3020.78C4711.03 3065.09 4728.5 3118.5 4728.5 3176 4728.5 3233.5 4711.03 3286.91 4681.12 3331.22L4664.4 3351.5 4512.5 3177.15 4664.4 3000.5Z" stroke="#385723" stroke-width="22.9167" stroke-miterlimit="8" fill="#385723" fill-rule="evenodd"/><path d="M4238.44 3000.5 4390.5 3176 4238.43 3351.5 4221.76 3331.22C4191.92 3286.91 4174.5 3233.5 4174.5 3176 4174.5 3118.5 4191.92 3065.09 4221.76 3020.78L4238.44 3000.5Z" stroke="#385723" stroke-width="22.9167" stroke-miterlimit="8" fill="#385723" fill-rule="evenodd"/><path d="M4452.07 3242.5 4626.5 3389.52 4606.28 3406.21C4562.09 3436.07 4508.83 3453.5 4451.5 3453.5 4394.17 3453.5 4340.91 3436.07 4296.72 3406.21L4276.5 3389.52 4452.07 3242.5Z" stroke="#385723" stroke-width="22.9167" stroke-miterlimit="8" fill="#385723" fill-rule="evenodd"/></g></svg>