<svg width="577" height="577" xmlns="http://www.w3.org/2000/svg" xmlns:xlink="http://www.w3.org/1999/xlink" xml:space="preserve" overflow="hidden"><defs><clipPath id="clip0"><rect x="4127" y="1987" width="577" height="577"/></clipPath></defs><g clip-path="url(#clip0)" transform="translate(-4127 -1987)"><path d="M4138.5 2275.5C4138.5 2122.52 4262.52 1998.5 4415.5 1998.5 4568.48 1998.5 4692.5 2122.52 4692.5 2275.5 4692.5 2428.48 4568.48 2552.5 4415.5 2552.5 4262.52 2552.5 4138.5 2428.48 4138.5 2275.5Z" stroke="#385723" stroke-width="22.9167" stroke-miterlimit="8" fill="#C5E0B4" fill-rule="evenodd"/><path d="M4325 2275.5C4325 2223.86 4365.29 2182 4415 2182 4464.71 2182 4505 2223.86 4505 2275.5 4505 2327.14 4464.71 2369 4415 2369 4365.29 2369 4325 2327.14 4325 2275.5Z" stroke="#385723" stroke-width="13.75" stroke-miterlimit="8" fill="#385723" fill-rule="evenodd"/></g></svg>