<svg width="600" height="600" xmlns="http://www.w3.org/2000/svg" xmlns:xlink="http://www.w3.org/1999/xlink" xml:space="preserve" overflow="hidden"><defs><clipPath id="clip0"><rect x="5444" y="1478" width="600" height="600"/></clipPath></defs><g clip-path="url(#clip0)" transform="translate(-5444 -1478)"><path d="M5744 1496 6028 1619.43 6028 1936.57 5744 2060 5460 1936.57 5460 1619.43Z" stroke="#000000" stroke-width="32.0833" stroke-miterlimit="8" fill="none" fill-rule="evenodd"/><path d="M0 51.9999C-6.42931e-15 23.2811 22.6096-6.62028e-15 50.4999-1.32406e-14 78.3902-2.64811e-14 101 23.2811 101 51.9999 101 80.7187 78.3902 104 50.4999 104 22.6096 104-3.21465e-14 80.7187 0 51.9999Z" stroke="#000000" stroke-width="22.9167" stroke-miterlimit="8" fill-rule="evenodd" transform="matrix(-1 0 0 1 5952.5 1811.5)"/><path d="M0 51.9999C-6.42933e-15 23.2811 22.6096-6.62028e-15 50.5-1.32406e-14 78.3904-2.64811e-14 101 23.2811 101 51.9999 101 80.7187 78.3904 104 50.5 104 22.6096 104-3.21466e-14 80.7187 0 51.9999Z" stroke="#000000" stroke-width="22.9167" stroke-miterlimit="8" fill-rule="evenodd" transform="matrix(-1 0 0 1 5796.5 1724.5)"/><path d="M0 52.4999C-6.42933e-15 23.505 22.6096-6.68394e-15 50.5-1.33679e-14 78.3904-2.67358e-14 101 23.505 101 52.4999 101 81.4948 78.3904 105 50.5 105 22.6096 105-3.21466e-14 81.4948 0 52.4999Z" stroke="#000000" stroke-width="22.9167" stroke-miterlimit="8" fill-rule="evenodd" transform="matrix(-1 0 0 1 5641.5 1638.5)"/></g></svg>