<svg width="578" height="577" xmlns="http://www.w3.org/2000/svg" xmlns:xlink="http://www.w3.org/1999/xlink" xml:space="preserve" overflow="hidden"><defs><clipPath id="clip0"><rect x="4013" y="2885" width="578" height="577"/></clipPath></defs><g clip-path="url(#clip0)" transform="translate(-4013 -2885)"><path d="M4482.11 3299.47 4244.8 3380.11 4095.04 3179.13 4239.79 2974.28 4479.02 3048.65Z" stroke="#385723" stroke-width="13.75" stroke-miterlimit="8" fill="#C5E0B4" fill-rule="evenodd"/><path d="M4024.5 3173.5C4024.5 3020.52 4148.74 2896.5 4302 2896.5 4455.26 2896.5 4579.5 3020.52 4579.5 3173.5 4579.5 3326.48 4455.26 3450.5 4302 3450.5 4148.74 3450.5 4024.5 3326.48 4024.5 3173.5Z" stroke="#385723" stroke-width="22.9167" stroke-miterlimit="8" fill="none" fill-rule="evenodd"/><path d="M4200.5 2986.5C4200.5 2966.07 4216.84 2949.5 4237 2949.5 4257.16 2949.5 4273.5 2966.07 4273.5 2986.5 4273.5 3006.93 4257.16 3023.5 4237 3023.5 4216.84 3023.5 4200.5 3006.93 4200.5 2986.5Z" stroke="#2F528F" stroke-width="4.58333" stroke-miterlimit="8" fill="#385723" fill-rule="evenodd"/><path d="M4056.5 3189C4056.5 3168.84 4072.84 3152.5 4093 3152.5 4113.16 3152.5 4129.5 3168.84 4129.5 3189 4129.5 3209.16 4113.16 3225.5 4093 3225.5 4072.84 3225.5 4056.5 3209.16 4056.5 3189Z" stroke="#2F528F" stroke-width="4.58333" stroke-miterlimit="8" fill="#385723" fill-rule="evenodd"/><path d="M4214.5 3377C4214.5 3356.84 4230.84 3340.5 4251 3340.5 4271.16 3340.5 4287.5 3356.84 4287.5 3377 4287.5 3397.16 4271.16 3413.5 4251 3413.5 4230.84 3413.5 4214.5 3397.16 4214.5 3377Z" stroke="#2F528F" stroke-width="4.58333" stroke-miterlimit="8" fill="#385723" fill-rule="evenodd"/><path d="M4432.5 3049C4432.5 3028.84 4449.07 3012.5 4469.5 3012.5 4489.93 3012.5 4506.5 3028.84 4506.5 3049 4506.5 3069.16 4489.93 3085.5 4469.5 3085.5 4449.07 3085.5 4432.5 3069.16 4432.5 3049Z" stroke="#2F528F" stroke-width="4.58333" stroke-miterlimit="8" fill="#385723" fill-rule="evenodd"/><path d="M4442.5 3294.5C4442.5 3274.07 4458.84 3257.5 4479 3257.5 4499.16 3257.5 4515.5 3274.07 4515.5 3294.5 4515.5 3314.93 4499.16 3331.5 4479 3331.5 4458.84 3331.5 4442.5 3314.93 4442.5 3294.5Z" stroke="#2F528F" stroke-width="4.58333" stroke-miterlimit="8" fill="#385723" fill-rule="evenodd"/></g></svg>