<svg width="578" height="578" xmlns="http://www.w3.org/2000/svg" xmlns:xlink="http://www.w3.org/1999/xlink" xml:space="preserve" overflow="hidden"><defs><clipPath id="clip0"><rect x="4011" y="1933" width="578" height="578"/></clipPath></defs><g clip-path="url(#clip0)" transform="translate(-4011 -1933)"><path d="M4022.5 2222C4022.5 2068.74 4146.74 1944.5 4300 1944.5 4453.26 1944.5 4577.5 2068.74 4577.5 2222 4577.5 2375.26 4453.26 2499.5 4300 2499.5 4146.74 2499.5 4022.5 2375.26 4022.5 2222Z" stroke="#385723" stroke-width="22.9167" stroke-miterlimit="8" fill="none" fill-rule="evenodd"/><path d="M4120 2221.5C4120 2118.5 4200.36 2035 4299.5 2035 4398.64 2035 4479 2118.5 4479 2221.5 4479 2324.5 4398.64 2408 4299.5 2408 4200.36 2408 4120 2324.5 4120 2221.5Z" stroke="#385723" stroke-width="13.75" stroke-miterlimit="8" fill="none" fill-rule="evenodd"/><path d="M4227 2222C4227 2180.58 4259.46 2147 4299.5 2147 4339.54 2147 4372 2180.58 4372 2222 4372 2263.42 4339.54 2297 4299.5 2297 4259.46 2297 4227 2263.42 4227 2222Z" stroke="#385723" stroke-width="13.75" stroke-miterlimit="8" fill="#385723" fill-rule="evenodd"/></g></svg>