<svg width="578" height="578" xmlns="http://www.w3.org/2000/svg" xmlns:xlink="http://www.w3.org/1999/xlink" xml:space="preserve" overflow="hidden"><defs><clipPath id="clip0"><rect x="4037" y="2042" width="578" height="578"/></clipPath></defs><g clip-path="url(#clip0)" transform="translate(-4037 -2042)"><path d="M4048.5 2331C4048.5 2177.74 4172.74 2053.5 4326 2053.5 4479.26 2053.5 4603.5 2177.74 4603.5 2331 4603.5 2484.26 4479.26 2608.5 4326 2608.5 4172.74 2608.5 4048.5 2484.26 4048.5 2331Z" stroke="#385723" stroke-width="22.9167" stroke-miterlimit="8" fill="none" fill-rule="evenodd"/><path d="M4139 2243.5C4139 2195.18 4176.61 2156 4223 2156 4269.39 2156 4307 2195.18 4307 2243.5 4307 2291.82 4269.39 2331 4223 2331 4176.61 2331 4139 2291.82 4139 2243.5Z" stroke="#385723" stroke-width="13.75" stroke-miterlimit="8" fill="#385723" fill-rule="evenodd"/><path d="M4330.89 2435.72C4325.94 2387.77 4359.41 2345.03 4405.63 2340.27 4451.85 2335.5 4493.33 2370.51 4498.27 2418.46 4503.21 2466.42 4469.75 2509.15 4423.53 2513.92 4377.31 2518.68 4335.83 2483.67 4330.89 2435.72Z" stroke="#385723" stroke-width="13.75" stroke-miterlimit="8" fill="none" fill-rule="evenodd"/><path d="M4283 2305 4349.28 2371.84" stroke="#385723" stroke-width="13.75" stroke-miterlimit="8" fill="none" fill-rule="evenodd"/></g></svg>