<svg width="588" height="491" xmlns="http://www.w3.org/2000/svg" xmlns:xlink="http://www.w3.org/1999/xlink" xml:space="preserve" overflow="hidden"><g transform="translate(-3044 -3503)"><path d="M0 0 420.781 222.374" stroke="#000000" stroke-width="27.5" stroke-miterlimit="8" stroke-dasharray="110 82.5" fill="none" fill-rule="evenodd" transform="matrix(1 0 0 -1 3106 3869.37)"/><path d="M3055.5 3870C3055.5 3841 3078.11 3817.5 3106 3817.5 3133.89 3817.5 3156.5 3841 3156.5 3870 3156.5 3898.99 3133.89 3922.5 3106 3922.5 3078.11 3922.5 3055.5 3898.99 3055.5 3870Z" stroke="#000000" stroke-width="22.9167" stroke-miterlimit="8" fill-rule="evenodd"/><path d="M3520.74 3607.75C3527.47 3579.6 3554.92 3562.05 3582.05 3568.54 3609.18 3575.02 3625.71 3603.1 3618.98 3631.25 3612.25 3659.39 3584.8 3676.94 3557.67 3670.46 3530.54 3663.97 3514.01 3635.89 3520.74 3607.75Z" stroke="#000000" stroke-width="22.9167" stroke-miterlimit="8" fill-rule="evenodd"/><path d="M3097.73 3860.25C3065.28 3746.07 3146.6 3615.59 3279.36 3568.81 3370.05 3536.86 3465.49 3551.52 3526.17 3606.72" stroke="#000000" stroke-width="27.5" stroke-miterlimit="8" fill="none" fill-rule="evenodd"/><path d="M3560.61 3628.87C3603.64 3748.75 3532.29 3888.22 3401.23 3940.37 3308.97 3977.08 3207.51 3961.55 3141.1 3900.54" stroke="#000000" stroke-width="27.5" stroke-miterlimit="8" fill="none" fill-rule="evenodd"/><path d="M3337.07 3612.03 3164.41 3630.28 3282.85 3503.32Z" fill-rule="evenodd"/><path d="M3349.08 3888.44 3520.31 3859.71 3409.83 3993.65Z" fill-rule="evenodd"/></g></svg>