<svg width="600" height="600" xmlns="http://www.w3.org/2000/svg" xmlns:xlink="http://www.w3.org/1999/xlink" xml:space="preserve" overflow="hidden"><defs><clipPath id="clip0"><rect x="2423" y="1478" width="600" height="600"/></clipPath></defs><g clip-path="url(#clip0)" transform="translate(-2423 -1478)"><path d="M0 283.5 123.426 0 440.575 0 564 283.5 440.575 567 123.426 567Z" stroke="#000000" stroke-width="32.0833" stroke-miterlimit="8" fill="none" fill-rule="evenodd" transform="matrix(1.83697e-16 1 1 -1.83697e-16 2439 1496)"/><path d="M0 0 567.536 317.077" stroke="#000000" stroke-width="32.0833" stroke-miterlimit="8" fill="none" fill-rule="evenodd" transform="matrix(1 0 0 -1 2439 1937.08)"/><path d="M2515.5 1863.5C2515.5 1834.78 2538.11 1811.5 2566 1811.5 2593.89 1811.5 2616.5 1834.78 2616.5 1863.5 2616.5 1892.22 2593.89 1915.5 2566 1915.5 2538.11 1915.5 2515.5 1892.22 2515.5 1863.5Z" stroke="#000000" stroke-width="22.9167" stroke-miterlimit="8" fill-rule="evenodd"/><path d="M2670.5 1776.5C2670.5 1747.78 2693.11 1724.5 2721 1724.5 2748.89 1724.5 2771.5 1747.78 2771.5 1776.5 2771.5 1805.22 2748.89 1828.5 2721 1828.5 2693.11 1828.5 2670.5 1805.22 2670.5 1776.5Z" stroke="#000000" stroke-width="22.9167" stroke-miterlimit="8" fill-rule="evenodd"/><path d="M2826.5 1691C2826.5 1662.01 2849.11 1638.5 2877 1638.5 2904.89 1638.5 2927.5 1662.01 2927.5 1691 2927.5 1719.99 2904.89 1743.5 2877 1743.5 2849.11 1743.5 2826.5 1719.99 2826.5 1691Z" stroke="#000000" stroke-width="22.9167" stroke-miterlimit="8" fill-rule="evenodd"/></g></svg>