<svg width="599" height="600" xmlns="http://www.w3.org/2000/svg" xmlns:xlink="http://www.w3.org/1999/xlink" xml:space="preserve" overflow="hidden"><defs><clipPath id="clip0"><rect x="3149" y="1478" width="599" height="600"/></clipPath></defs><g clip-path="url(#clip0)" transform="translate(-3149 -1478)"><path d="M0 0 290 126.849 290 438.622 7.63171 567C6.61424 382.075 5.59642 197.151 0 0Z" fill-rule="evenodd" transform="matrix(-1 0 0 1 3453 1499)"/><path d="M0 283.5 123.426 0 440.575 0 564 283.5 440.575 567 123.426 567Z" stroke="#000000" stroke-width="32.0833" stroke-miterlimit="8" fill="none" fill-rule="evenodd" transform="matrix(1.83697e-16 1 1 -1.83697e-16 3165 1496)"/><path d="M0 194 84.2534 0 300.747 0 385 194 300.747 388 84.2534 388Z" stroke="#000000" stroke-width="22.9167" stroke-miterlimit="8" fill="none" fill-rule="evenodd" transform="matrix(1.83697e-16 1 1 -1.83697e-16 3255.5 1586.5)"/><path d="M3449.5 2060.37 3449.5 1496.5" stroke="#000000" stroke-width="22.9167" stroke-miterlimit="8" fill="none" fill-rule="evenodd"/></g></svg>