<svg width="578" height="578" xmlns="http://www.w3.org/2000/svg" xmlns:xlink="http://www.w3.org/1999/xlink" xml:space="preserve" overflow="hidden"><defs><clipPath id="clip0"><rect x="4109" y="1116" width="578" height="578"/></clipPath></defs><g clip-path="url(#clip0)" transform="translate(-4109 -1116)"><path d="M4120.5 1405C4120.5 1251.74 4244.74 1127.5 4398 1127.5 4551.26 1127.5 4675.5 1251.74 4675.5 1405 4675.5 1558.26 4551.26 1682.5 4398 1682.5 4244.74 1682.5 4120.5 1558.26 4120.5 1405Z" stroke="#385723" stroke-width="22.9167" stroke-miterlimit="8" fill="#C5E0B4" fill-rule="evenodd"/><path d="M4321.09 1222.51C4462.38 1163.22 4611.08 1196.58 4653.22 1297.01 4695.37 1397.44 4615 1526.92 4473.71 1586.21 4332.42 1645.5 4183.72 1612.15 4141.57 1511.71 4099.43 1411.28 4179.8 1281.8 4321.09 1222.51Z" stroke="#385723" stroke-width="13.75" stroke-miterlimit="8" fill="none" fill-rule="evenodd"/><path d="M4249.69 1468C4189.06 1327.28 4206.05 1184.71 4287.62 1149.57 4369.2 1114.42 4484.48 1200 4545.11 1340.72 4605.73 1481.44 4588.75 1624.01 4507.17 1659.16 4425.6 1694.3 4310.32 1608.72 4249.69 1468Z" stroke="#385723" stroke-width="13.75" stroke-miterlimit="8" fill="none" fill-rule="evenodd"/><path d="M4437.65 1341.83C4456.47 1341.39 4470.15 1345.95 4474.21 1355.63 4482.33 1374.98 4448.93 1407.45 4399.6 1428.15 4350.28 1448.85 4303.71 1449.94 4295.59 1430.58 4287.47 1411.23 4320.87 1378.76 4370.19 1358.06 4394.85 1347.71 4418.83 1342.27 4437.65 1341.83Z" stroke="#385723" stroke-width="13.75" stroke-miterlimit="8" fill="none" fill-rule="evenodd"/><path d="M4548.08 1256.44C4602.1 1255.44 4641.42 1268.89 4653.22 1297.01 4676.82 1353.25 4581.42 1446.91 4440.13 1506.2 4298.84 1565.49 4165.17 1567.96 4141.57 1511.71 4117.97 1455.47 4213.38 1361.81 4354.66 1302.52 4425.31 1272.88 4494.05 1257.44 4548.08 1256.44ZM4437.65 1341.83C4418.83 1342.27 4394.85 1347.71 4370.19 1358.06 4320.87 1378.76 4287.47 1411.23 4295.59 1430.58 4303.71 1449.94 4350.28 1448.85 4399.6 1428.15 4448.93 1407.45 4482.33 1374.98 4474.21 1355.63 4470.15 1345.95 4456.47 1341.39 4437.65 1341.83Z" stroke="#385723" stroke-width="13.75" stroke-miterlimit="8" fill="#385723" fill-rule="evenodd"/><path d="M4288 1150 4355.04 1302.96" stroke="#385723" stroke-width="13.75" stroke-miterlimit="8" fill="none" fill-rule="evenodd"/><path d="M4440 1506 4507.04 1658.96" stroke="#385723" stroke-width="13.75" stroke-miterlimit="8" fill="none" fill-rule="evenodd"/></g></svg>