<svg width="595" height="596" xmlns="http://www.w3.org/2000/svg" xmlns:xlink="http://www.w3.org/1999/xlink" xml:space="preserve" overflow="hidden"><defs><clipPath id="clip0"><rect x="3887" y="1542" width="595" height="596"/></clipPath></defs><g clip-path="url(#clip0)" transform="translate(-3887 -1542)"><path d="M4073 1698.5C4073 1677.24 4090.24 1660 4111.5 1660 4132.76 1660 4150 1677.24 4150 1698.5 4150 1719.76 4132.76 1737 4111.5 1737 4090.24 1737 4073 1719.76 4073 1698.5Z" fill-rule="evenodd"/><path d="M4184.73 1558 4414.22 1657.86 4332.82 1820.78 4430 2015.27 4184.73 2122 3951 2020.3 4050.69 1820.78 3966.78 1652.84 4184.73 1558Z" stroke="#000000" stroke-width="27.5" stroke-miterlimit="8" fill="none" fill-rule="evenodd"/><path d="M3966.43 1653 4050 1820.73 3950.71 2020 3901 1998.31 3901 1681.55 3966.43 1653Z" stroke="#000000" stroke-width="27.5" stroke-miterlimit="8" fill="none" fill-rule="evenodd"/><path d="M4414.07 1658 4468 1681.54 4468 1998.32 4429.78 2015 4333 1820.73 4414.07 1658Z" stroke="#000000" stroke-width="27.5" stroke-miterlimit="8" fill="none" fill-rule="evenodd"/><path d="M4050 1821 4332.24 1821" stroke="#000000" stroke-width="27.5" stroke-miterlimit="8" fill="none" fill-rule="evenodd"/><path d="M4073 1948.5C4073 1927.24 4090.01 1910 4111 1910 4131.99 1910 4149 1927.24 4149 1948.5 4149 1969.76 4131.99 1987 4111 1987 4090.01 1987 4073 1969.76 4073 1948.5Z" fill-rule="evenodd"/><path d="M4231 1948.5C4231 1927.24 4248.24 1910 4269.5 1910 4290.76 1910 4308 1927.24 4308 1948.5 4308 1969.76 4290.76 1987 4269.5 1987 4248.24 1987 4231 1969.76 4231 1948.5Z" fill-rule="evenodd"/><path d="M4227 1699C4227 1678.01 4244.24 1661 4265.5 1661 4286.76 1661 4304 1678.01 4304 1699 4304 1719.99 4286.76 1737 4265.5 1737 4244.24 1737 4227 1719.99 4227 1699Z" fill-rule="evenodd"/><path d="M4367 1819.5C4367 1798.24 4384.01 1781 4405 1781 4425.99 1781 4443 1798.24 4443 1819.5 4443 1840.76 4425.99 1858 4405 1858 4384.01 1858 4367 1840.76 4367 1819.5Z" fill-rule="evenodd"/><path d="M3927 1819.5C3927 1798.24 3944.01 1781 3965 1781 3985.99 1781 4003 1798.24 4003 1819.5 4003 1840.76 3985.99 1858 3965 1858 3944.01 1858 3927 1840.76 3927 1819.5Z" fill-rule="evenodd"/></g></svg>