<svg width="578" height="578" xmlns="http://www.w3.org/2000/svg" xmlns:xlink="http://www.w3.org/1999/xlink" xml:space="preserve" overflow="hidden"><defs><clipPath id="clip0"><rect x="3996" y="1119" width="578" height="578"/></clipPath></defs><g clip-path="url(#clip0)" transform="translate(-3996 -1119)"><path d="M4168 1323.29 4268.72 1568 4461 1353.88 4180.21 1308" stroke="#385723" stroke-width="13.75" stroke-miterlimit="8" fill="none" fill-rule="evenodd"/><path d="M4007.5 1408C4007.5 1254.74 4131.74 1130.5 4285 1130.5 4438.26 1130.5 4562.5 1254.74 4562.5 1408 4562.5 1561.26 4438.26 1685.5 4285 1685.5 4131.74 1685.5 4007.5 1561.26 4007.5 1408Z" stroke="#385723" stroke-width="22.9167" stroke-miterlimit="8" fill="#C5E0B4" fill-rule="evenodd"/><path d="M4090 1312.5C4090 1264.18 4127.61 1225 4174 1225 4220.39 1225 4258 1264.18 4258 1312.5 4258 1360.82 4220.39 1400 4174 1400 4127.61 1400 4090 1360.82 4090 1312.5Z" stroke="#385723" stroke-width="13.75" stroke-miterlimit="8" fill="#385723" fill-rule="evenodd"/><path d="M4367.76 1398.95C4360.84 1351.24 4392.51 1307.16 4438.49 1300.49 4484.48 1293.82 4527.37 1327.09 4534.29 1374.8 4541.21 1422.5 4509.54 1466.58 4463.55 1473.25 4417.57 1479.92 4374.68 1446.66 4367.76 1398.95Z" stroke="#385723" stroke-width="13.75" stroke-miterlimit="8" fill="#FFFFFF" fill-rule="evenodd"/><path d="M4194.69 1595.65C4174.08 1552.08 4191.42 1500.64 4233.43 1480.78 4275.43 1460.91 4326.19 1480.13 4346.8 1523.7 4367.42 1567.28 4350.07 1618.71 4308.07 1638.58 4266.06 1658.45 4215.3 1639.23 4194.69 1595.65Z" stroke="#385723" stroke-width="13.75" stroke-miterlimit="8" fill="#FFFFFF" fill-rule="evenodd"/></g></svg>