<svg width="549" height="574" xmlns="http://www.w3.org/2000/svg" xmlns:xlink="http://www.w3.org/1999/xlink" xml:space="preserve" overflow="hidden"><defs><clipPath id="clip0"><rect x="4080" y="2916" width="549" height="574"/></clipPath></defs><g clip-path="url(#clip0)" transform="translate(-4080 -2916)"><path d="M4275.01 3107C4377.73 3107 4461 3190.35 4461 3293.16L4460.64 3296.71 4427.99 3300C4325.27 3300 4242 3216.65 4242 3113.84L4242.36 3110.29 4275.01 3107Z" stroke="#385723" stroke-width="18.3333" stroke-miterlimit="8" fill="#C5E0B4" fill-rule="evenodd"/><path d="M4428.32 2928C4530.87 2928 4614 3011.11 4614 3113.64 4614 3203.35 4550.35 3278.2 4465.74 3295.51L4460.92 3296 4461.28 3292.47C4461.28 3189.94 4378.14 3106.82 4275.6 3106.82L4243 3110.11 4246.42 3076.23C4263.73 2991.64 4338.59 2928 4428.32 2928Z" stroke="#385723" stroke-width="18.3333" stroke-miterlimit="8" fill="#C5E0B4" fill-rule="evenodd"/><path d="M4242.49 3110 4242.14 3113.54C4242.14 3216.35 4325.49 3299.69 4428.31 3299.69L4461 3296.39 4457.57 3330.37C4440.21 3415.19 4365.15 3479 4275.18 3479 4172.35 3479 4089 3395.66 4089 3292.85 4089 3202.9 4152.82 3127.84 4237.66 3110.49L4242.49 3110Z" stroke="#385723" stroke-width="18.3333" stroke-miterlimit="8" fill="#C5E0B4" fill-rule="evenodd"/><path d="M4431.5 2927.5C4534.22 2927.5 4617.5 3010.75 4617.5 3113.44 4617.5 3203.3 4553.74 3278.27 4468.98 3295.61L4464.15 3296.09 4460.73 3330.03C4443.38 3414.76 4368.39 3478.5 4278.5 3478.5 4175.78 3478.5 4092.5 3395.25 4092.5 3292.56 4092.5 3202.7 4156.26 3127.73 4241.02 3110.39L4245.85 3109.9 4249.27 3075.97C4266.62 2991.24 4341.61 2927.5 4431.5 2927.5Z" stroke="#385723" stroke-width="22.9167" stroke-miterlimit="8" fill="none" fill-rule="evenodd"/></g></svg>