<svg width="508" height="568" xmlns="http://www.w3.org/2000/svg" xmlns:xlink="http://www.w3.org/1999/xlink" xml:space="preserve" overflow="hidden"><defs><clipPath id="clip0"><rect x="1948" y="1012" width="508" height="568"/></clipPath></defs><g clip-path="url(#clip0)" transform="translate(-1948 -1012)"><path d="M1962 1026 2202 1026 2442 1026 2442 1266.22C2434.45 1391.62 2340.72 1448.54 2243.59 1526.86L2202.08 1561.92 2202.08 1561.95 2202.01 1562 2202 1561.99 2201.99 1562 2201.92 1561.95 2201.92 1561.92 2160.41 1526.86C2063.28 1448.54 1969.55 1391.62 1962 1266.22Z" stroke="#0D0D0D" stroke-width="27.5" stroke-miterlimit="8" fill-rule="evenodd"/><path d="M2122.19 1419.81C2110.07 1373.95 2137.44 1326.94 2183.31 1314.83 2229.17 1302.71 2276.18 1330.08 2288.29 1375.94 2300.41 1421.81 2273.04 1468.82 2227.18 1480.93 2181.31 1493.05 2134.3 1465.68 2122.19 1419.81Z" stroke="#FFFFFF" stroke-width="36.6667" stroke-miterlimit="8" fill="#FFFFFF" fill-rule="evenodd"/><path d="M2252.31 1255.22C2247.89 1228.97 2265.58 1204.11 2291.82 1199.69 2318.07 1195.27 2342.93 1212.96 2347.35 1239.2 2351.77 1265.45 2334.08 1290.31 2307.84 1294.73 2281.59 1299.15 2256.73 1281.46 2252.31 1255.22Z" stroke="#FFFFFF" stroke-width="36.6667" stroke-miterlimit="8" fill="#FFFFFF" fill-rule="evenodd"/><path d="M2225.81 1115.48C2220.93 1090.53 2237.21 1066.35 2262.16 1061.47 2287.11 1056.59 2311.29 1072.87 2316.17 1097.82 2321.04 1122.77 2304.77 1146.95 2279.82 1151.83 2254.87 1156.7 2230.69 1140.43 2225.81 1115.48Z" stroke="#FFFFFF" stroke-width="36.6667" stroke-miterlimit="8" fill="#FFFFFF" fill-rule="evenodd"/><path d="M2280.5 1152.5 2292.5 1200.36" stroke="#FFFFFF" stroke-width="36.6667" stroke-miterlimit="8" fill="#FFFFFF" fill-rule="evenodd"/><path d="M0 0 23.432 37.1697" stroke="#FFFFFF" stroke-width="36.6667" stroke-miterlimit="8" fill="#FFFFFF" fill-rule="evenodd" transform="matrix(-1 0 0 1 2271.93 1286.5)"/></g></svg>