<svg width="479" height="471" xmlns="http://www.w3.org/2000/svg" xmlns:xlink="http://www.w3.org/1999/xlink" xml:space="preserve" overflow="hidden"><defs><clipPath id="clip0"><rect x="1170" y="1002" width="479" height="471"/></clipPath></defs><g clip-path="url(#clip0)" transform="translate(-1170 -1002)"><path d="M1184 1016 1340.9 1016 1340.9 1177.09 1471.12 1177.09 1471.12 1016 1635 1016 1635 1459 1471.12 1459 1471.12 1297.91 1340.9 1297.91 1340.9 1459 1184 1459Z" stroke="#C55A11" stroke-width="27.5" stroke-miterlimit="8" fill="#FFFFFF" fill-rule="evenodd"/><path d="M1391.67 1387.84C1379.55 1341.97 1406.92 1294.96 1452.78 1282.85 1498.65 1270.73 1545.66 1298.1 1557.77 1343.97 1569.89 1389.83 1542.52 1436.84 1496.65 1448.95 1450.79 1461.07 1403.78 1433.7 1391.67 1387.84Z" stroke="#C55A11" stroke-width="27.5" stroke-miterlimit="8" fill="#FBE5D6" fill-rule="evenodd"/><path d="M1521.79 1223.24C1517.37 1196.99 1535.06 1172.13 1561.3 1167.71 1587.54 1163.29 1612.41 1180.98 1616.83 1207.22 1621.25 1233.47 1603.56 1258.33 1577.32 1262.75 1551.07 1267.17 1526.21 1249.48 1521.79 1223.24Z" stroke="#C55A11" stroke-width="27.5" stroke-miterlimit="8" fill="#FBE5D6" fill-rule="evenodd"/><path d="M1495.29 1083.5C1490.41 1058.55 1506.69 1034.37 1531.64 1029.49 1556.59 1024.62 1580.77 1040.89 1585.64 1065.84 1590.52 1090.79 1574.25 1114.97 1549.3 1119.85 1524.35 1124.73 1500.17 1108.45 1495.29 1083.5Z" stroke="#C55A11" stroke-width="27.5" stroke-miterlimit="8" fill="#FBE5D6" fill-rule="evenodd"/><path d="M1549 1120 1561 1167.86" stroke="#C55A11" stroke-width="27.5" stroke-miterlimit="8" fill="#FBE5D6" fill-rule="evenodd"/><path d="M0 0 23.432 37.1697" stroke="#C55A11" stroke-width="27.5" stroke-miterlimit="8" fill="#FBE5D6" fill-rule="evenodd" transform="matrix(-1 0 0 1 1541.43 1254)"/></g></svg>