<svg width="479" height="471" xmlns="http://www.w3.org/2000/svg" xmlns:xlink="http://www.w3.org/1999/xlink" xml:space="preserve" overflow="hidden"><defs><clipPath id="clip0"><rect x="3479" y="3249" width="479" height="471"/></clipPath></defs><g clip-path="url(#clip0)" transform="translate(-3479 -3249)"><path d="M3493 3273 3649.9 3273 3649.9 3434.09 3780.12 3434.09 3780.12 3273 3944 3273 3944 3716 3780.12 3716 3780.12 3554.91 3649.9 3554.91 3649.9 3716 3493 3716Z" fill-rule="evenodd"/><path d="M3500 3273 3632 3484.5 3500 3696Z" fill="#FF0000" fill-rule="evenodd"/><path d="M3493 3263 3649.9 3263 3649.9 3424.09 3780.12 3424.09 3780.12 3263 3944 3263 3944 3706 3780.12 3706 3780.12 3544.91 3649.9 3544.91 3649.9 3706 3493 3706Z" stroke="#FF9632" stroke-width="27.5" stroke-miterlimit="8" fill="none" fill-rule="evenodd"/></g></svg>