<svg width="451" height="452" xmlns="http://www.w3.org/2000/svg" xmlns:xlink="http://www.w3.org/1999/xlink" xml:space="preserve" overflow="hidden"><defs><clipPath id="clip0"><rect x="272" y="653" width="451" height="452"/></clipPath></defs><g clip-path="url(#clip0)" transform="translate(-272 -653)"><rect x="315" y="815" width="318" height="121"/><rect x="272" y="654" width="157" height="444"/><rect x="559" y="654" width="164" height="444"/><path d="M479.667 1026.37C467.553 980.497 494.916 933.492 540.784 921.378 586.652 909.263 633.657 936.627 645.771 982.496 657.885 1028.36 630.523 1075.37 584.654 1087.48 538.786 1099.6 491.782 1072.23 479.667 1026.37Z" stroke="#C55A11" stroke-width="27.5" stroke-miterlimit="8" fill="#FFFFFF" fill-rule="evenodd"/><path d="M609.789 861.767C605.367 835.523 623.057 810.663 649.301 806.24 675.545 801.818 700.405 819.508 704.827 845.752 709.25 871.997 691.56 896.857 665.316 901.279 639.072 905.702 614.211 888.011 609.789 861.767Z" stroke="#C55A11" stroke-width="27.5" stroke-miterlimit="8" fill="#FFFFFF" fill-rule="evenodd"/><path d="M583.292 722.033C578.414 697.082 594.685 672.901 619.636 668.023 644.586 663.145 668.767 679.418 673.645 704.368 678.523 729.319 662.251 753.5 637.3 758.378 612.35 763.256 588.169 746.984 583.292 722.033Z" stroke="#C55A11" stroke-width="27.5" stroke-miterlimit="8" fill="#FFFFFF" fill-rule="evenodd"/><path d="M637 758 649 805.862" stroke="#C55A11" stroke-width="27.5" stroke-miterlimit="8" fill="#FFFFFF" fill-rule="evenodd"/><path d="M0 0 23.432 37.1697" stroke="#C55A11" stroke-width="27.5" stroke-miterlimit="8" fill="#FFFFFF" fill-rule="evenodd" transform="matrix(-1 0 0 1 629.432 893)"/></g></svg>