<svg width="595" height="603" xmlns="http://www.w3.org/2000/svg" xmlns:xlink="http://www.w3.org/1999/xlink" xml:space="preserve" overflow="hidden"><defs><clipPath id="clip0"><rect x="3192" y="-28" width="595" height="603"/></clipPath></defs><g clip-path="url(#clip0)" transform="translate(-3192 28)"><path d="M0 0 436.159 0 567 130.841 567 575 0 575Z" stroke="#000000" stroke-width="27.5" stroke-miterlimit="8" fill-rule="evenodd" transform="matrix(-1 0 0 1 3773 -14.0001)"/><path d="M3345.45 440.217C3269.1 352.733 3278.12 219.916 3365.6 143.562 3453.09 67.2073 3585.9 76.2293 3662.26 163.713 3738.61 251.197 3729.59 384.014 3642.11 460.368 3554.62 536.722 3421.81 527.7 3345.45 440.217Z" stroke="#000000" stroke-width="32.0833" stroke-miterlimit="8" fill="#FFC000" fill-rule="evenodd"/><path d="M3408.33 385.34C3331.97 297.856 3312.85 189.608 3365.6 143.562 3418.36 97.5149 3523.03 131.106 3599.38 218.59 3675.74 306.073 3694.87 414.321 3642.11 460.368 3589.35 506.415 3484.68 472.823 3408.33 385.34Z" stroke="#000000" stroke-width="22.9167" stroke-miterlimit="8" fill="#FFC000" fill-rule="evenodd"/><path d="M3365.6 143.562 3642.11 460.368" stroke="#000000" stroke-width="22.9167" stroke-miterlimit="8" fill="#FFC000" fill-rule="evenodd"/><path d="M3345.45 440.217 3662.26 163.713" stroke="#000000" stroke-width="22.9167" stroke-miterlimit="8" fill="#FFC000" fill-rule="evenodd"/><path d="M3198 126 3350 126 3350-26.0001" stroke="#000000" stroke-width="27.5" stroke-miterlimit="8" fill="#FFFFFF" fill-rule="evenodd"/></g></svg>