<svg width="568" height="643" xmlns="http://www.w3.org/2000/svg" xmlns:xlink="http://www.w3.org/1999/xlink" xml:space="preserve" overflow="hidden"><defs><clipPath id="clip0"><rect x="3565" y="-121" width="568" height="643"/></clipPath></defs><g clip-path="url(#clip0)" transform="translate(-3565 121)"><path d="M3565-121 3919-121 3919-1.33861 3684.52-1.33861 3684.52 402.339 3919 402.339 3919 522 3565 522 3565-121Z" fill="#FFC000" fill-rule="evenodd"/><path d="M3801.34 29.9999C3817.65 29.9999 3831.64 33.1485 3843.32 39.4459 3855 45.7434 3863.93 54.8966 3870.1 66.9056 3876.27 78.9144 3879.36 93.2668 3879.36 109.962L3879.36 134.566 3823.16 134.566 3823.16 109.962C3823.16 104.836 3822.28 100.406 3820.51 96.6718 3818.75 92.9372 3816.22 90.0814 3812.91 88.1044 3809.6 86.1273 3805.75 85.1388 3801.34 85.1388 3796.49 85.1388 3792.27 86.2371 3788.67 88.4338 3785.07 90.6307 3782.31 93.7793 3780.4 97.88 3778.49 101.981 3777.54 106.814 3777.54 112.379L3777.54 278.015C3777.54 282.555 3778.53 286.546 3780.51 289.987 3782.5 293.429 3785.4 296.065 3789.22 297.896 3793.04 299.726 3797.52 300.642 3802.66 300.642 3807.95 300.642 3812.54 299.69 3816.44 297.786 3820.33 295.882 3823.3 293.099 3825.36 289.438 3827.42 285.777 3828.45 281.383 3828.45 276.257L3828.45 232.542 3801.56 232.542 3801.56 180.259 3882 180.259 3882 275.818C3882 292.514 3878.88 306.866 3872.63 318.875 3866.39 330.884 3857.32 340.074 3845.42 346.444 3833.52 352.815 3819.26 356 3802.66 356 3785.77 356 3771.29 352.925 3759.25 346.774 3747.2 340.623 3737.98 331.689 3731.59 319.973 3725.2 308.257 3722 294.271 3722 278.015L3722 112.379C3722 95.2439 3725.12 80.489 3731.37 68.1138 3737.61 55.7387 3746.68 46.2924 3758.58 39.7755 3770.49 33.2584 3784.74 29.9999 3801.34 29.9999Z" fill-rule="evenodd"/><path d="M3922 33 3974.42 33 4027.5 206.865 4081.9 33 4133 33 4133 353 4084.32 353 4084.32 154.56 4041.16 296.439 4013.84 296.439 3971.78 162.163 3971.78 353 3922 353 3922 33Z" fill-rule="evenodd"/></g></svg>