<svg width="613" height="643" xmlns="http://www.w3.org/2000/svg" xmlns:xlink="http://www.w3.org/1999/xlink" xml:space="preserve" overflow="hidden"><defs><clipPath id="clip0"><rect x="3566" y="671" width="613" height="643"/></clipPath></defs><g clip-path="url(#clip0)" transform="translate(-3566 -671)"><path d="M3566 671 3920 671 3920 790.661 3685.52 790.661 3685.52 1194.34 3920 1194.34 3920 1314 3566 1314 3566 671Z" fill="#FFC000" fill-rule="evenodd"/><path d="M3735 833 3788.4 833 3788.4 966.682 3830.6 966.682 3830.6 833 3884 833 3884 1146 3830.6 1146 3830.6 1016.84 3788.4 1016.84 3788.4 1146 3735 1146 3735 833Z" fill-rule="evenodd"/><path d="M4097.34 858 4150.42 858 4150.42 922.891 4179 922.891 4179 971.666 4150.42 971.666 4150.42 1079.32C4150.42 1084.19 4151.6 1087.95 4153.96 1090.6 4156.33 1093.25 4159.59 1094.57 4163.74 1094.57L4179 1094.57 4179 1147 4155.58 1147C4135.52 1147 4120.8 1142.02 4111.42 1132.07 4102.03 1122.11 4097.34 1107.39 4097.34 1087.91L4097.34 971.666 4078 971.666 4078 922.891 4097.34 922.891 4097.34 858Z" fill-rule="evenodd"/><path d="M3986.64 919C4001.37 919 4013.92 921.756 4024.29 927.268 4034.66 932.78 4042.59 940.833 4048.1 951.427 4053.6 962.022 4056.36 974.835 4056.36 989.868L4056.36 1053.01 3969.7 1053.01 3969.7 1082.21C3969.7 1088.37 3971.3 1093.09 3974.52 1096.39 3977.74 1099.68 3982.35 1101.32 3988.36 1101.32 3993.94 1101.32 3998.23 1099.96 4001.23 1097.24 4004.23 1094.52 4005.73 1090.66 4005.73 1085.65L4005.73 1077.92 4057 1078.35 4057 1084.57C4057 1105.05 4050.99 1120.9 4038.98 1132.14 4026.97 1143.38 4010.09 1149 3988.36 1149 3973.63 1149 3961.01 1146.32 3950.5 1140.95 3939.99 1135.58 3931.94 1127.78 3926.37 1117.54 3920.79 1107.3 3918 1094.95 3918 1080.49L3918 991.586C3918 976.267 3920.72 963.167 3926.15 952.286 3931.59 941.406 3939.41 933.138 3949.64 927.483 3959.86 921.827 3972.2 919 3986.64 919ZM3986.64 966.46C3981.21 966.46 3977.02 968.429 3974.09 972.366 3971.16 976.303 3969.7 981.851 3969.7 989.009L3969.7 1014.14 4004.88 1014.14 4004.88 987.506C4004.88 980.92 4003.27 975.766 4000.05 972.044 3996.83 968.321 3992.36 966.46 3986.64 966.46Z" fill-rule="evenodd"/></g></svg>