<svg width="634" height="643" xmlns="http://www.w3.org/2000/svg" xmlns:xlink="http://www.w3.org/1999/xlink" xml:space="preserve" overflow="hidden"><defs><clipPath id="clip0"><rect x="3566" y="2204" width="634" height="643"/></clipPath></defs><g clip-path="url(#clip0)" transform="translate(-3566 -2204)"><path d="M3566 2204 3920 2204 3920 2323.66 3685.52 2323.66 3685.52 2464.13 3811.08 2464.13 3811.08 2586.87 3685.52 2586.87 3685.52 2727.34 3920 2727.34 3920 2847 3566 2847 3566 2586.87 3566 2464.13Z" fill="#2F5597" fill-rule="evenodd"/><path d="M3788 2387 3811.67 2387 3841.36 2387 3927 2387 3927 2438.93 3841.36 2438.93 3841.36 2518.11 3916.24 2518.11 3916.24 2569.82 3841.36 2569.82 3841.36 2647.07 3927 2647.07 3927 2699 3841.36 2699 3811.67 2699 3788 2699 3788 2387Z" fill-rule="evenodd"/><path d="M4062 2472 4062 2528.32C4060.28 2528.32 4058.27 2528.32 4055.97 2528.32 4053.68 2528.32 4051.16 2528.32 4048.44 2528.32 4035.81 2528.32 4025.97 2532.12 4018.94 2539.71 4011.91 2547.31 4008.39 2557.63 4008.39 2570.67L4008.39 2699 3955 2699 3955 2475.87 4008.39 2475.87 4008.39 2506.53 4009.06 2505.32C4014.59 2496.4 4021.15 2489.09 4028.74 2483.39 4038.86 2475.8 4049.94 2472 4062 2472Z" fill-rule="evenodd"/><path d="M4200 2472 4200 2528.32C4198.28 2528.32 4196.27 2528.32 4193.97 2528.32 4191.68 2528.32 4189.16 2528.32 4186.44 2528.32 4173.81 2528.32 4163.97 2532.12 4156.94 2539.71 4149.91 2547.31 4146.39 2557.63 4146.39 2570.67L4146.39 2699 4093 2699 4093 2475.87 4146.39 2475.87 4146.39 2506.53 4147.06 2505.32C4152.59 2496.4 4159.15 2489.09 4166.74 2483.39 4176.86 2475.8 4187.94 2472 4200 2472Z" fill-rule="evenodd"/></g></svg>