<svg width="666" height="643" xmlns="http://www.w3.org/2000/svg" xmlns:xlink="http://www.w3.org/1999/xlink" xml:space="preserve" overflow="hidden"><defs><clipPath id="clip0"><rect x="3566" y="2902" width="666" height="643"/></clipPath></defs><g clip-path="url(#clip0)" transform="translate(-3566 -2902)"><path d="M3566 2902 3920 2902 3920 3021.66 3685.52 3021.66 3685.52 3162.13 3811.08 3162.13 3811.08 3284.87 3685.52 3284.87 3685.52 3425.34 3920 3425.34 3920 3545 3566 3545 3566 3284.87 3566 3162.13Z" fill="#2F5597" fill-rule="evenodd"/><path d="M3788 3059 3841.4 3059 3841.4 3192.25 3883.6 3192.25 3883.6 3059 3937 3059 3937 3371 3883.6 3371 3883.6 3242.25 3841.4 3242.25 3841.4 3371 3788 3371 3788 3059Z" fill-rule="evenodd"/><path d="M4150.34 3083 4203.42 3083 4203.42 3147.89 4232 3147.89 4232 3196.67 4203.42 3196.67 4203.42 3304.32C4203.42 3309.19 4204.6 3312.95 4206.96 3315.6 4209.33 3318.25 4212.59 3319.57 4216.74 3319.57L4232 3319.57 4232 3372 4208.58 3372C4188.52 3372 4173.8 3367.02 4164.42 3357.07 4155.03 3347.11 4150.34 3332.39 4150.34 3312.91L4150.34 3196.67 4131 3196.67 4131 3147.89 4150.34 3147.89 4150.34 3083Z" fill-rule="evenodd"/><path d="M4039.64 3144C4054.37 3144 4066.92 3146.77 4077.29 3152.3 4087.66 3157.84 4095.59 3165.93 4101.1 3176.57 4106.6 3187.21 4109.36 3200.08 4109.36 3215.18L4109.36 3278.59 4022.7 3278.59 4022.7 3307.92C4022.7 3314.1 4024.3 3318.85 4027.52 3322.16 4030.74 3325.46 4035.35 3327.12 4041.36 3327.12 4046.94 3327.12 4051.23 3325.75 4054.23 3323.02 4057.23 3320.29 4058.73 3316.41 4058.73 3311.37L4058.73 3303.61 4110 3304.04 4110 3310.29C4110 3330.86 4103.99 3346.78 4091.98 3358.07 4079.97 3369.36 4063.09 3375 4041.36 3375 4026.63 3375 4014.01 3372.3 4003.5 3366.91 3992.99 3361.52 3984.94 3353.68 3979.37 3343.4 3973.79 3333.12 3971 3320.72 3971 3306.2L3971 3216.9C3971 3201.52 3973.72 3188.36 3979.15 3177.43 3984.59 3166.5 3992.41 3158.2 4002.64 3152.52 4012.86 3146.84 4025.2 3144 4039.64 3144ZM4039.64 3191.67C4034.21 3191.67 4030.02 3193.64 4027.09 3197.6 4024.16 3201.55 4022.7 3207.12 4022.7 3214.31L4022.7 3239.55 4057.88 3239.55 4057.88 3212.8C4057.88 3206.19 4056.27 3201.01 4053.05 3197.27 4049.83 3193.54 4045.36 3191.67 4039.64 3191.67Z" fill-rule="evenodd"/></g></svg>