<svg width="659" height="643" xmlns="http://www.w3.org/2000/svg" xmlns:xlink="http://www.w3.org/1999/xlink" xml:space="preserve" overflow="hidden"><defs><clipPath id="clip0"><rect x="4803" y="1128" width="659" height="643"/></clipPath></defs><g clip-path="url(#clip0)" transform="translate(-4803 -1128)"><path d="M4803 1128 5157 1128 5157 1247.66 4922.52 1247.66 4922.52 1388.13 5048.08 1388.13 5048.08 1510.87 4922.52 1510.87 4922.52 1651.34 5157 1651.34 5157 1771 4803 1771 4803 1510.87 4803 1388.13Z" fill="#FF0000" fill-rule="evenodd"/><path d="M5019 1279 5072.04 1279 5072.04 1412.25 5113.96 1412.25 5113.96 1279 5167 1279 5167 1591 5113.96 1591 5113.96 1462.25 5072.04 1462.25 5072.04 1591 5019 1591 5019 1279Z" fill-rule="evenodd"/><path d="M5380.34 1303 5433.42 1303 5433.42 1367.89 5462 1367.89 5462 1416.67 5433.42 1416.67 5433.42 1524.32C5433.42 1529.19 5434.6 1532.95 5436.96 1535.6 5439.33 1538.25 5442.59 1539.57 5446.74 1539.57L5462 1539.57 5462 1592 5438.58 1592C5418.52 1592 5403.8 1587.02 5394.42 1577.07 5385.03 1567.11 5380.34 1552.39 5380.34 1532.91L5380.34 1416.67 5361 1416.67 5361 1367.89 5380.34 1367.89 5380.34 1303Z" fill-rule="evenodd"/><path d="M5270.64 1364C5285.37 1364 5297.92 1366.76 5308.29 1372.27 5318.66 1377.78 5326.59 1385.83 5332.1 1396.43 5337.6 1407.02 5340.36 1419.84 5340.36 1434.87L5340.36 1498.01 5253.7 1498.01 5253.7 1527.21C5253.7 1533.37 5255.3 1538.09 5258.52 1541.39 5261.74 1544.68 5266.35 1546.32 5272.36 1546.32 5277.94 1546.32 5282.23 1544.96 5285.23 1542.24 5288.23 1539.52 5289.73 1535.66 5289.73 1530.65L5289.73 1522.92 5341 1523.35 5341 1529.57C5341 1550.05 5334.99 1565.9 5322.98 1577.14 5310.97 1588.38 5294.09 1594 5272.36 1594 5257.63 1594 5245.01 1591.32 5234.5 1585.95 5223.99 1580.58 5215.94 1572.78 5210.37 1562.54 5204.79 1552.3 5202 1539.95 5202 1525.49L5202 1436.59C5202 1421.27 5204.72 1408.17 5210.15 1397.29 5215.59 1386.41 5223.42 1378.14 5233.64 1372.48 5243.86 1366.83 5256.2 1364 5270.64 1364ZM5270.64 1411.46C5265.21 1411.46 5261.02 1413.43 5258.09 1417.37 5255.16 1421.3 5253.7 1426.85 5253.7 1434.01L5253.7 1459.14 5288.88 1459.14 5288.88 1432.51C5288.88 1425.92 5287.27 1420.77 5284.05 1417.04 5280.83 1413.32 5276.36 1411.46 5270.64 1411.46Z" fill-rule="evenodd"/></g></svg>