<svg width="586" height="587" xmlns="http://www.w3.org/2000/svg" xmlns:xlink="http://www.w3.org/1999/xlink" xml:space="preserve" overflow="hidden"><defs><clipPath id="clip0"><rect x="5250" y="2963" width="586" height="587"/></clipPath></defs><g clip-path="url(#clip0)" transform="translate(-5250 -2963)"><path d="M5266 3256.5C5266 3103.24 5390.02 2979 5543 2979 5695.98 2979 5820 3103.24 5820 3256.5 5820 3409.76 5695.98 3534 5543 3534 5390.02 3534 5266 3409.76 5266 3256.5Z" stroke="#000000" stroke-width="32.0833" stroke-miterlimit="8" fill="none" fill-rule="evenodd"/><path d="M5718.68 3064.42C5755.75 3181.02 5679.57 3329.18 5548.53 3395.35 5490.37 3424.72 5428.19 3434.06 5373.81 3421.6" stroke="#0D0D0D" stroke-width="27.5" stroke-linecap="square" stroke-miterlimit="8" stroke-dasharray="82.5 27.5" fill="none" fill-rule="evenodd"/><path d="M5334 3430C5334 3396.31 5361.31 3369 5395 3369 5428.69 3369 5456 3396.31 5456 3430 5456 3463.69 5428.69 3491 5395 3491 5361.31 3491 5334 3463.69 5334 3430Z" fill-rule="evenodd"/><path d="M5658 3104C5658 3070.86 5684.86 3044 5718 3044 5751.14 3044 5778 3070.86 5778 3104 5778 3137.14 5751.14 3164 5718 3164 5684.86 3164 5658 3137.14 5658 3104Z" fill-rule="evenodd"/><path d="M5507 3411 5525 3457" stroke="#000000" stroke-width="13.75" stroke-miterlimit="8" fill="none" fill-rule="evenodd"/><path d="M5600.08 3356.86 5631.39 3395.02" stroke="#000000" stroke-width="13.75" stroke-miterlimit="8" fill="none" fill-rule="evenodd"/><path d="M5671.43 3277.81 5715.29 3300.46" stroke="#000000" stroke-width="13.75" stroke-miterlimit="8" fill="none" fill-rule="evenodd"/><path d="M5716.78 3179.41 5765.62 3186.57" stroke="#000000" stroke-width="13.75" stroke-miterlimit="8" fill="none" fill-rule="evenodd"/><path d="M5703.69 3126.23C5691.49 3256.58 5569.85 3377.99 5432 3397.4 5418.57 3399.3 5405.25 3400.16 5392.18 3399.99" stroke="#0D0D0D" stroke-width="27.5" stroke-miterlimit="8" fill="none" fill-rule="evenodd"/><path d="M5776.97 3121.12C5785.68 3272.26 5658.72 3431.18 5493.4 3476.08 5463.18 3484.29 5432.88 3488.27 5403.56 3487.88" stroke="#0D0D0D" stroke-width="13.75" stroke-miterlimit="8" fill="none" fill-rule="evenodd"/></g></svg>