<svg width="731" height="629" xmlns="http://www.w3.org/2000/svg" xmlns:xlink="http://www.w3.org/1999/xlink" xml:space="preserve" overflow="hidden"><defs><clipPath id="clip0"><rect x="4806" y="3438" width="731" height="629"/></clipPath></defs><g clip-path="url(#clip0)" transform="translate(-4806 -3438)"><path d="M4806 3438 4912.68 3438 4912.68 3961.5 5159 3961.5 5159 4067 4912.68 4067 4806 4067 4806 3961.5Z" fill="#548235" fill-rule="evenodd"/><path d="M4968 3513 5031.78 3513 5031.78 3824.95 5129 3824.95 5129 3886 5031.78 3886 4994.23 3886 4968 3886 4968 3513Z" fill-rule="evenodd"/><path d="M5245.81 3615C5262.88 3615 5277.48 3618.12 5289.6 3624.37 5301.73 3630.62 5310.99 3639.74 5317.4 3651.72 5323.8 3663.7 5327 3678.08 5327 3694.86L5327 3886.15 5266.81 3886.15 5266.81 3858.11 5264.89 3863.17C5260.87 3871.98 5255.2 3878.66 5247.85 3883.2 5240.51 3887.73 5231.55 3890 5220.96 3890 5201.15 3890 5186.04 3883.49 5175.62 3870.49 5165.21 3857.48 5160 3838.56 5160 3813.74 5160 3785.32 5167.51 3763.58 5182.54 3748.52 5197.57 3733.46 5219.34 3725.92 5247.85 3725.92L5266.81 3725.92 5266.81 3694.86C5266.81 3687.84 5264.93 3682.44 5261.17 3678.68 5257.42 3674.91 5252.04 3673.03 5245.04 3673.03 5239.06 3673.03 5234.41 3674.96 5231.08 3678.81 5227.75 3682.66 5226.08 3688.09 5226.08 3695.11L5165.38 3695.11C5165.38 3669.78 5172.42 3650.09 5186.51 3636.05 5200.6 3622.02 5220.36 3615 5245.81 3615ZM5251.18 3776.51C5240.94 3776.51 5233.17 3779.67 5227.88 3786.01 5222.58 3792.34 5219.94 3801.59 5219.94 3813.74 5219.94 3821.44 5221.56 3827.26 5224.8 3831.2 5228.05 3835.14 5232.83 3837.1 5239.15 3837.1 5247.85 3837.1 5254.64 3834.67 5259.51 3829.79 5264.38 3824.91 5266.81 3817.85 5266.81 3808.6L5266.81 3776.51 5251.18 3776.51Z" fill-rule="evenodd"/><path d="M5423.52 3615C5435.13 3615 5445.76 3619.23 5455.41 3627.7 5460.23 3631.94 5464.6 3637.01 5468.51 3642.94L5473.47 3651.5 5473.47 3619.36 5537 3619.36 5537 3917.28C5537 3933.53 5533.71 3947.38 5527.14 3958.85 5520.56 3970.31 5511 3979.03 5498.45 3985.02 5485.89 3991.01 5470.82 3994 5453.23 3994 5427.61 3994 5407.72 3987.33 5393.54 3973.98 5379.37 3960.64 5372.28 3941.82 5372.28 3917.53L5372.28 3904.7 5435.56 3904.19 5435.56 3917.02C5435.56 3922.66 5437.26 3927.07 5440.68 3930.23 5444.09 3933.4 5448.88 3934.98 5455.02 3934.98 5460.83 3934.98 5465.36 3933.44 5468.6 3930.36 5471.85 3927.28 5473.47 3922.92 5473.47 3917.28L5473.47 3853.39 5473.17 3854.19C5468.84 3863.9 5463.22 3871.79 5456.31 3877.89 5447.08 3886.01 5436.15 3890.08 5423.52 3890.08 5412.41 3890.08 5402.94 3887.25 5395.08 3881.61 5387.22 3875.96 5381.25 3867.71 5377.15 3856.85 5373.05 3845.98 5371 3832.94 5371 3817.71L5371 3687.1C5371 3671.88 5373.05 3658.88 5377.15 3648.1 5381.25 3637.32 5387.22 3629.11 5395.08 3623.47 5402.94 3617.82 5412.41 3615 5423.52 3615ZM5453.49 3672.48C5447 3672.48 5441.96 3674.62 5438.37 3678.89 5434.79 3683.17 5432.99 3689.24 5432.99 3697.11L5432.99 3808.48C5432.99 3816 5434.79 3821.82 5438.37 3825.93 5441.96 3830.03 5447 3832.08 5453.49 3832.08 5457.76 3832.08 5461.39 3831.19 5464.38 3829.39 5467.36 3827.59 5469.63 3824.9 5471.16 3821.31 5472.7 3817.71 5473.47 3813.35 5473.47 3808.22L5473.47 3696.6C5473.47 3691.47 5472.7 3687.1 5471.16 3683.51 5469.63 3679.92 5467.36 3677.18 5464.38 3675.3 5461.39 3673.42 5457.76 3672.48 5453.49 3672.48Z" fill-rule="evenodd"/></g></svg>