<svg width="596" height="603" xmlns="http://www.w3.org/2000/svg" xmlns:xlink="http://www.w3.org/1999/xlink" xml:space="preserve" overflow="hidden"><defs><clipPath id="clip0"><rect x="2671" y="2234" width="596" height="603"/></clipPath></defs><g clip-path="url(#clip0)" transform="translate(-2671 -2234)"><path d="M0 0 436.928 0 568 131.072 568 575 0 575Z" stroke="#000000" stroke-width="27.5" stroke-miterlimit="8" fill-rule="evenodd" transform="matrix(-1 0 0 1 3253 2248)"/><path d="M2678 2388 2829 2388 2829 2236" stroke="#000000" stroke-width="27.5" stroke-miterlimit="8" fill="#FFFFFF" fill-rule="evenodd"/><path d="M3246.5 2526.06 2982 2377.5 2717.5 2521.75 2984.15 2799.5 3246.5 2526.06Z" stroke="#2F528F" stroke-width="4.58333" stroke-miterlimit="8" fill="#FFFFFF" fill-rule="evenodd"/><path d="M0 0 361.969 236.709" stroke="#000000" stroke-width="20.625" stroke-miterlimit="8" fill="none" fill-rule="evenodd" transform="matrix(-1 0 0 1 3088.47 2368.5)"/><path d="M0 0 338.156 245.09" stroke="#000000" stroke-width="20.625" stroke-miterlimit="8" fill="none" fill-rule="evenodd" transform="matrix(-1 0 0 1 3136.66 2411.5)"/><path d="M0 0 338.156 258.945" stroke="#000000" stroke-width="20.625" stroke-miterlimit="8" fill="none" fill-rule="evenodd" transform="matrix(-1 0 0 1 3195.66 2465.5)"/><path d="M2903.5 2403.5 2963.5 2448.5" stroke="#000000" stroke-width="20.625" stroke-miterlimit="8" fill="none" fill-rule="evenodd"/><path d="M2857.5 2524.5 2917.5 2568.5" stroke="#000000" stroke-width="20.625" stroke-miterlimit="8" fill="none" fill-rule="evenodd"/><path d="M3034.5 2489.5 3097.5 2533.5" stroke="#000000" stroke-width="20.625" stroke-miterlimit="8" fill="none" fill-rule="evenodd"/><path d="M2983.5 2619.5 3088.5 2699.5" stroke="#000000" stroke-width="20.625" stroke-miterlimit="8" fill="none" fill-rule="evenodd"/></g></svg>