<svg width="754" height="642" xmlns="http://www.w3.org/2000/svg" xmlns:xlink="http://www.w3.org/1999/xlink" xml:space="preserve" overflow="hidden"><defs><clipPath id="clip0"><rect x="3570" y="1370" width="754" height="642"/></clipPath></defs><g clip-path="url(#clip0)" transform="translate(-3570 -1370)"><path d="M3570 1370 3924 1370 3924 1489.48 3689.52 1489.48 3689.52 1892.52 3924 1892.52 3924 2012 3570 2012 3570 1370Z" fill="#FFC000" fill-rule="evenodd"/><path d="M3734 1538 3787.4 1538 3787.4 1671.25 3829.6 1671.25 3829.6 1538 3883 1538 3883 1850 3829.6 1850 3829.6 1721.25 3787.4 1721.25 3787.4 1850 3734 1850 3734 1538Z" fill-rule="evenodd"/><path d="M3984 1623C3998.08 1623 4010.14 1625.33 4020.19 1629.98 4030.25 1634.63 4037.89 1641.43 4043.14 1650.38 4048.38 1659.33 4051 1670.1 4051 1682.7L4051 1792.87C4051 1805.47 4048.38 1816.28 4043.14 1825.3 4037.89 1834.32 4030.25 1841.19 4020.19 1845.91 4010.14 1850.64 3998.08 1853 3984 1853 3969.92 1853 3957.9 1850.6 3947.91 1845.81 3937.93 1841.01 3930.29 1834.07 3924.97 1824.97 3919.66 1815.88 3917 1804.97 3917 1792.22L3917 1682.7C3917 1670.1 3919.66 1659.33 3924.97 1650.38 3930.29 1641.43 3937.93 1634.63 3947.91 1629.98 3957.9 1625.33 3969.92 1623 3984 1623ZM3984 1670.67C3979.69 1670.67 3976.24 1672.11 3973.66 1674.97 3971.07 1677.83 3969.78 1681.77 3969.78 1686.78L3969.78 1788.36C3969.78 1793.8 3971.04 1797.95 3973.55 1800.82 3976.06 1803.68 3979.55 1805.11 3984 1805.11 3988.6 1805.11 3992.11 1803.68 3994.56 1800.82 3997 1797.95 3998.22 1793.8 3998.22 1788.36L3998.22 1686.78C3998.22 1681.63 3997 1677.65 3994.56 1674.86 3992.11 1672.07 3988.6 1670.67 3984 1670.67Z" fill-rule="evenodd"/><path d="M4189.33 1623C4198.81 1623 4206.89 1625.01 4213.57 1629.02 4220.25 1633.03 4225.31 1638.91 4228.76 1646.65 4229.62 1648.58 4230.38 1650.62 4231.02 1652.77L4232.35 1658.33 4234.08 1654.32C4238.47 1645.6 4243.95 1638.64 4250.52 1633.43 4259.29 1626.47 4269.06 1623 4279.83 1623 4289.02 1623 4296.92 1625.22 4303.53 1629.66 4310.14 1634.11 4315.2 1640.56 4318.72 1649.01 4322.24 1657.47 4324 1667.64 4324 1679.53L4324 1850 4269.92 1850 4269.92 1692.43C4269.92 1685.41 4268.41 1680.07 4265.39 1676.42 4262.38 1672.76 4257.99 1670.94 4252.25 1670.94 4246.22 1670.94 4241.65 1672.73 4238.57 1676.31 4235.48 1679.89 4233.93 1685.2 4233.93 1692.22L4233.93 1850 4180.07 1850 4180.07 1692.43C4180.07 1685.41 4178.52 1680.07 4175.43 1676.42 4172.35 1672.76 4167.78 1670.94 4161.75 1670.94 4156.01 1670.94 4151.62 1672.73 4148.61 1676.31 4145.59 1679.89 4144.08 1685.2 4144.08 1692.22L4144.08 1850 4090 1850 4090 1626.87 4144.08 1626.87 4144.08 1654.02 4148.18 1646.81C4151.55 1641.68 4155.43 1637.33 4159.81 1633.75 4168.57 1626.58 4178.41 1623 4189.33 1623Z" fill-rule="evenodd"/></g></svg>