<svg width="812" height="643" xmlns="http://www.w3.org/2000/svg" xmlns:xlink="http://www.w3.org/1999/xlink" xml:space="preserve" overflow="hidden"><defs><clipPath id="clip0"><rect x="3566" y="3665" width="812" height="643"/></clipPath></defs><g clip-path="url(#clip0)" transform="translate(-3566 -3665)"><path d="M3566 3665 3920 3665 3920 3784.66 3685.52 3784.66 3685.52 3925.13 3811.08 3925.13 3811.08 4047.87 3685.52 4047.87 3685.52 4188.34 3920 4188.34 3920 4308 3566 4308 3566 4047.87 3566 3925.13Z" fill="#2F5597" fill-rule="evenodd"/><path d="M3788 3819 3841.4 3819 3841.4 3952.68 3883.6 3952.68 3883.6 3819 3937 3819 3937 4132 3883.6 4132 3883.6 4002.84 3841.4 4002.84 3841.4 4132 3788 4132 3788 3819Z" fill-rule="evenodd"/><path d="M4038 3905C4052.08 3905 4064.14 3907.33 4074.19 3911.98 4084.25 3916.63 4091.89 3923.43 4097.14 3932.38 4102.38 3941.33 4105 3952.1 4105 3964.7L4105 4074.87C4105 4087.47 4102.38 4098.28 4097.14 4107.3 4091.89 4116.32 4084.25 4123.19 4074.19 4127.91 4064.14 4132.64 4052.08 4135 4038 4135 4023.92 4135 4011.9 4132.6 4001.91 4127.81 3991.93 4123.01 3984.29 4116.07 3978.97 4106.97 3973.66 4097.88 3971 4086.97 3971 4074.22L3971 3964.7C3971 3952.1 3973.66 3941.33 3978.97 3932.38 3984.29 3923.43 3991.93 3916.63 4001.91 3911.98 4011.9 3907.33 4023.92 3905 4038 3905ZM4038 3952.67C4033.69 3952.67 4030.24 3954.11 4027.66 3956.97 4025.07 3959.83 4023.78 3963.77 4023.78 3968.78L4023.78 4070.36C4023.78 4075.8 4025.04 4079.95 4027.55 4082.82 4030.06 4085.68 4033.55 4087.11 4038 4087.11 4042.6 4087.11 4046.11 4085.68 4048.56 4082.82 4051 4079.95 4052.22 4075.8 4052.22 4070.36L4052.22 3968.78C4052.22 3963.63 4051 3959.65 4048.56 3956.86 4046.11 3954.07 4042.6 3952.67 4038 3952.67Z" fill-rule="evenodd"/><path d="M4243.33 3905C4252.81 3905 4260.89 3907.01 4267.57 3911.02 4274.25 3915.03 4279.31 3920.91 4282.76 3928.65 4283.62 3930.58 4284.38 3932.62 4285.02 3934.77L4286.35 3940.33 4288.08 3936.32C4292.47 3927.6 4297.95 3920.64 4304.52 3915.43 4313.29 3908.48 4323.06 3905 4333.83 3905 4343.02 3905 4350.92 3907.22 4357.53 3911.66 4364.14 3916.11 4369.2 3922.56 4372.72 3931.01 4376.24 3939.47 4378 3949.64 4378 3961.53L4378 4132 4323.92 4132 4323.92 3974.43C4323.92 3967.41 4322.41 3962.07 4319.39 3958.42 4316.38 3954.76 4311.99 3952.94 4306.25 3952.94 4300.22 3952.94 4295.65 3954.73 4292.57 3958.31 4289.48 3961.89 4287.93 3967.2 4287.93 3974.22L4287.93 4132 4234.07 4132 4234.07 3974.43C4234.07 3967.41 4232.52 3962.07 4229.43 3958.42 4226.35 3954.76 4221.78 3952.94 4215.75 3952.94 4210.01 3952.94 4205.62 3954.73 4202.61 3958.31 4199.59 3961.89 4198.08 3967.2 4198.08 3974.22L4198.08 4132 4144 4132 4144 3908.87 4198.08 3908.87 4198.08 3936.02 4202.18 3928.81C4205.55 3923.68 4209.43 3919.33 4213.81 3915.75 4222.57 3908.58 4232.41 3905 4243.33 3905Z" fill-rule="evenodd"/></g></svg>