<svg width="808" height="643" xmlns="http://www.w3.org/2000/svg" xmlns:xlink="http://www.w3.org/1999/xlink" xml:space="preserve" overflow="hidden"><defs><clipPath id="clip0"><rect x="4818" y="1879" width="808" height="643"/></clipPath></defs><g clip-path="url(#clip0)" transform="translate(-4818 -1879)"><path d="M4818 1879 5171 1879 5171 1998.66 4937.18 1998.66 4937.18 2139.13 5062.38 2139.13 5062.38 2261.87 4937.18 2261.87 4937.18 2402.34 5171 2402.34 5171 2522 4818 2522 4818 2261.87 4818 2139.13Z" fill="#FF0000" fill-rule="evenodd"/><path d="M5036 2046 5089.4 2046 5089.4 2179.25 5131.6 2179.25 5131.6 2046 5185 2046 5185 2358 5131.6 2358 5131.6 2229.25 5089.4 2229.25 5089.4 2358 5036 2358 5036 2046Z" fill-rule="evenodd"/><path d="M5286 2131C5300.08 2131 5312.14 2133.33 5322.19 2137.98 5332.25 2142.63 5339.89 2149.43 5345.14 2158.38 5350.38 2167.33 5353 2178.1 5353 2190.7L5353 2300.87C5353 2313.47 5350.38 2324.28 5345.14 2333.3 5339.89 2342.32 5332.25 2349.19 5322.19 2353.91 5312.14 2358.64 5300.08 2361 5286 2361 5271.92 2361 5259.9 2358.6 5249.91 2353.81 5239.93 2349.01 5232.29 2342.07 5226.97 2332.97 5221.66 2323.88 5219 2312.97 5219 2300.22L5219 2190.7C5219 2178.1 5221.66 2167.33 5226.97 2158.38 5232.29 2149.43 5239.93 2142.63 5249.91 2137.98 5259.9 2133.33 5271.92 2131 5286 2131ZM5286 2178.67C5281.69 2178.67 5278.24 2180.11 5275.66 2182.97 5273.07 2185.83 5271.78 2189.77 5271.78 2194.78L5271.78 2296.36C5271.78 2301.8 5273.04 2305.95 5275.55 2308.82 5278.06 2311.68 5281.55 2313.11 5286 2313.11 5290.6 2313.11 5294.11 2311.68 5296.56 2308.82 5299 2305.95 5300.22 2301.8 5300.22 2296.36L5300.22 2194.78C5300.22 2189.63 5299 2185.65 5296.56 2182.86 5294.11 2180.07 5290.6 2178.67 5286 2178.67Z" fill-rule="evenodd"/><path d="M5491.91 2131C5501.35 2131 5509.39 2133.01 5516.04 2137.02 5522.69 2141.03 5527.74 2146.91 5531.17 2154.65 5532.03 2156.58 5532.78 2158.62 5533.42 2160.77L5534.74 2166.33 5536.47 2162.32C5540.84 2153.6 5546.3 2146.64 5552.84 2141.43 5561.56 2134.48 5571.29 2131 5582.02 2131 5591.17 2131 5599.04 2133.22 5605.62 2137.66 5612.2 2142.11 5617.24 2148.56 5620.74 2157.01 5624.25 2165.47 5626 2175.64 5626 2187.53L5626 2358 5572.15 2358 5572.15 2200.43C5572.15 2193.41 5570.65 2188.07 5567.64 2184.42 5564.64 2180.76 5560.28 2178.94 5554.56 2178.94 5548.55 2178.94 5544.01 2180.73 5540.93 2184.31 5537.86 2187.89 5536.32 2193.2 5536.32 2200.22L5536.32 2358 5482.68 2358 5482.68 2200.43C5482.68 2193.41 5481.14 2188.07 5478.07 2184.42 5474.99 2180.76 5470.45 2178.94 5464.44 2178.94 5458.72 2178.94 5454.36 2180.73 5451.36 2184.31 5448.35 2187.89 5446.85 2193.2 5446.85 2200.22L5446.85 2358 5393 2358 5393 2134.87 5446.85 2134.87 5446.85 2162.02 5450.93 2154.81C5454.29 2149.68 5458.15 2145.33 5462.51 2141.75 5471.24 2134.58 5481.04 2131 5491.91 2131Z" fill-rule="evenodd"/></g></svg>