<svg width="628" height="643" xmlns="http://www.w3.org/2000/svg" xmlns:xlink="http://www.w3.org/1999/xlink" xml:space="preserve" overflow="hidden"><defs><clipPath id="clip0"><rect x="4818" y="360" width="628" height="643"/></clipPath></defs><g clip-path="url(#clip0)" transform="translate(-4818 -360)"><path d="M4818 360 5171 360 5171 479.661 4937.18 479.661 4937.18 620.126 5062.38 620.126 5062.38 742.874 4937.18 742.874 4937.18 883.339 5171 883.339 5171 1003 4818 1003 4818 742.874 4818 620.126Z" fill="#FF0000" fill-rule="evenodd"/><path d="M5034 524 5057.67 524 5087.36 524 5173 524 5173 575.928 5087.36 575.928 5087.36 655.109 5162.24 655.109 5162.24 706.823 5087.36 706.823 5087.36 784.072 5173 784.072 5173 836 5087.36 836 5057.67 836 5034 836 5034 524Z" fill-rule="evenodd"/><path d="M5308 609 5308 665.32C5306.28 665.32 5304.27 665.32 5301.97 665.32 5299.68 665.32 5297.16 665.32 5294.44 665.32 5281.81 665.32 5271.97 669.118 5264.94 676.713 5257.91 684.309 5254.39 694.627 5254.39 707.668L5254.39 836 5201 836 5201 612.87 5254.39 612.87 5254.39 643.534 5255.06 642.319C5260.59 633.398 5267.15 626.09 5274.74 620.393 5284.86 612.798 5295.94 609 5308 609Z" fill-rule="evenodd"/><path d="M5446 609 5446 665.32C5444.28 665.32 5442.27 665.32 5439.97 665.32 5437.68 665.32 5435.16 665.32 5432.44 665.32 5419.81 665.32 5409.97 669.118 5402.94 676.713 5395.91 684.309 5392.39 694.627 5392.39 707.668L5392.39 836 5339 836 5339 612.87 5392.39 612.87 5392.39 643.534 5393.06 642.319C5398.59 633.398 5405.15 626.09 5412.74 620.393 5422.86 612.798 5433.94 609 5446 609Z" fill-rule="evenodd"/></g></svg>