<svg width="592" height="593" xmlns="http://www.w3.org/2000/svg" xmlns:xlink="http://www.w3.org/1999/xlink" xml:space="preserve" overflow="hidden"><defs><clipPath id="clip0"><rect x="3424" y="2372" width="592" height="593"/></clipPath></defs><g clip-path="url(#clip0)" transform="translate(-3424 -2372)"><rect x="3434.5" y="2382.5" width="190" height="190" stroke="#0D0D0D" stroke-width="20.625" stroke-miterlimit="8" fill="none"/><rect x="3624.5" y="2382.5" width="191" height="190" stroke="#0D0D0D" stroke-width="20.625" stroke-miterlimit="8" fill="none"/><rect x="3815.5" y="2382.5" width="190" height="190" stroke="#0D0D0D" stroke-width="20.625" stroke-miterlimit="8" fill="none"/><rect x="3434.5" y="2572.5" width="190" height="191" stroke="#0D0D0D" stroke-width="20.625" stroke-miterlimit="8" fill="none"/><rect x="3624.5" y="2572.5" width="191" height="191" stroke="#0D0D0D" stroke-width="20.625" stroke-miterlimit="8" fill="none"/><rect x="3815.5" y="2572.5" width="190" height="191" stroke="#0D0D0D" stroke-width="20.625" stroke-miterlimit="8" fill="none"/><rect x="3434.5" y="2763.5" width="190" height="191" stroke="#0D0D0D" stroke-width="20.625" stroke-miterlimit="8" fill="none"/><rect x="3624.5" y="2763.5" width="191" height="191" stroke="#0D0D0D" stroke-width="20.625" stroke-miterlimit="8" fill="none"/><rect x="3815.5" y="2763.5" width="190" height="191" stroke="#0D0D0D" stroke-width="20.625" stroke-miterlimit="8" fill="none"/><path d="M3474 2665C3474 2631.31 3501.53 2604 3535.5 2604 3569.47 2604 3597 2631.31 3597 2665 3597 2698.69 3569.47 2726 3535.5 2726 3501.53 2726 3474 2698.69 3474 2665Z" fill="#F4B183" fill-rule="evenodd"/><path d="M3474 2471C3474 2437.31 3501.53 2410 3535.5 2410 3569.47 2410 3597 2437.31 3597 2471 3597 2504.69 3569.47 2532 3535.5 2532 3501.53 2532 3474 2504.69 3474 2471Z" fill="#FFCCFF" fill-rule="evenodd"/><path d="M3474 2862.5C3474 2828.53 3501.53 2801 3535.5 2801 3569.47 2801 3597 2828.53 3597 2862.5 3597 2896.47 3569.47 2924 3535.5 2924 3501.53 2924 3474 2896.47 3474 2862.5Z" fill="#FF0000" fill-rule="evenodd"/><path d="M3657 2664C3657 2630.31 3684.53 2603 3718.5 2603 3752.47 2603 3780 2630.31 3780 2664 3780 2697.69 3752.47 2725 3718.5 2725 3684.53 2725 3657 2697.69 3657 2664Z" fill="#FFCCFF" fill-rule="evenodd"/><path d="M3657 2469.5C3657 2435.53 3684.53 2408 3718.5 2408 3752.47 2408 3780 2435.53 3780 2469.5 3780 2503.47 3752.47 2531 3718.5 2531 3684.53 2531 3657 2503.47 3657 2469.5Z" fill="#9DC3E6" fill-rule="evenodd"/><path d="M3657 2861.5C3657 2827.53 3684.53 2800 3718.5 2800 3752.47 2800 3780 2827.53 3780 2861.5 3780 2895.47 3752.47 2923 3718.5 2923 3684.53 2923 3657 2895.47 3657 2861.5Z" fill="#F4B183" fill-rule="evenodd"/><path d="M3845 2660C3845 2626.31 3872.53 2599 3906.5 2599 3940.47 2599 3968 2626.31 3968 2660 3968 2693.69 3940.47 2721 3906.5 2721 3872.53 2721 3845 2693.69 3845 2660Z" fill="#9DC3E6" fill-rule="evenodd"/><path d="M3845 2465.5C3845 2431.53 3872.53 2404 3906.5 2404 3940.47 2404 3968 2431.53 3968 2465.5 3968 2499.47 3940.47 2527 3906.5 2527 3872.53 2527 3845 2499.47 3845 2465.5Z" fill="#2E75B6" fill-rule="evenodd"/><path d="M3845 2857C3845 2823.31 3872.53 2796 3906.5 2796 3940.47 2796 3968 2823.31 3968 2857 3968 2890.69 3940.47 2918 3906.5 2918 3872.53 2918 3845 2890.69 3845 2857Z" fill="#FFCCFF" fill-rule="evenodd"/></g></svg>