<svg width="593" height="593" xmlns="http://www.w3.org/2000/svg" xmlns:xlink="http://www.w3.org/1999/xlink" xml:space="preserve" overflow="hidden"><defs><clipPath id="clip0"><rect x="2719" y="2084" width="593" height="593"/></clipPath></defs><g clip-path="url(#clip0)" transform="translate(-2719 -2084)"><path d="M2949 2281.5C2949 2195.07 3019.07 2125 3105.5 2125 3191.93 2125 3262 2195.07 3262 2281.5 3262 2367.93 3191.93 2438 3105.5 2438 3019.07 2438 2949 2367.93 2949 2281.5Z" fill="#00B0F0" fill-rule="evenodd"/><rect x="2729.5" y="2094.5" width="191" height="190" stroke="#0D0D0D" stroke-width="20.625" stroke-miterlimit="8" fill="none"/><rect x="2920.5" y="2094.5" width="190" height="190" stroke="#0D0D0D" stroke-width="20.625" stroke-miterlimit="8" fill="none"/><rect x="3110.5" y="2094.5" width="191" height="190" stroke="#0D0D0D" stroke-width="20.625" stroke-miterlimit="8" fill="none"/><rect x="2729.5" y="2284.5" width="191" height="191" stroke="#0D0D0D" stroke-width="20.625" stroke-miterlimit="8" fill="none"/><rect x="2920.5" y="2284.5" width="190" height="191" stroke="#0D0D0D" stroke-width="20.625" stroke-miterlimit="8" fill="none"/><rect x="3110.5" y="2284.5" width="191" height="191" stroke="#0D0D0D" stroke-width="20.625" stroke-miterlimit="8" fill="none"/><rect x="2729.5" y="2475.5" width="191" height="191" stroke="#0D0D0D" stroke-width="20.625" stroke-miterlimit="8" fill="none"/><rect x="2920.5" y="2475.5" width="190" height="191" stroke="#0D0D0D" stroke-width="20.625" stroke-miterlimit="8" fill="none"/><rect x="3110.5" y="2475.5" width="191" height="191" stroke="#0D0D0D" stroke-width="20.625" stroke-miterlimit="8" fill="none"/><path d="M2778 2377C2778 2347.73 2801.5 2324 2830.5 2324 2859.49 2324 2883 2347.73 2883 2377 2883 2406.27 2859.49 2430 2830.5 2430 2801.5 2430 2778 2406.27 2778 2377Z" fill="#00B0F0" fill-rule="evenodd"/><path d="M2769 2183C2769 2149.31 2796.53 2122 2830.5 2122 2864.47 2122 2892 2149.31 2892 2183 2892 2216.69 2864.47 2244 2830.5 2244 2796.53 2244 2769 2216.69 2769 2183Z" fill="#FF0000" fill-rule="evenodd"/><path d="M2742 2570.5C2742 2525.49 2778.71 2489 2824 2489 2869.29 2489 2906 2525.49 2906 2570.5 2906 2615.51 2869.29 2652 2824 2652 2778.71 2652 2742 2615.51 2742 2570.5Z" fill="#FF0000" fill-rule="evenodd"/><path d="M2955 2573.5C2955 2541.19 2981.19 2515 3013.5 2515 3045.81 2515 3072 2541.19 3072 2573.5 3072 2605.81 3045.81 2632 3013.5 2632 2981.19 2632 2955 2605.81 2955 2573.5Z" fill="#00B0F0" fill-rule="evenodd"/><path d="M3124 2569C3124 2524.26 3160.26 2488 3205 2488 3249.73 2488 3286 2524.26 3286 2569 3286 2613.73 3249.73 2650 3205 2650 3160.26 2650 3124 2613.73 3124 2569Z" fill="#FF0000" fill-rule="evenodd"/></g></svg>