<svg width="657" height="629" xmlns="http://www.w3.org/2000/svg" xmlns:xlink="http://www.w3.org/1999/xlink" xml:space="preserve" overflow="hidden"><defs><clipPath id="clip0"><rect x="4770" y="2773" width="657" height="629"/></clipPath></defs><g clip-path="url(#clip0)" transform="translate(-4770 -2773)"><path d="M4770 2773 4876.98 2773 4876.98 3296.5 5124 3296.5 5124 3402 4876.98 3402 4770 3402 4770 3296.5Z" fill="#548235" fill-rule="evenodd"/><path d="M4933 2848 4961.1 2848 4996.34 2848 5098 2848 5098 2910.08 4996.34 2910.08 4996.34 3004.74 5085.23 3004.74 5085.23 3066.57 4996.34 3066.57 4996.34 3158.92 5098 3158.92 5098 3221 4996.34 3221 4961.1 3221 4933 3221 4933 2848Z" fill-rule="evenodd"/><path d="M5262 2950 5262 3017.24C5259.94 3017.24 5257.54 3017.24 5254.79 3017.24 5252.04 3017.24 5249.04 3017.24 5245.77 3017.24 5230.67 3017.24 5218.9 3021.77 5210.49 3030.84 5202.08 3039.91 5197.87 3052.22 5197.87 3067.79L5197.87 3221 5134 3221 5134 2954.62 5197.87 2954.62 5197.87 2991.23 5198.67 2989.78C5205.28 2979.13 5213.13 2970.4 5222.21 2963.6 5234.31 2954.53 5247.58 2950 5262 2950Z" fill-rule="evenodd"/><path d="M5427 2950 5427 3017.24C5424.94 3017.24 5422.54 3017.24 5419.79 3017.24 5417.04 3017.24 5414.04 3017.24 5410.77 3017.24 5395.67 3017.24 5383.9 3021.77 5375.49 3030.84 5367.08 3039.91 5362.87 3052.22 5362.87 3067.79L5362.87 3221 5299 3221 5299 2954.62 5362.87 2954.62 5362.87 2991.23 5363.67 2989.78C5370.28 2979.13 5378.13 2970.4 5387.21 2963.6 5399.31 2954.53 5412.58 2950 5427 2950Z" fill-rule="evenodd"/></g></svg>