<svg width="592" height="593" xmlns="http://www.w3.org/2000/svg" xmlns:xlink="http://www.w3.org/1999/xlink" xml:space="preserve" overflow="hidden"><defs><clipPath id="clip0"><rect x="556" y="3308" width="592" height="593"/></clipPath></defs><g clip-path="url(#clip0)" transform="translate(-556 -3308)"><rect x="566.5" y="3318.5" width="190" height="191" stroke="#0D0D0D" stroke-width="20.625" stroke-miterlimit="8" fill="none"/><rect x="756.5" y="3318.5" width="191" height="191" stroke="#0D0D0D" stroke-width="20.625" stroke-miterlimit="8"/><rect x="947.5" y="3318.5" width="190" height="191" stroke="#0D0D0D" stroke-width="20.625" stroke-miterlimit="8" fill="none"/><rect x="566.5" y="3509.5" width="190" height="190" stroke="#0D0D0D" stroke-width="20.625" stroke-miterlimit="8"/><rect x="756.5" y="3509.5" width="191" height="190" stroke="#0D0D0D" stroke-width="20.625" stroke-miterlimit="8" fill="none"/><rect x="947.5" y="3509.5" width="190" height="190" stroke="#0D0D0D" stroke-width="20.625" stroke-miterlimit="8"/><rect x="566.5" y="3699.5" width="190" height="191" stroke="#0D0D0D" stroke-width="20.625" stroke-miterlimit="8" fill="none"/><rect x="756.5" y="3699.5" width="191" height="191" stroke="#0D0D0D" stroke-width="20.625" stroke-miterlimit="8"/><rect x="947.5" y="3699.5" width="190" height="191" stroke="#0D0D0D" stroke-width="20.625" stroke-miterlimit="8" fill="none"/><path d="M808 3398C808 3374.25 827.252 3355 851 3355 874.748 3355 894 3374.25 894 3398 894 3421.75 874.748 3441 851 3441 827.252 3441 808 3421.75 808 3398Z" stroke="#FFFFFF" stroke-width="13.75" stroke-miterlimit="8" fill="#FFFFFF" fill-rule="evenodd"/><path d="M614 3601C614 3577.25 633.252 3558 657 3558 680.748 3558 700 3577.25 700 3601 700 3624.75 680.748 3644 657 3644 633.252 3644 614 3624.75 614 3601Z" stroke="#FFFFFF" stroke-width="13.75" stroke-miterlimit="8" fill="#FFFFFF" fill-rule="evenodd"/><path d="M808 3807C808 3783.25 827.252 3764 851 3764 874.748 3764 894 3783.25 894 3807 894 3830.75 874.748 3850 851 3850 827.252 3850 808 3830.75 808 3807Z" stroke="#FFFFFF" stroke-width="13.75" stroke-miterlimit="8" fill="#FFFFFF" fill-rule="evenodd"/><path d="M1006 3592C1006 3568.25 1025.25 3549 1049 3549 1072.75 3549 1092 3568.25 1092 3592 1092 3615.75 1072.75 3635 1049 3635 1025.25 3635 1006 3615.75 1006 3592Z" stroke="#FFFFFF" stroke-width="13.75" stroke-miterlimit="8" fill="#FFFFFF" fill-rule="evenodd"/></g></svg>