<svg width="593" height="593" xmlns="http://www.w3.org/2000/svg" xmlns:xlink="http://www.w3.org/1999/xlink" xml:space="preserve" overflow="hidden"><defs><clipPath id="clip0"><rect x="1968" y="2522" width="593" height="593"/></clipPath></defs><g clip-path="url(#clip0)" transform="translate(-1968 -2522)"><rect x="1978.5" y="2532.5" width="190" height="191" stroke="#0D0D0D" stroke-width="20.625" stroke-miterlimit="8" fill="none"/><rect x="2168.5" y="2532.5" width="191" height="191" stroke="#0D0D0D" stroke-width="20.625" stroke-miterlimit="8" fill="none"/><rect x="2359.5" y="2532.5" width="191" height="191" stroke="#0D0D0D" stroke-width="20.625" stroke-miterlimit="8" fill="none"/><rect x="1978.5" y="2723.5" width="190" height="191" stroke="#0D0D0D" stroke-width="20.625" stroke-miterlimit="8" fill="none"/><rect x="2168.5" y="2723.5" width="191" height="191" stroke="#0D0D0D" stroke-width="20.625" stroke-miterlimit="8" fill="none"/><rect x="2359.5" y="2723.5" width="191" height="191" stroke="#0D0D0D" stroke-width="20.625" stroke-miterlimit="8" fill="none"/><rect x="1978.5" y="2914.5" width="190" height="190" stroke="#0D0D0D" stroke-width="20.625" stroke-miterlimit="8" fill="none"/><rect x="2168.5" y="2914.5" width="191" height="190" stroke="#0D0D0D" stroke-width="20.625" stroke-miterlimit="8" fill="none"/><rect x="2359.5" y="2914.5" width="191" height="190" stroke="#0D0D0D" stroke-width="20.625" stroke-miterlimit="8" fill="none"/><path d="M2199 2818C2199 2781.55 2228.55 2752 2265 2752 2301.45 2752 2331 2781.55 2331 2818 2331 2854.45 2301.45 2884 2265 2884 2228.55 2884 2199 2854.45 2199 2818Z" fill-rule="evenodd"/><path d="M2392 2622C2392 2585.55 2421.33 2556 2457.5 2556 2493.67 2556 2523 2585.55 2523 2622 2523 2658.45 2493.67 2688 2457.5 2688 2421.33 2688 2392 2658.45 2392 2622Z" fill-rule="evenodd"/><path d="M2010 3005C2010 2968.55 2039.55 2939 2076 2939 2112.45 2939 2142 2968.55 2142 3005 2142 3041.45 2112.45 3071 2076 3071 2039.55 3071 2010 3041.45 2010 3005Z" fill-rule="evenodd"/></g></svg>